{"glyphs":{"0":{"ha":615,"x_min":35,"x_max":644,"o":"m 278 -17 q 100 50 165 -17 q 35 229 35 117 q 38 276 35 243 l 89 696 q 191 908 106 828 q 401 989 276 989 q 579 923 514 989 q 644 744 644 857 q 642 696 644 713 l 590 276 q 488 63 574 143 q 278 -17 403 -17 m 303 182 q 343 204 326 182 q 365 263 360 226 l 419 710 q 421 731 421 717 q 410 774 421 758 q 378 790 399 790 q 336 768 353 790 q 315 710 319 746 l 260 263 q 258 244 258 257 q 270 199 258 217 q 303 182 282 182 z "},"1":{"ha":396,"x_min":79,"x_max":451,"o":"m 218 968 q 239 972 228 972 l 436 972 q 447 967 443 972 q 450 956 451 963 l 335 17 q 328 5 333 10 q 317 0 324 0 l 125 0 q 114 5 118 0 q 111 17 110 10 l 201 749 q 196 756 201 756 l 94 750 q 81 765 79 750 l 96 913 q 111 931 97 926 l 218 968 z "},"2":{"ha":608,"x_min":4,"x_max":642,"o":"m 299 206 q 297 200 296 203 q 301 197 297 197 l 571 197 q 582 192 578 197 q 585 181 586 188 l 565 17 q 559 5 564 10 q 547 0 554 0 l 19 0 q 4 17 4 0 l 25 186 q 35 207 26 193 l 124 301 q 324 525 268 453 q 391 634 368 585 q 414 729 414 683 q 371 786 414 786 q 332 767 349 786 q 313 717 315 747 l 306 657 q 299 645 304 650 q 288 640 294 640 l 93 640 q 82 645 86 640 q 79 657 78 650 l 88 726 q 197 913 110 842 q 407 983 285 983 q 578 920 514 983 q 642 751 642 857 q 639 707 642 738 q 599 569 629 632 q 511 435 569 507 q 358 268 465 378 l 299 206 z "},"3":{"ha":600,"x_min":26,"x_max":658,"o":"m 586 397 q 581 313 586 371 l 567 222 q 469 53 549 118 q 274 -11 389 -11 q 94 47 161 -11 q 26 199 26 104 q 28 226 26 217 q 35 300 29 250 q 53 317 38 317 l 243 317 q 258 303 258 317 q 256 273 258 288 q 254 246 254 258 q 265 203 254 218 q 297 188 276 188 q 335 203 319 188 q 358 247 351 219 l 371 338 l 374 368 q 378 433 378 401 q 366 471 378 457 q 335 485 354 485 q 286 463 313 485 q 274 457 278 457 q 263 463 271 457 l 178 568 q 174 579 174 575 q 181 592 174 585 l 361 768 q 360 776 368 776 l 128 776 q 117 781 121 776 q 114 793 113 786 l 133 956 q 140 967 135 963 q 151 972 144 972 l 643 972 q 654 967 650 972 q 657 956 658 963 l 638 788 q 626 768 636 778 l 460 594 q 461 586 454 586 q 556 528 521 582 q 586 397 592 474 z "},"4":{"ha":685,"x_min":18,"x_max":699,"o":"m 683 447 q 694 442 690 447 q 697 431 699 438 l 675 256 q 669 244 674 249 q 657 239 664 239 l 613 239 q 606 232 606 239 l 579 17 q 573 5 578 10 q 561 0 568 0 l 369 0 q 358 5 363 0 q 356 17 354 10 l 382 232 q 375 239 382 239 l 33 239 q 22 244 26 239 q 19 256 18 249 l 36 394 q 42 414 39 408 l 281 958 q 300 972 288 972 l 504 972 q 515 967 513 972 q 515 953 518 961 l 306 456 q 310 447 301 447 l 401 447 q 408 454 408 447 l 424 574 q 430 585 425 581 q 442 590 435 590 l 633 590 q 644 585 640 590 q 647 574 649 581 l 632 454 q 639 447 632 447 l 683 447 z "},"5":{"ha":606,"x_min":36,"x_max":667,"o":"m 597 374 q 592 306 597 353 l 581 226 q 483 52 565 115 q 278 -11 401 -11 q 99 47 163 -11 q 36 219 36 104 l 39 258 q 57 275 42 275 l 249 275 q 263 263 261 275 l 263 254 l 263 239 q 301 186 263 186 q 358 243 347 186 q 368 306 363 264 q 371 331 369 317 q 372 360 372 344 q 363 400 374 385 q 331 415 351 415 q 279 382 293 415 q 260 367 272 367 l 67 367 q 56 372 60 367 q 53 383 51 376 l 122 956 q 128 967 124 963 q 140 972 133 972 l 651 972 q 663 967 658 972 q 665 956 667 963 l 646 792 q 640 780 644 785 q 628 775 635 775 l 331 775 q 324 768 324 775 l 299 572 q 301 567 299 568 q 307 569 304 567 q 425 614 360 614 q 554 562 508 614 q 600 415 600 510 q 597 374 600 401 z "},"6":{"ha":607,"x_min":35,"x_max":636,"o":"m 600 372 q 593 306 599 354 l 583 229 q 485 52 567 115 q 281 -11 404 -11 q 99 47 164 -11 q 39 219 35 106 q 43 285 39 250 l 96 732 q 192 915 108 847 q 399 983 275 983 q 571 925 506 983 q 636 768 636 867 q 633 732 636 757 l 626 681 q 620 669 625 674 q 608 664 615 664 l 417 664 q 406 669 410 664 q 403 681 401 674 l 407 717 l 408 731 q 398 766 408 751 q 374 781 388 781 q 338 763 353 781 q 318 717 322 746 l 301 581 q 310 578 301 572 q 418 618 363 618 q 553 563 506 618 q 601 410 601 507 q 600 372 601 385 m 368 322 l 375 396 q 365 436 376 421 q 336 451 354 451 q 301 436 315 451 q 281 394 286 421 l 269 322 l 261 244 q 271 201 260 217 q 303 186 282 186 q 338 202 324 186 q 357 246 351 218 l 368 322 z "},"7":{"ha":568,"x_min":72,"x_max":650,"o":"m 89 0 q 78 6 81 0 q 78 19 75 11 l 386 767 q 382 775 390 775 l 268 775 q 260 768 263 775 l 254 721 q 248 709 253 714 q 236 704 243 704 l 88 704 q 76 709 81 704 q 74 721 72 714 l 104 956 q 110 967 106 963 q 122 972 115 972 l 633 972 q 645 967 640 972 q 649 956 650 963 l 628 785 l 622 765 l 310 14 q 292 0 306 0 l 89 0 z "},"8":{"ha":601,"x_min":36,"x_max":635,"o":"m 514 510 q 514 500 507 503 q 571 418 556 471 q 582 332 582 376 q 579 285 582 318 q 540 158 572 219 q 430 35 501 81 q 272 -11 358 -11 q 125 34 186 -11 q 43 158 64 79 q 36 232 36 188 q 39 285 36 267 q 76 415 47 360 q 156 499 103 469 q 157 508 163 503 q 100 593 114 539 q 89 674 89 633 q 92 717 89 689 q 131 842 100 789 q 239 951 168 911 q 396 992 310 992 q 540 953 479 992 q 622 842 601 915 q 635 757 635 804 q 593 594 635 664 q 514 510 564 542 m 318 738 q 308 694 313 718 q 307 646 306 660 q 317 604 307 619 q 346 589 328 589 q 380 605 365 589 q 400 647 394 621 q 408 693 408 686 q 410 738 411 725 q 400 779 410 764 q 371 794 390 794 q 339 778 353 794 q 318 738 325 763 m 353 250 q 360 299 358 279 q 363 354 364 333 q 353 398 364 382 q 324 414 343 414 q 291 397 306 414 q 269 353 276 381 q 261 303 261 310 q 257 246 257 272 q 267 202 257 218 q 296 186 278 186 q 331 203 317 186 q 353 250 346 221 z "},"9":{"ha":601,"x_min":31,"x_max":629,"o":"m 571 242 q 475 58 558 126 q 268 -11 392 -11 q 95 47 160 -11 q 31 206 31 106 q 33 242 31 217 l 40 292 q 47 303 42 299 q 58 308 51 308 l 250 308 q 261 303 257 308 q 264 292 265 299 l 260 257 l 258 243 q 269 206 258 221 q 293 192 279 192 q 329 210 314 192 q 349 257 344 228 l 364 390 q 363 395 365 394 q 357 393 360 396 q 249 354 307 354 q 114 410 163 354 q 65 563 65 465 q 67 600 65 588 q 74 668 68 621 q 85 743 76 693 q 181 920 100 857 q 388 983 263 983 q 565 928 500 983 q 629 763 629 872 q 625 688 629 729 l 571 242 m 332 522 q 367 537 353 522 q 386 578 381 551 l 396 650 q 404 728 400 683 q 396 772 407 756 q 365 788 385 788 q 330 771 344 788 q 308 726 315 754 l 304 692 l 299 650 q 292 578 297 642 q 301 537 290 551 q 332 522 313 522 z "},"\u0000":{"ha":0,"x_min":0,"x_max":0,"o":""},"\r":{"ha":269,"x_min":0,"x_max":0,"o":""}," ":{"ha":269,"x_min":0,"x_max":0,"o":""},"A":{"ha":685,"x_min":-10,"x_max":639,"o":"m 428 0 q 413 15 413 0 l 410 136 q 408 141 411 139 q 403 143 406 143 l 257 143 q 249 136 249 143 l 218 15 q 199 0 214 0 l 7 0 q -4 18 -10 0 l 306 957 q 325 972 310 972 l 544 972 q 561 957 561 972 l 639 18 l 639 14 q 624 0 639 0 l 428 0 m 301 328 q 306 321 301 321 l 396 321 q 403 328 403 321 l 393 644 q 390 650 393 650 q 385 644 388 650 l 301 328 z "},"Á":{"ha":685,"x_min":-10,"x_max":639,"o":"m 428 0 q 413 15 413 0 l 410 136 q 408 141 411 139 q 403 143 406 143 l 257 143 q 249 136 249 143 l 218 15 q 199 0 214 0 l 7 0 q -4 18 -10 0 l 306 957 q 325 972 310 972 l 544 972 q 561 957 561 972 l 639 18 l 639 14 q 624 0 639 0 l 428 0 m 301 328 q 306 321 301 321 l 396 321 q 403 328 403 321 l 393 644 q 390 650 393 650 q 385 644 388 650 l 301 328 m 363 1057 q 349 1065 349 1057 q 353 1076 349 1071 l 449 1215 q 469 1226 456 1226 l 619 1226 q 632 1218 632 1226 q 626 1206 632 1211 l 504 1067 q 483 1057 496 1057 l 363 1057 z "},"Ă":{"ha":685,"x_min":-10,"x_max":639,"o":"m 428 0 q 413 15 413 0 l 410 136 q 408 141 411 139 q 403 143 406 143 l 257 143 q 249 136 249 143 l 218 15 q 199 0 214 0 l 7 0 q -4 18 -10 0 l 306 957 q 325 972 310 972 l 544 972 q 561 957 561 972 l 639 18 l 639 14 q 624 0 639 0 l 428 0 m 301 328 q 306 321 301 321 l 396 321 q 403 328 403 321 l 393 644 q 390 650 393 650 q 385 644 388 650 l 301 328 m 442 1013 q 328 1054 369 1013 q 290 1165 288 1096 q 308 1182 293 1182 l 390 1182 q 406 1165 406 1182 q 419 1125 407 1140 q 453 1110 432 1110 q 490 1125 474 1110 q 514 1165 507 1140 q 533 1182 518 1182 l 615 1182 q 629 1165 632 1182 q 564 1054 615 1096 q 442 1013 513 1013 z "},"Ắ":{"ha":685,"x_min":-10,"x_max":660,"o":"m 428 0 q 413 15 413 0 l 410 136 q 408 141 411 139 q 403 143 406 143 l 257 143 q 249 136 249 143 l 218 15 q 199 0 214 0 l 7 0 q -4 18 -10 0 l 306 957 q 325 972 310 972 l 544 972 q 561 957 561 972 l 639 18 l 639 14 q 624 0 639 0 l 428 0 m 301 328 q 306 321 301 321 l 396 321 q 403 328 403 321 l 393 644 q 390 650 393 650 q 385 644 388 650 l 301 328 z "},"Ặ":{"ha":685,"x_min":-10,"x_max":639,"o":"m 428 0 q 413 15 413 0 l 410 136 q 408 141 411 139 q 403 143 406 143 l 257 143 q 249 136 249 143 l 218 15 q 199 0 214 0 l 7 0 q -4 18 -10 0 l 306 957 q 325 972 310 972 l 544 972 q 561 957 561 972 l 639 18 l 639 14 q 624 0 639 0 l 428 0 m 301 328 q 306 321 301 321 l 396 321 q 403 328 403 321 l 393 644 q 390 650 393 650 q 385 644 388 650 l 301 328 m 272 -358 q 199 -331 226 -358 q 172 -260 172 -303 q 209 -164 172 -201 q 301 -126 246 -126 q 373 -153 346 -126 q 400 -226 400 -181 q 363 -319 400 -281 q 272 -358 325 -358 m 443 1032 q 331 1074 371 1032 q 293 1185 290 1115 q 311 1201 294 1201 l 393 1201 q 408 1185 408 1201 q 421 1144 408 1160 q 456 1129 433 1129 q 493 1144 476 1129 q 517 1185 510 1160 q 536 1201 521 1201 l 618 1201 q 632 1185 635 1201 q 566 1074 617 1115 q 443 1032 515 1032 z "},"Ằ":{"ha":685,"x_min":-10,"x_max":639,"o":"m 428 0 q 413 15 413 0 l 410 136 q 408 141 411 139 q 403 143 406 143 l 257 143 q 249 136 249 143 l 218 15 q 199 0 214 0 l 7 0 q -4 18 -10 0 l 306 957 q 325 972 310 972 l 544 972 q 561 957 561 972 l 639 18 l 639 14 q 624 0 639 0 l 428 0 m 301 328 q 306 321 301 321 l 396 321 q 403 328 403 321 l 393 644 q 390 650 393 650 q 385 644 388 650 l 301 328 z "},"Ẳ":{"ha":685,"x_min":-10,"x_max":639,"o":"m 428 0 q 413 15 413 0 l 410 136 q 408 141 411 139 q 403 143 406 143 l 257 143 q 249 136 249 143 l 218 15 q 199 0 214 0 l 7 0 q -4 18 -10 0 l 306 957 q 325 972 310 972 l 544 972 q 561 957 561 972 l 639 18 l 639 14 q 624 0 639 0 l 428 0 m 301 328 q 306 321 301 321 l 396 321 q 403 328 403 321 l 393 644 q 390 650 393 650 q 385 644 388 650 l 301 328 m 453 1244 q 444 1265 436 1249 q 488 1324 460 1296 q 506 1346 500 1338 q 513 1369 511 1354 l 513 1374 q 506 1388 513 1382 q 489 1393 499 1393 q 466 1386 476 1393 q 438 1360 456 1379 q 415 1357 428 1347 l 374 1390 q 368 1401 368 1396 q 374 1414 368 1408 q 434 1467 404 1451 q 506 1483 464 1483 q 584 1458 556 1483 q 613 1389 613 1433 q 599 1330 613 1351 q 557 1282 585 1308 q 541 1265 551 1276 q 524 1244 531 1254 q 501 1235 514 1233 l 453 1244 m 443 1032 q 331 1074 371 1032 q 293 1185 290 1115 q 311 1201 294 1201 l 393 1201 q 408 1185 408 1201 q 421 1144 408 1160 q 456 1129 433 1129 q 493 1144 476 1129 q 517 1185 510 1160 q 536 1201 521 1201 l 618 1201 q 632 1185 633 1201 q 565 1074 617 1115 q 443 1032 514 1032 z "},"Ẵ":{"ha":685,"x_min":-10,"x_max":711,"o":"m 428 0 q 413 15 413 0 l 410 136 q 408 141 411 139 q 403 143 406 143 l 257 143 q 249 136 249 143 l 218 15 q 199 0 214 0 l 7 0 q -4 18 -10 0 l 306 957 q 325 972 310 972 l 544 972 q 561 957 561 972 l 639 18 l 639 14 q 624 0 639 0 l 428 0 m 301 328 q 306 321 301 321 l 396 321 q 403 328 403 321 l 393 644 q 390 650 393 650 q 385 644 388 650 l 301 328 z "},"Ǎ":{"ha":685,"x_min":-10,"x_max":681,"o":"m 428 0 q 413 15 413 0 l 410 136 q 408 141 411 139 q 403 143 406 143 l 257 143 q 249 136 249 143 l 218 15 q 199 0 214 0 l 7 0 q -4 18 -10 0 l 306 957 q 325 972 310 972 l 544 972 q 561 957 561 972 l 639 18 l 639 14 q 624 0 639 0 l 428 0 m 301 328 q 306 321 301 321 l 396 321 q 403 328 403 321 l 393 644 q 390 650 393 650 q 385 644 388 650 l 301 328 z "},"Â":{"ha":685,"x_min":-10,"x_max":656,"o":"m 428 0 q 413 15 413 0 l 410 136 q 408 141 411 139 q 403 143 406 143 l 257 143 q 249 136 249 143 l 218 15 q 199 0 214 0 l 7 0 q -4 18 -10 0 l 306 957 q 325 972 310 972 l 544 972 q 561 957 561 972 l 639 18 l 639 14 q 624 0 639 0 l 428 0 m 301 328 q 306 321 301 321 l 396 321 q 403 328 403 321 l 393 644 q 390 650 393 650 q 385 644 388 650 l 301 328 m 243 1049 q 231 1057 231 1049 q 235 1068 231 1063 l 338 1215 q 358 1226 344 1226 l 565 1226 q 583 1215 578 1226 l 654 1068 q 656 1061 656 1065 q 640 1049 656 1049 l 499 1049 q 482 1061 486 1049 l 456 1132 q 447 1132 451 1139 l 404 1061 q 383 1049 396 1049 l 243 1049 z "},"Ấ":{"ha":685,"x_min":-10,"x_max":936,"o":"m 428 0 q 413 15 413 0 l 410 136 q 408 141 411 139 q 403 143 406 143 l 257 143 q 249 136 249 143 l 218 15 q 199 0 214 0 l 7 0 q -4 18 -10 0 l 306 957 q 325 972 310 972 l 544 972 q 561 957 561 972 l 639 18 l 639 14 q 624 0 639 0 l 428 0 m 301 328 q 306 321 301 321 l 396 321 q 403 328 403 321 l 393 644 q 390 650 393 650 q 385 644 388 650 l 301 328 z "},"Ậ":{"ha":685,"x_min":-10,"x_max":656,"o":"m 428 0 q 413 15 413 0 l 410 136 q 408 141 411 139 q 403 143 406 143 l 257 143 q 249 136 249 143 l 218 15 q 199 0 214 0 l 7 0 q -4 18 -10 0 l 306 957 q 325 972 310 972 l 544 972 q 561 957 561 972 l 639 18 l 639 14 q 624 0 639 0 l 428 0 m 301 328 q 306 321 301 321 l 396 321 q 403 328 403 321 l 393 644 q 390 650 393 650 q 385 644 388 650 l 301 328 m 272 -358 q 199 -331 226 -358 q 172 -260 172 -303 q 209 -164 172 -201 q 301 -126 246 -126 q 373 -153 346 -126 q 400 -226 400 -181 q 363 -319 400 -281 q 272 -358 325 -358 m 243 1049 q 231 1057 231 1049 q 235 1068 231 1063 l 338 1215 q 358 1226 344 1226 l 565 1226 q 583 1215 578 1226 l 654 1068 q 656 1061 656 1065 q 640 1049 656 1049 l 499 1049 q 482 1061 486 1049 l 456 1132 q 447 1132 451 1139 l 404 1061 q 383 1049 396 1049 l 243 1049 z "},"Ầ":{"ha":685,"x_min":-10,"x_max":772,"o":"m 428 0 q 413 15 413 0 l 410 136 q 408 141 411 139 q 403 143 406 143 l 257 143 q 249 136 249 143 l 218 15 q 199 0 214 0 l 7 0 q -4 18 -10 0 l 306 957 q 325 972 310 972 l 544 972 q 561 957 561 972 l 639 18 l 639 14 q 624 0 639 0 l 428 0 m 301 328 q 306 321 301 321 l 396 321 q 403 328 403 321 l 393 644 q 390 650 393 650 q 385 644 388 650 l 301 328 z "},"Ẩ":{"ha":685,"x_min":-10,"x_max":835,"o":"m 428 0 q 413 15 413 0 l 410 136 q 408 141 411 139 q 403 143 406 143 l 257 143 q 249 136 249 143 l 218 15 q 199 0 214 0 l 7 0 q -4 18 -10 0 l 306 957 q 325 972 310 972 l 544 972 q 561 957 561 972 l 639 18 l 639 14 q 624 0 639 0 l 428 0 m 301 328 q 306 321 301 321 l 396 321 q 403 328 403 321 l 393 644 q 390 650 393 650 q 385 644 388 650 l 301 328 m 660 1197 q 651 1218 642 1203 q 699 1282 671 1257 q 719 1307 713 1297 q 726 1332 725 1317 l 726 1335 q 719 1351 726 1344 q 701 1358 713 1358 q 676 1351 688 1358 q 644 1322 664 1343 q 621 1318 633 1308 l 575 1357 q 569 1368 569 1363 q 575 1381 569 1375 q 641 1440 608 1422 q 719 1457 674 1457 q 804 1429 774 1457 q 835 1353 835 1401 q 819 1290 835 1314 q 774 1238 804 1265 q 755 1218 767 1231 q 736 1196 743 1206 q 715 1186 728 1185 l 660 1197 m 243 1049 q 231 1057 231 1049 q 235 1068 231 1063 l 338 1215 q 358 1226 344 1226 l 565 1226 q 583 1215 578 1226 l 654 1068 q 656 1061 656 1065 q 640 1049 656 1049 l 499 1049 q 482 1061 486 1049 l 456 1132 q 447 1132 451 1139 l 404 1061 q 383 1049 396 1049 l 243 1049 z "},"Ẫ":{"ha":685,"x_min":-10,"x_max":685,"o":"m 428 0 q 413 15 413 0 l 410 136 q 408 141 411 139 q 403 143 406 143 l 257 143 q 249 136 249 143 l 218 15 q 199 0 214 0 l 7 0 q -4 18 -10 0 l 306 957 q 325 972 310 972 l 544 972 q 561 957 561 972 l 639 18 l 639 14 q 624 0 639 0 l 428 0 m 301 328 q 306 321 301 321 l 396 321 q 403 328 403 321 l 393 644 q 390 650 393 650 q 385 644 388 650 l 301 328 z "},"Ä":{"ha":685,"x_min":-10,"x_max":707,"o":"m 428 0 q 413 15 413 0 l 410 136 q 408 141 411 139 q 403 143 406 143 l 257 143 q 249 136 249 143 l 218 15 q 199 0 214 0 l 7 0 q -4 18 -10 0 l 306 957 q 325 972 310 972 l 544 972 q 561 957 561 972 l 639 18 l 639 14 q 624 0 639 0 l 428 0 m 301 328 q 306 321 301 321 l 396 321 q 403 328 403 321 l 393 644 q 390 650 393 650 q 385 644 388 650 l 301 328 z "},"Ạ":{"ha":685,"x_min":-10,"x_max":639,"o":"m 428 0 q 413 15 413 0 l 410 136 q 408 141 411 139 q 403 143 406 143 l 257 143 q 249 136 249 143 l 218 15 q 199 0 214 0 l 7 0 q -4 18 -10 0 l 306 957 q 325 972 310 972 l 544 972 q 561 957 561 972 l 639 18 l 639 14 q 624 0 639 0 l 428 0 m 301 328 q 306 321 301 321 l 396 321 q 403 328 403 321 l 393 644 q 390 650 393 650 q 385 644 388 650 l 301 328 m 272 -358 q 199 -331 226 -358 q 172 -260 172 -303 q 209 -164 172 -201 q 301 -126 246 -126 q 373 -153 346 -126 q 400 -226 400 -181 q 363 -319 400 -281 q 272 -358 325 -358 z "},"À":{"ha":685,"x_min":-10,"x_max":639,"o":"m 428 0 q 413 15 413 0 l 410 136 q 408 141 411 139 q 403 143 406 143 l 257 143 q 249 136 249 143 l 218 15 q 199 0 214 0 l 7 0 q -4 18 -10 0 l 306 957 q 325 972 310 972 l 544 972 q 561 957 561 972 l 639 18 l 639 14 q 624 0 639 0 l 428 0 m 301 328 q 306 321 301 321 l 396 321 q 403 328 403 321 l 393 644 q 390 650 393 650 q 385 644 388 650 l 301 328 m 518 1076 q 519 1069 519 1074 q 503 1057 519 1057 l 381 1057 q 361 1067 369 1057 l 274 1206 q 271 1214 271 1211 q 276 1223 271 1219 q 288 1226 281 1226 l 438 1226 q 456 1215 451 1226 l 518 1076 z "},"Ả":{"ha":685,"x_min":-10,"x_max":639,"o":"m 428 0 q 413 15 413 0 l 410 136 q 408 141 411 139 q 403 143 406 143 l 257 143 q 249 136 249 143 l 218 15 q 199 0 214 0 l 7 0 q -4 18 -10 0 l 306 957 q 325 972 310 972 l 544 972 q 561 957 561 972 l 639 18 l 639 14 q 624 0 639 0 l 428 0 m 301 328 q 306 321 301 321 l 396 321 q 403 328 403 321 l 393 644 q 390 650 393 650 q 385 644 388 650 l 301 328 m 419 1031 q 411 1051 401 1035 q 463 1122 432 1092 q 484 1149 478 1139 q 493 1176 490 1158 l 493 1179 q 485 1197 493 1189 q 465 1204 476 1204 q 437 1196 450 1204 q 403 1164 424 1188 q 389 1157 396 1157 q 379 1161 385 1157 l 328 1203 q 321 1214 321 1210 q 326 1226 321 1221 q 398 1292 363 1272 q 483 1311 433 1311 q 576 1282 543 1311 q 610 1200 610 1253 q 594 1131 610 1157 q 546 1075 578 1106 q 504 1028 513 1042 q 482 1018 494 1017 l 419 1031 z "},"Ā":{"ha":685,"x_min":-10,"x_max":639,"o":"m 428 0 q 413 15 413 0 l 410 136 q 408 141 411 139 q 403 143 406 143 l 257 143 q 249 136 249 143 l 218 15 q 199 0 214 0 l 7 0 q -4 18 -10 0 l 306 957 q 325 972 310 972 l 544 972 q 561 957 561 972 l 639 18 l 639 14 q 624 0 639 0 l 428 0 m 301 328 q 306 321 301 321 l 396 321 q 403 328 403 321 l 393 644 q 390 650 393 650 q 385 644 388 650 l 301 328 m 303 1054 q 292 1059 296 1054 q 289 1071 288 1064 l 304 1193 q 310 1205 306 1200 q 322 1210 315 1210 l 594 1210 q 606 1205 601 1210 q 608 1193 610 1200 l 593 1071 q 587 1059 592 1064 q 575 1054 582 1054 l 303 1054 z "},"Ą":{"ha":685,"x_min":-10,"x_max":639,"o":"m 428 0 q 413 15 413 0 l 410 136 q 408 141 411 139 q 403 143 406 143 l 257 143 q 249 136 249 143 l 218 15 q 199 0 214 0 l 7 0 q -4 18 -10 0 l 306 957 q 325 972 310 972 l 544 972 q 561 957 561 972 l 639 18 l 639 14 q 624 0 639 0 l 428 0 m 301 328 q 306 321 301 321 l 396 321 q 403 328 403 321 l 393 644 q 390 650 393 650 q 385 644 388 650 l 301 328 m 606 -236 q 592 -257 606 -251 q 519 -268 556 -268 q 440 -244 471 -268 q 408 -160 408 -219 q 486 -8 408 -81 q 507 0 494 0 l 611 0 q 624 -7 624 0 q 615 -21 624 -12 q 554 -112 554 -74 q 589 -146 554 -149 l 593 -146 q 606 -158 606 -146 l 606 -236 z "},"Å":{"ha":685,"x_min":-10,"x_max":640,"o":"m 428 0 q 413 15 413 0 l 410 136 q 408 141 411 139 q 403 143 406 143 l 257 143 q 249 136 249 143 l 218 15 q 199 0 214 0 l 7 0 q -4 18 -10 0 l 306 957 q 325 972 310 972 l 544 972 q 561 957 561 972 l 639 18 l 639 14 q 624 0 639 0 l 428 0 m 301 328 q 306 321 301 321 l 396 321 q 403 328 403 321 l 393 644 q 390 650 393 650 q 385 644 388 650 l 301 328 m 443 1028 q 332 1072 375 1028 q 289 1182 289 1115 q 316 1285 289 1238 q 389 1360 343 1332 q 488 1388 435 1388 q 597 1344 554 1388 q 640 1233 640 1300 q 614 1129 640 1176 q 542 1055 588 1082 q 443 1028 496 1028 m 457 1146 q 504 1167 483 1146 q 525 1218 525 1189 q 510 1257 525 1242 q 472 1272 496 1272 q 424 1251 444 1272 q 404 1200 404 1231 q 419 1161 404 1176 q 457 1146 435 1146 z "},"Ã":{"ha":685,"x_min":-10,"x_max":688,"o":"m 428 0 q 413 15 413 0 l 410 136 q 408 141 411 139 q 403 143 406 143 l 257 143 q 249 136 249 143 l 218 15 q 199 0 214 0 l 7 0 q -4 18 -10 0 l 306 957 q 325 972 310 972 l 544 972 q 561 957 561 972 l 639 18 l 639 14 q 624 0 639 0 l 428 0 m 301 328 q 306 321 301 321 l 396 321 q 403 328 403 321 l 393 644 q 390 650 393 650 q 385 644 388 650 l 301 328 m 538 1057 q 467 1079 507 1057 q 447 1092 457 1085 q 431 1101 438 1099 q 414 1104 424 1104 q 367 1075 388 1104 q 355 1066 361 1068 q 343 1069 349 1064 l 281 1119 q 276 1142 271 1128 q 336 1221 299 1194 q 414 1247 374 1247 q 499 1215 454 1247 q 512 1206 503 1213 q 530 1195 521 1199 q 549 1192 539 1192 q 599 1217 578 1192 q 621 1224 608 1232 l 682 1175 q 688 1164 688 1169 q 679 1143 688 1156 q 613 1077 650 1097 q 538 1057 575 1057 z "},"Æ":{"ha":1044,"x_min":-4,"x_max":1106,"o":"m 1085 792 q 1078 780 1083 785 q 1067 775 1074 775 l 796 775 q 788 768 790 775 l 767 593 q 772 586 767 586 l 921 586 q 932 581 928 586 q 935 569 936 576 l 914 404 q 908 392 914 397 q 896 388 903 388 l 749 388 q 740 381 743 388 l 719 204 q 725 197 717 197 l 996 197 q 1007 192 1003 197 q 1010 181 1011 188 l 989 17 q 983 5 989 10 q 971 0 978 0 l 486 0 q 475 5 479 0 q 472 17 471 10 l 488 136 q 481 143 488 143 l 297 143 q 290 138 293 143 l 231 14 q 210 0 225 0 l 10 0 q -2 6 0 0 q 0 19 -4 11 l 486 960 q 494 969 488 965 q 506 972 500 972 l 1090 972 q 1101 967 1097 972 q 1104 956 1106 963 l 1085 792 m 382 329 q 388 321 381 321 l 503 321 q 511 328 508 321 l 551 663 q 549 667 553 667 q 543 664 546 668 l 382 329 z "},"B":{"ha":643,"x_min":21,"x_max":663,"o":"m 624 276 q 522 72 610 143 q 308 0 433 0 l 36 0 q 25 5 29 0 q 22 17 21 10 l 138 956 q 144 967 139 963 q 156 972 149 972 l 393 972 q 591 917 519 972 q 663 750 663 861 q 660 703 663 719 q 551 507 643 569 q 549 499 544 503 q 626 321 626 435 q 624 276 626 307 m 346 775 q 338 768 340 775 l 317 590 q 322 583 314 583 l 347 583 q 415 615 390 583 q 439 701 439 646 q 422 756 439 738 q 371 775 404 775 l 346 775 m 315 199 q 380 233 354 199 q 406 331 406 268 q 389 394 406 371 q 343 418 372 418 l 301 418 q 294 411 294 418 l 269 206 q 275 199 267 199 l 315 199 z "},"C":{"ha":633,"x_min":40,"x_max":663,"o":"m 290 -11 q 107 53 174 -11 q 40 228 40 117 q 43 274 40 243 l 96 700 q 197 907 111 831 q 411 983 283 983 q 595 920 528 983 q 663 747 663 857 q 660 700 663 733 l 658 688 q 652 676 657 681 q 640 671 647 671 l 447 663 q 433 679 432 663 l 439 717 q 428 767 442 749 q 388 786 414 786 q 343 767 361 786 q 321 717 325 749 l 264 254 q 274 205 261 224 q 314 186 288 186 q 359 205 340 186 q 382 254 378 224 l 386 294 q 392 306 388 301 q 404 311 397 311 l 594 303 q 610 286 610 303 l 607 274 q 505 67 592 144 q 290 -11 418 -11 z "},"Ć":{"ha":633,"x_min":40,"x_max":663,"o":"m 290 -11 q 107 53 174 -11 q 40 228 40 117 q 43 274 40 243 l 96 700 q 197 907 111 831 q 411 983 283 983 q 595 920 528 983 q 663 747 663 857 q 660 700 663 733 l 658 688 q 652 676 657 681 q 640 671 647 671 l 447 663 q 433 679 432 663 l 439 717 q 428 767 442 749 q 388 786 414 786 q 343 767 361 786 q 321 717 325 749 l 264 254 q 274 205 261 224 q 314 186 288 186 q 359 205 340 186 q 382 254 378 224 l 386 294 q 392 306 388 301 q 404 311 397 311 l 594 303 q 610 286 610 303 l 607 274 q 505 67 592 144 q 290 -11 418 -11 m 339 1057 q 325 1065 325 1057 q 329 1076 325 1071 l 425 1215 q 446 1226 432 1226 l 596 1226 q 608 1218 608 1226 q 603 1206 608 1211 l 481 1067 q 460 1057 472 1057 l 339 1057 z "},"Č":{"ha":633,"x_min":40,"x_max":663,"o":"m 290 -11 q 107 53 174 -11 q 40 228 40 117 q 43 274 40 243 l 96 700 q 197 907 111 831 q 411 983 283 983 q 595 920 528 983 q 663 747 663 857 q 660 700 663 733 l 658 688 q 652 676 657 681 q 640 671 647 671 l 447 663 q 433 679 432 663 l 439 717 q 428 767 442 749 q 388 786 414 786 q 343 767 361 786 q 321 717 325 749 l 264 254 q 274 205 261 224 q 314 186 288 186 q 359 205 340 186 q 382 254 378 224 l 386 294 q 392 306 388 301 q 404 311 397 311 l 594 303 q 610 286 610 303 l 607 274 q 505 67 592 144 q 290 -11 418 -11 m 236 1207 q 235 1215 235 1210 q 250 1226 235 1226 l 390 1226 q 407 1214 403 1226 l 433 1143 q 442 1143 438 1138 l 485 1214 q 506 1226 493 1226 l 647 1226 q 660 1218 660 1226 q 656 1207 660 1214 l 549 1060 q 528 1049 542 1049 l 321 1049 q 303 1060 307 1049 l 236 1207 z "},"Ç":{"ha":633,"x_min":40,"x_max":663,"o":"m 658 686 q 652 675 657 679 q 640 671 647 671 l 447 663 q 433 679 432 663 l 439 717 q 428 767 442 749 q 388 786 414 786 q 343 767 361 786 q 321 717 325 749 l 264 254 q 274 205 261 224 q 314 186 288 186 q 359 205 340 186 q 382 254 378 224 l 386 294 q 392 306 388 301 q 404 311 397 311 l 594 303 q 610 286 610 303 l 607 274 q 531 92 594 165 q 369 -3 467 19 q 364 -6 365 -3 q 365 -11 363 -8 q 400 -114 400 -60 q 390 -171 400 -146 q 338 -237 374 -218 q 258 -257 301 -257 q 188 -246 221 -257 q 178 -226 174 -242 l 197 -147 q 203 -137 199 -139 q 215 -135 208 -135 q 224 -135 221 -135 q 258 -107 250 -135 q 261 -89 261 -96 q 218 -6 261 -51 l 210 -1 q 85 79 129 19 q 40 228 40 139 q 43 274 40 243 l 96 700 q 197 907 111 831 q 411 983 283 983 q 595 920 528 983 q 663 747 663 857 q 660 700 663 733 l 658 686 z "},"Ĉ":{"ha":633,"x_min":40,"x_max":663,"o":"m 290 -11 q 107 53 174 -11 q 40 228 40 117 q 43 274 40 243 l 96 700 q 197 907 111 831 q 411 983 283 983 q 595 920 528 983 q 663 747 663 857 q 660 700 663 733 l 658 688 q 652 676 657 681 q 640 671 647 671 l 447 663 q 433 679 432 663 l 439 717 q 428 767 442 749 q 388 786 414 786 q 343 767 361 786 q 321 717 325 749 l 264 254 q 274 205 261 224 q 314 186 288 186 q 359 205 340 186 q 382 254 378 224 l 386 294 q 392 306 388 301 q 404 311 397 311 l 594 303 q 610 286 610 303 l 607 274 q 505 67 592 144 q 290 -11 418 -11 m 219 1049 q 207 1057 207 1049 q 211 1068 207 1063 l 314 1215 q 335 1226 321 1226 l 542 1226 q 560 1215 554 1226 l 631 1068 q 632 1061 632 1065 q 617 1049 632 1049 l 475 1049 q 458 1061 463 1049 l 432 1132 q 424 1132 428 1139 l 381 1061 q 360 1049 372 1049 l 219 1049 z "},"Ċ":{"ha":633,"x_min":40,"x_max":663,"o":"m 290 -11 q 107 53 174 -11 q 40 228 40 117 q 43 274 40 243 l 96 700 q 197 907 111 831 q 411 983 283 983 q 595 920 528 983 q 663 747 663 857 q 660 700 663 733 l 658 688 q 652 676 657 681 q 640 671 647 671 l 447 663 q 433 679 432 663 l 439 717 q 428 767 442 749 q 388 786 414 786 q 343 767 361 786 q 321 717 325 749 l 264 254 q 274 205 261 224 q 314 186 288 186 q 359 205 340 186 q 382 254 378 224 l 386 294 q 392 306 388 301 q 404 311 397 311 l 594 303 q 610 286 610 303 l 607 274 q 505 67 592 144 q 290 -11 418 -11 m 419 1036 q 344 1065 372 1036 q 315 1140 315 1094 q 354 1239 315 1200 q 449 1278 393 1278 q 524 1250 496 1278 q 551 1175 551 1222 q 513 1076 551 1117 q 419 1036 474 1036 z "},"D":{"ha":646,"x_min":21,"x_max":668,"o":"m 36 0 q 25 5 29 0 q 22 17 21 10 l 138 956 q 144 967 139 963 q 156 972 149 972 l 413 972 q 600 910 532 972 q 668 739 668 847 q 665 699 668 726 l 613 274 q 510 75 597 150 q 293 0 424 0 l 36 0 m 269 204 q 275 197 267 197 l 313 199 q 364 224 342 200 q 392 289 386 249 l 439 683 q 440 703 440 690 q 424 756 440 736 q 382 775 408 775 l 346 775 q 338 768 340 775 l 269 204 z "},"Ð":{"ha":681,"x_min":56,"x_max":703,"o":"m 449 972 q 635 910 567 972 q 703 740 703 847 q 700 699 703 726 l 649 274 q 546 75 633 150 q 329 0 458 0 l 71 0 q 60 5 64 0 q 57 17 56 10 l 108 436 q 103 443 111 443 l 90 443 q 79 448 83 443 q 76 460 75 453 l 89 557 q 95 569 90 564 q 107 574 100 574 l 119 574 q 126 581 126 574 l 172 956 q 178 967 174 963 q 190 972 183 972 l 449 972 m 475 683 q 476 701 476 690 q 460 756 476 736 q 417 775 444 775 l 381 775 q 374 768 374 775 l 350 581 q 356 574 350 574 l 390 574 q 401 569 397 574 q 404 557 406 564 l 392 460 q 385 448 390 453 q 374 443 381 443 l 340 443 q 332 436 335 443 l 304 204 q 310 197 301 197 l 347 199 q 399 224 376 200 q 426 289 421 249 l 475 683 z "},"Ď":{"ha":646,"x_min":21,"x_max":668,"o":"m 36 0 q 25 5 29 0 q 22 17 21 10 l 138 956 q 144 967 139 963 q 156 972 149 972 l 413 972 q 600 910 532 972 q 668 739 668 847 q 665 699 668 726 l 613 274 q 510 75 597 150 q 293 0 424 0 l 36 0 m 269 204 q 275 197 267 197 l 313 199 q 364 224 342 200 q 392 289 386 249 l 439 683 q 440 703 440 690 q 424 756 440 736 q 382 775 408 775 l 346 775 q 338 768 340 775 l 269 204 z "},"Đ":{"ha":681,"x_min":56,"x_max":703,"o":"m 449 972 q 635 910 567 972 q 703 740 703 847 q 700 699 703 726 l 649 274 q 546 75 633 150 q 329 0 458 0 l 71 0 q 60 5 64 0 q 57 17 56 10 l 108 436 q 103 443 111 443 l 90 443 q 79 448 83 443 q 76 460 75 453 l 89 557 q 95 569 90 564 q 107 574 100 574 l 119 574 q 126 581 126 574 l 172 956 q 178 967 174 963 q 190 972 183 972 l 449 972 m 475 683 q 476 701 476 690 q 460 756 476 736 q 417 775 444 775 l 381 775 q 374 768 374 775 l 350 581 q 356 574 350 574 l 390 574 q 401 569 397 574 q 404 557 406 564 l 392 460 q 385 448 390 453 q 374 443 381 443 l 340 443 q 332 436 335 443 l 304 204 q 310 197 301 197 l 347 199 q 399 224 376 200 q 426 289 421 249 l 475 683 z "},"E":{"ha":594,"x_min":21,"x_max":656,"o":"m 635 792 q 628 780 633 785 q 617 775 624 775 l 346 775 q 338 768 340 775 l 317 593 q 322 586 317 586 l 471 586 q 482 581 478 586 q 485 569 486 576 l 464 404 q 458 392 464 397 q 446 388 453 388 l 299 388 q 290 381 293 388 l 269 204 q 275 197 267 197 l 546 197 q 557 192 553 197 q 560 181 561 188 l 540 17 q 533 5 539 10 q 521 0 528 0 l 36 0 q 25 5 29 0 q 22 17 21 10 l 138 956 q 144 967 139 963 q 156 972 149 972 l 640 972 q 656 956 656 972 l 635 792 z "},"É":{"ha":594,"x_min":21,"x_max":656,"o":"m 635 792 q 628 780 633 785 q 617 775 624 775 l 346 775 q 338 768 340 775 l 317 593 q 322 586 317 586 l 471 586 q 482 581 478 586 q 485 569 486 576 l 464 404 q 458 392 464 397 q 446 388 453 388 l 299 388 q 290 381 293 388 l 269 204 q 275 197 267 197 l 546 197 q 557 192 553 197 q 560 181 561 188 l 540 17 q 533 5 539 10 q 521 0 528 0 l 36 0 q 25 5 29 0 q 22 17 21 10 l 138 956 q 144 967 139 963 q 156 972 149 972 l 640 972 q 656 956 656 972 l 635 792 m 326 1057 q 313 1065 313 1057 q 317 1076 313 1071 l 413 1215 q 433 1226 419 1226 l 583 1226 q 596 1218 596 1226 q 590 1206 596 1211 l 468 1067 q 447 1057 460 1057 l 326 1057 z "},"Ě":{"ha":594,"x_min":21,"x_max":656,"o":"m 635 792 q 628 780 633 785 q 617 775 624 775 l 346 775 q 338 768 340 775 l 317 593 q 322 586 317 586 l 471 586 q 482 581 478 586 q 485 569 486 576 l 464 404 q 458 392 464 397 q 446 388 453 388 l 299 388 q 290 381 293 388 l 269 204 q 275 197 267 197 l 546 197 q 557 192 553 197 q 560 181 561 188 l 540 17 q 533 5 539 10 q 521 0 528 0 l 36 0 q 25 5 29 0 q 22 17 21 10 l 138 956 q 144 967 139 963 q 156 972 149 972 l 640 972 q 656 956 656 972 l 635 792 m 224 1207 q 222 1215 222 1210 q 238 1226 222 1226 l 378 1226 q 394 1214 390 1226 l 421 1143 q 429 1143 425 1138 l 472 1214 q 493 1226 481 1226 l 635 1226 q 647 1218 647 1226 q 643 1207 647 1214 l 536 1060 q 515 1049 529 1049 l 308 1049 q 290 1060 294 1049 l 224 1207 z "},"Ȩ":{"ha":594,"x_min":21,"x_max":656,"o":"m 635 792 q 628 780 633 785 q 617 775 624 775 l 346 775 q 338 768 340 775 l 317 593 q 322 586 317 586 l 471 586 q 482 581 478 586 q 485 569 486 576 l 464 404 q 458 392 464 397 q 446 388 453 388 l 299 388 q 290 381 293 388 l 269 204 q 275 197 267 197 l 546 197 q 557 192 553 197 q 560 181 561 188 l 540 17 q 533 5 539 10 q 521 0 528 0 l 354 0 q 349 -3 350 0 q 350 -8 347 -6 q 378 -101 378 -51 q 368 -160 378 -132 q 316 -226 351 -207 q 238 -246 281 -246 q 167 -235 200 -246 q 157 -215 153 -231 l 178 -136 q 197 -124 182 -121 q 238 -96 225 -128 q 240 -78 240 -90 q 206 -4 240 -46 q 197 0 201 0 l 36 0 q 25 5 29 0 q 22 17 21 10 l 138 956 q 144 967 139 963 q 156 972 149 972 l 640 972 q 656 956 656 972 l 635 792 z "},"Ê":{"ha":594,"x_min":21,"x_max":656,"o":"m 635 792 q 628 780 633 785 q 617 775 624 775 l 346 775 q 338 768 340 775 l 317 593 q 322 586 317 586 l 471 586 q 482 581 478 586 q 485 569 486 576 l 464 404 q 458 392 464 397 q 446 388 453 388 l 299 388 q 290 381 293 388 l 269 204 q 275 197 267 197 l 546 197 q 557 192 553 197 q 560 181 561 188 l 540 17 q 533 5 539 10 q 521 0 528 0 l 36 0 q 25 5 29 0 q 22 17 21 10 l 138 956 q 144 967 139 963 q 156 972 149 972 l 640 972 q 656 956 656 972 l 635 792 m 207 1049 q 194 1057 194 1049 q 199 1068 194 1063 l 301 1215 q 322 1226 308 1226 l 529 1226 q 547 1215 542 1226 l 618 1068 q 619 1061 619 1065 q 604 1049 619 1049 l 463 1049 q 446 1061 450 1049 l 419 1132 q 411 1132 415 1139 l 368 1061 q 347 1049 360 1049 l 207 1049 z "},"Ế":{"ha":594,"x_min":21,"x_max":900,"o":"m 635 792 q 628 780 633 785 q 617 775 624 775 l 346 775 q 338 768 340 775 l 317 593 q 322 586 317 586 l 471 586 q 482 581 478 586 q 485 569 486 576 l 464 404 q 458 392 464 397 q 446 388 453 388 l 299 388 q 290 381 293 388 l 269 204 q 275 197 267 197 l 546 197 q 557 192 553 197 q 560 181 561 188 l 540 17 q 533 5 539 10 q 521 0 528 0 l 36 0 q 25 5 29 0 q 22 17 21 10 l 138 956 q 144 967 139 963 q 156 972 149 972 l 640 972 q 656 956 656 972 l 635 792 z "},"Ệ":{"ha":594,"x_min":21,"x_max":656,"o":"m 635 792 q 628 780 633 785 q 617 775 624 775 l 346 775 q 338 768 340 775 l 317 593 q 322 586 317 586 l 471 586 q 482 581 478 586 q 485 569 486 576 l 464 404 q 458 392 464 397 q 446 388 453 388 l 299 388 q 290 381 293 388 l 269 204 q 275 197 267 197 l 546 197 q 557 192 553 197 q 560 181 561 188 l 540 17 q 533 5 539 10 q 521 0 528 0 l 36 0 q 25 5 29 0 q 22 17 21 10 l 138 956 q 144 967 139 963 q 156 972 149 972 l 640 972 q 656 956 656 972 l 635 792 m 225 -358 q 152 -331 179 -358 q 125 -260 125 -303 q 162 -164 125 -201 q 254 -126 199 -126 q 326 -153 299 -126 q 353 -226 353 -181 q 315 -319 353 -281 q 225 -358 278 -358 m 207 1049 q 194 1057 194 1049 q 199 1068 194 1063 l 301 1215 q 322 1226 308 1226 l 529 1226 q 547 1215 542 1226 l 618 1068 q 619 1061 619 1065 q 604 1049 619 1049 l 463 1049 q 446 1061 450 1049 l 419 1132 q 411 1132 415 1139 l 368 1061 q 347 1049 360 1049 l 207 1049 z "},"Ề":{"ha":594,"x_min":21,"x_max":736,"o":"m 635 792 q 628 780 633 785 q 617 775 624 775 l 346 775 q 338 768 340 775 l 317 593 q 322 586 317 586 l 471 586 q 482 581 478 586 q 485 569 486 576 l 464 404 q 458 392 464 397 q 446 388 453 388 l 299 388 q 290 381 293 388 l 269 204 q 275 197 267 197 l 546 197 q 557 192 553 197 q 560 181 561 188 l 540 17 q 533 5 539 10 q 521 0 528 0 l 36 0 q 25 5 29 0 q 22 17 21 10 l 138 956 q 144 967 139 963 q 156 972 149 972 l 640 972 q 656 956 656 972 l 635 792 z "},"Ể":{"ha":594,"x_min":21,"x_max":799,"o":"m 635 792 q 628 780 633 785 q 617 775 624 775 l 346 775 q 338 768 340 775 l 317 593 q 322 586 317 586 l 471 586 q 482 581 478 586 q 485 569 486 576 l 464 404 q 458 392 464 397 q 446 388 453 388 l 299 388 q 290 381 293 388 l 269 204 q 275 197 267 197 l 546 197 q 557 192 553 197 q 560 181 561 188 l 540 17 q 533 5 539 10 q 521 0 528 0 l 36 0 q 25 5 29 0 q 22 17 21 10 l 138 956 q 144 967 139 963 q 156 972 149 972 l 640 972 q 656 956 656 972 l 635 792 m 624 1197 q 615 1218 606 1203 q 663 1282 635 1257 q 683 1307 676 1297 q 690 1332 689 1317 l 690 1335 q 683 1351 690 1344 q 665 1358 676 1358 q 640 1351 651 1358 q 608 1322 628 1343 q 585 1318 597 1308 l 539 1357 q 533 1368 533 1363 q 539 1381 533 1375 q 605 1440 572 1422 q 683 1457 638 1457 q 768 1429 738 1457 q 799 1353 799 1401 q 783 1290 799 1314 q 738 1238 768 1265 q 719 1218 731 1231 q 700 1196 707 1206 q 679 1186 692 1185 l 624 1197 m 207 1049 q 194 1057 194 1049 q 199 1068 194 1063 l 301 1215 q 322 1226 308 1226 l 529 1226 q 547 1215 542 1226 l 618 1068 q 619 1061 619 1065 q 604 1049 619 1049 l 463 1049 q 446 1061 450 1049 l 419 1132 q 411 1132 415 1139 l 368 1061 q 347 1049 360 1049 l 207 1049 z "},"Ễ":{"ha":594,"x_min":21,"x_max":656,"o":"m 635 792 q 628 780 633 785 q 617 775 624 775 l 346 775 q 338 768 340 775 l 317 593 q 322 586 317 586 l 471 586 q 482 581 478 586 q 485 569 486 576 l 464 404 q 458 392 464 397 q 446 388 453 388 l 299 388 q 290 381 293 388 l 269 204 q 275 197 267 197 l 546 197 q 557 192 553 197 q 560 181 561 188 l 540 17 q 533 5 539 10 q 521 0 528 0 l 36 0 q 25 5 29 0 q 22 17 21 10 l 138 956 q 144 967 139 963 q 156 972 149 972 l 640 972 q 656 956 656 972 l 635 792 z "},"Ë":{"ha":594,"x_min":21,"x_max":671,"o":"m 635 792 q 628 780 633 785 q 617 775 624 775 l 346 775 q 338 768 340 775 l 317 593 q 322 586 317 586 l 471 586 q 482 581 478 586 q 485 569 486 576 l 464 404 q 458 392 464 397 q 446 388 453 388 l 299 388 q 290 381 293 388 l 269 204 q 275 197 267 197 l 546 197 q 557 192 553 197 q 560 181 561 188 l 540 17 q 533 5 539 10 q 521 0 528 0 l 36 0 q 25 5 29 0 q 22 17 21 10 l 138 956 q 144 967 139 963 q 156 972 149 972 l 640 972 q 656 956 656 972 l 635 792 z "},"Ė":{"ha":594,"x_min":21,"x_max":656,"o":"m 635 792 q 628 780 633 785 q 617 775 624 775 l 346 775 q 338 768 340 775 l 317 593 q 322 586 317 586 l 471 586 q 482 581 478 586 q 485 569 486 576 l 464 404 q 458 392 464 397 q 446 388 453 388 l 299 388 q 290 381 293 388 l 269 204 q 275 197 267 197 l 546 197 q 557 192 553 197 q 560 181 561 188 l 540 17 q 533 5 539 10 q 521 0 528 0 l 36 0 q 25 5 29 0 q 22 17 21 10 l 138 956 q 144 967 139 963 q 156 972 149 972 l 640 972 q 656 956 656 972 l 635 792 m 408 1036 q 333 1065 361 1036 q 304 1140 304 1094 q 343 1239 304 1200 q 438 1278 382 1278 q 513 1250 485 1278 q 540 1175 540 1222 q 501 1076 540 1117 q 408 1036 463 1036 z "},"Ẹ":{"ha":594,"x_min":21,"x_max":656,"o":"m 635 792 q 628 780 633 785 q 617 775 624 775 l 346 775 q 338 768 340 775 l 317 593 q 322 586 317 586 l 471 586 q 482 581 478 586 q 485 569 486 576 l 464 404 q 458 392 464 397 q 446 388 453 388 l 299 388 q 290 381 293 388 l 269 204 q 275 197 267 197 l 546 197 q 557 192 553 197 q 560 181 561 188 l 540 17 q 533 5 539 10 q 521 0 528 0 l 36 0 q 25 5 29 0 q 22 17 21 10 l 138 956 q 144 967 139 963 q 156 972 149 972 l 640 972 q 656 956 656 972 l 635 792 m 225 -358 q 152 -331 179 -358 q 125 -260 125 -303 q 162 -164 125 -201 q 254 -126 199 -126 q 326 -153 299 -126 q 353 -226 353 -181 q 315 -319 353 -281 q 225 -358 278 -358 z "},"È":{"ha":594,"x_min":21,"x_max":656,"o":"m 635 792 q 628 780 633 785 q 617 775 624 775 l 346 775 q 338 768 340 775 l 317 593 q 322 586 317 586 l 471 586 q 482 581 478 586 q 485 569 486 576 l 464 404 q 458 392 464 397 q 446 388 453 388 l 299 388 q 290 381 293 388 l 269 204 q 275 197 267 197 l 546 197 q 557 192 553 197 q 560 181 561 188 l 540 17 q 533 5 539 10 q 521 0 528 0 l 36 0 q 25 5 29 0 q 22 17 21 10 l 138 956 q 144 967 139 963 q 156 972 149 972 l 640 972 q 656 956 656 972 l 635 792 m 482 1076 q 483 1069 483 1074 q 467 1057 483 1057 l 344 1057 q 325 1067 333 1057 l 238 1206 q 235 1214 235 1211 q 240 1223 235 1219 q 251 1226 244 1226 l 401 1226 q 419 1215 415 1226 l 482 1076 z "},"Ẻ":{"ha":594,"x_min":21,"x_max":656,"o":"m 635 792 q 628 780 633 785 q 617 775 624 775 l 346 775 q 338 768 340 775 l 317 593 q 322 586 317 586 l 471 586 q 482 581 478 586 q 485 569 486 576 l 464 404 q 458 392 464 397 q 446 388 453 388 l 299 388 q 290 381 293 388 l 269 204 q 275 197 267 197 l 546 197 q 557 192 553 197 q 560 181 561 188 l 540 17 q 533 5 539 10 q 521 0 528 0 l 36 0 q 25 5 29 0 q 22 17 21 10 l 138 956 q 144 967 139 963 q 156 972 149 972 l 640 972 q 656 956 656 972 l 635 792 m 383 1031 q 375 1051 365 1035 q 426 1122 396 1092 q 448 1149 442 1139 q 457 1176 454 1158 l 457 1179 q 449 1197 457 1189 q 429 1204 440 1204 q 401 1196 414 1204 q 367 1164 388 1188 q 353 1157 360 1157 q 343 1161 349 1157 l 292 1203 q 285 1214 285 1210 q 290 1226 285 1221 q 362 1292 326 1272 q 447 1311 397 1311 q 540 1282 507 1311 q 574 1200 574 1253 q 558 1131 574 1157 q 510 1075 542 1106 q 468 1028 476 1042 q 446 1018 458 1017 l 383 1031 z "},"Ē":{"ha":594,"x_min":21,"x_max":656,"o":"m 635 792 q 628 780 633 785 q 617 775 624 775 l 346 775 q 338 768 340 775 l 317 593 q 322 586 317 586 l 471 586 q 482 581 478 586 q 485 569 486 576 l 464 404 q 458 392 464 397 q 446 388 453 388 l 299 388 q 290 381 293 388 l 269 204 q 275 197 267 197 l 546 197 q 557 192 553 197 q 560 181 561 188 l 540 17 q 533 5 539 10 q 521 0 528 0 l 36 0 q 25 5 29 0 q 22 17 21 10 l 138 956 q 144 967 139 963 q 156 972 149 972 l 640 972 q 656 956 656 972 l 635 792 m 267 1054 q 256 1059 260 1054 q 253 1071 251 1064 l 268 1193 q 274 1205 269 1200 q 286 1210 279 1210 l 558 1210 q 569 1205 565 1210 q 572 1193 574 1200 l 557 1071 q 551 1059 556 1064 q 539 1054 546 1054 l 267 1054 z "},"Ę":{"ha":594,"x_min":21,"x_max":656,"o":"m 635 792 q 628 780 633 785 q 617 775 624 775 l 346 775 q 338 768 340 775 l 317 593 q 322 586 317 586 l 471 586 q 482 581 478 586 q 485 569 486 576 l 464 404 q 458 392 464 397 q 446 388 453 388 l 299 388 q 290 381 293 388 l 269 204 q 275 197 267 197 l 546 197 q 557 192 553 197 q 560 181 561 188 l 540 17 q 533 5 539 10 q 521 0 528 0 l 350 0 q 340 -3 346 0 q 274 -100 274 -61 q 303 -132 274 -132 l 313 -132 q 323 -134 319 -132 q 326 -144 326 -136 l 325 -224 q 311 -243 325 -239 q 238 -254 275 -254 q 164 -235 194 -254 q 128 -168 133 -215 l 126 -150 q 192 -8 126 -75 q 194 -3 194 -6 q 190 0 194 0 l 36 0 q 25 5 29 0 q 22 17 21 10 l 138 956 q 144 967 139 963 q 156 972 149 972 l 640 972 q 656 956 656 972 l 635 792 z "},"Ẽ":{"ha":594,"x_min":21,"x_max":656,"o":"m 635 792 q 628 780 633 785 q 617 775 624 775 l 346 775 q 338 768 340 775 l 317 593 q 322 586 317 586 l 471 586 q 482 581 478 586 q 485 569 486 576 l 464 404 q 458 392 464 397 q 446 388 453 388 l 299 388 q 290 381 293 388 l 269 204 q 275 197 267 197 l 546 197 q 557 192 553 197 q 560 181 561 188 l 540 17 q 533 5 539 10 q 521 0 528 0 l 36 0 q 25 5 29 0 q 22 17 21 10 l 138 956 q 144 967 139 963 q 156 972 149 972 l 640 972 q 656 956 656 972 l 635 792 m 501 1057 q 431 1079 471 1057 q 411 1092 421 1085 q 394 1101 401 1099 q 378 1104 388 1104 q 331 1075 351 1104 q 319 1066 325 1068 q 307 1069 313 1064 l 244 1119 q 240 1142 235 1128 q 300 1221 263 1194 q 378 1247 338 1247 q 463 1215 418 1247 q 476 1206 467 1213 q 494 1195 485 1199 q 513 1192 503 1192 q 563 1217 542 1192 q 585 1224 572 1232 l 646 1175 q 651 1164 651 1169 q 643 1143 651 1156 q 576 1077 614 1097 q 501 1057 539 1057 z "},"F":{"ha":575,"x_min":21,"x_max":656,"o":"m 635 792 q 628 780 633 785 q 617 775 624 775 l 346 775 q 338 768 340 775 l 317 593 q 322 586 317 586 l 471 586 q 482 581 478 586 q 485 569 486 576 l 464 404 q 458 392 464 397 q 446 388 453 388 l 299 388 q 290 381 293 388 l 246 17 q 240 5 244 10 q 228 0 235 0 l 36 0 q 25 5 29 0 q 22 17 21 10 l 138 956 q 144 967 139 963 q 156 972 149 972 l 640 972 q 656 956 656 972 l 635 792 z "},"G":{"ha":638,"x_min":39,"x_max":664,"o":"m 290 -11 q 106 51 174 -11 q 39 219 39 113 q 42 263 39 232 l 97 711 q 197 910 111 836 q 411 983 283 983 q 596 921 528 983 q 664 751 664 858 q 661 708 664 739 l 654 657 q 648 645 653 650 q 636 640 643 640 l 444 640 q 433 645 438 640 q 431 657 429 650 l 438 711 l 439 725 q 425 769 439 753 q 388 786 411 786 q 343 765 361 786 q 321 711 325 744 l 265 261 l 264 246 q 278 202 264 218 q 314 186 292 186 q 359 207 340 186 q 382 261 378 228 l 393 350 q 388 357 396 357 l 353 357 q 342 362 346 357 q 339 374 338 367 l 357 521 q 363 533 357 528 q 375 538 368 538 l 624 538 q 635 533 631 538 q 638 521 639 528 l 606 263 q 505 63 592 138 q 290 -11 418 -11 z "},"Ğ":{"ha":638,"x_min":39,"x_max":664,"o":"m 290 -11 q 106 51 174 -11 q 39 219 39 113 q 42 263 39 232 l 97 711 q 197 910 111 836 q 411 983 283 983 q 596 921 528 983 q 664 751 664 858 q 661 708 664 739 l 654 657 q 648 645 653 650 q 636 640 643 640 l 444 640 q 433 645 438 640 q 431 657 429 650 l 438 711 l 439 725 q 425 769 439 753 q 388 786 411 786 q 343 765 361 786 q 321 711 325 744 l 265 261 l 264 246 q 278 202 264 218 q 314 186 292 186 q 359 207 340 186 q 382 261 378 228 l 393 350 q 388 357 396 357 l 353 357 q 342 362 346 357 q 339 374 338 367 l 357 521 q 363 533 357 528 q 375 538 368 538 l 624 538 q 635 533 631 538 q 638 521 639 528 l 606 263 q 505 63 592 138 q 290 -11 418 -11 m 417 1013 q 303 1054 344 1013 q 265 1165 263 1096 q 283 1182 268 1182 l 365 1182 q 381 1165 381 1182 q 394 1125 382 1140 q 428 1110 407 1110 q 465 1125 449 1110 q 489 1165 482 1140 q 508 1182 493 1182 l 590 1182 q 604 1165 607 1182 q 539 1054 590 1096 q 417 1013 488 1013 z "},"Ĝ":{"ha":638,"x_min":39,"x_max":664,"o":"m 290 -11 q 106 51 174 -11 q 39 219 39 113 q 42 263 39 232 l 97 711 q 197 910 111 836 q 411 983 283 983 q 596 921 528 983 q 664 751 664 858 q 661 708 664 739 l 654 657 q 648 645 653 650 q 636 640 643 640 l 444 640 q 433 645 438 640 q 431 657 429 650 l 438 711 l 439 725 q 425 769 439 753 q 388 786 411 786 q 343 765 361 786 q 321 711 325 744 l 265 261 l 264 246 q 278 202 264 218 q 314 186 292 186 q 359 207 340 186 q 382 261 378 228 l 393 350 q 388 357 396 357 l 353 357 q 342 362 346 357 q 339 374 338 367 l 357 521 q 363 533 357 528 q 375 538 368 538 l 624 538 q 635 533 631 538 q 638 521 639 528 l 606 263 q 505 63 592 138 q 290 -11 418 -11 m 219 1049 q 207 1057 207 1049 q 211 1068 207 1063 l 314 1215 q 335 1226 321 1226 l 542 1226 q 560 1215 554 1226 l 631 1068 q 632 1061 632 1065 q 617 1049 632 1049 l 475 1049 q 458 1061 463 1049 l 432 1132 q 424 1132 428 1139 l 381 1061 q 360 1049 372 1049 l 219 1049 z "},"Ġ":{"ha":638,"x_min":39,"x_max":664,"o":"m 290 -11 q 106 51 174 -11 q 39 219 39 113 q 42 263 39 232 l 97 711 q 197 910 111 836 q 411 983 283 983 q 596 921 528 983 q 664 751 664 858 q 661 708 664 739 l 654 657 q 648 645 653 650 q 636 640 643 640 l 444 640 q 433 645 438 640 q 431 657 429 650 l 438 711 l 439 725 q 425 769 439 753 q 388 786 411 786 q 343 765 361 786 q 321 711 325 744 l 265 261 l 264 246 q 278 202 264 218 q 314 186 292 186 q 359 207 340 186 q 382 261 378 228 l 393 350 q 388 357 396 357 l 353 357 q 342 362 346 357 q 339 374 338 367 l 357 521 q 363 533 357 528 q 375 538 368 538 l 624 538 q 635 533 631 538 q 638 521 639 528 l 606 263 q 505 63 592 138 q 290 -11 418 -11 m 419 1036 q 344 1065 372 1036 q 315 1140 315 1094 q 354 1239 315 1200 q 449 1278 393 1278 q 524 1250 496 1278 q 551 1175 551 1222 q 513 1076 551 1117 q 419 1036 474 1036 z "},"H":{"ha":651,"x_min":21,"x_max":696,"o":"m 472 956 q 478 967 472 963 q 490 972 483 972 l 681 972 q 696 956 696 972 l 581 17 q 574 5 579 10 q 561 0 568 0 l 371 0 q 360 5 364 0 q 357 17 356 10 l 401 381 q 396 388 401 388 l 299 388 q 290 381 293 388 l 246 17 q 240 5 244 10 q 228 0 235 0 l 36 0 q 25 5 29 0 q 22 17 21 10 l 138 956 q 144 967 139 963 q 156 972 149 972 l 347 972 q 358 967 354 972 q 361 956 363 963 l 317 593 q 322 586 317 586 l 419 586 q 428 593 425 586 l 472 956 z "},"Ħ":{"ha":651,"x_min":21,"x_max":747,"o":"m 732 858 q 743 853 739 858 q 746 842 747 849 l 731 721 q 725 709 731 714 q 713 704 719 704 l 671 704 q 664 697 664 704 l 581 17 q 574 5 579 10 q 561 0 568 0 l 371 0 q 360 5 364 0 q 357 17 356 10 l 401 381 q 396 388 401 388 l 299 388 q 290 381 293 388 l 246 17 q 240 5 244 10 q 228 0 235 0 l 36 0 q 25 5 29 0 q 22 17 21 10 l 106 697 q 100 704 108 704 l 58 704 q 47 709 51 704 q 44 721 43 714 l 58 842 q 65 853 60 849 q 78 858 71 858 l 119 858 q 124 860 122 858 q 126 865 126 863 l 138 956 q 144 967 139 963 q 156 972 149 972 l 347 972 q 358 967 354 972 q 361 956 363 963 l 350 865 q 356 858 350 858 l 453 858 q 461 865 458 858 l 472 956 q 478 967 472 963 q 490 972 483 972 l 681 972 q 696 956 696 972 l 685 865 q 690 858 682 858 l 732 858 m 419 586 q 428 593 425 586 l 440 697 q 435 704 440 704 l 338 704 q 329 697 332 704 l 317 593 q 322 586 317 586 l 419 586 z "},"Ĥ":{"ha":651,"x_min":21,"x_max":696,"o":"m 472 956 q 478 967 472 963 q 490 972 483 972 l 681 972 q 696 956 696 972 l 581 17 q 574 5 579 10 q 561 0 568 0 l 371 0 q 360 5 364 0 q 357 17 356 10 l 401 381 q 396 388 401 388 l 299 388 q 290 381 293 388 l 246 17 q 240 5 244 10 q 228 0 235 0 l 36 0 q 25 5 29 0 q 22 17 21 10 l 138 956 q 144 967 139 963 q 156 972 149 972 l 347 972 q 358 967 354 972 q 361 956 363 963 l 317 593 q 322 586 317 586 l 419 586 q 428 593 425 586 l 472 956 m 226 1050 q 214 1058 214 1050 q 218 1069 214 1064 l 321 1217 q 342 1228 328 1228 l 549 1228 q 567 1217 561 1228 l 638 1069 q 639 1063 639 1067 q 624 1050 639 1050 l 482 1050 q 465 1063 469 1050 l 439 1133 q 431 1133 435 1140 l 388 1063 q 367 1050 379 1050 l 226 1050 z "},"I":{"ha":317,"x_min":21,"x_max":363,"o":"m 36 0 q 25 5 29 0 q 22 17 21 10 l 138 956 q 144 967 139 963 q 156 972 149 972 l 347 972 q 358 967 354 972 q 361 956 363 963 l 246 17 q 240 5 244 10 q 228 0 235 0 l 36 0 z "},"Í":{"ha":317,"x_min":21,"x_max":447,"o":"m 36 0 q 25 5 29 0 q 22 17 21 10 l 138 956 q 144 967 139 963 q 156 972 149 972 l 347 972 q 358 967 354 972 q 361 956 363 963 l 246 17 q 240 5 244 10 q 228 0 235 0 l 36 0 m 178 1057 q 164 1065 164 1057 q 168 1076 164 1071 l 264 1215 q 285 1226 271 1226 l 435 1226 q 447 1218 447 1226 q 442 1206 447 1211 l 319 1067 q 299 1057 311 1057 l 178 1057 z "},"Î":{"ha":317,"x_min":21,"x_max":472,"o":"m 36 0 q 25 5 29 0 q 22 17 21 10 l 138 956 q 144 967 139 963 q 156 972 149 972 l 347 972 q 358 967 354 972 q 361 956 363 963 l 246 17 q 240 5 244 10 q 228 0 235 0 l 36 0 m 60 1049 q 47 1057 47 1049 q 51 1068 47 1063 l 154 1215 q 175 1226 161 1226 l 382 1226 q 400 1215 394 1226 l 471 1068 q 472 1061 472 1065 q 457 1049 472 1049 l 315 1049 q 299 1061 303 1049 l 272 1132 q 264 1132 268 1139 l 221 1061 q 200 1049 213 1049 l 60 1049 z "},"Ï":{"ha":317,"x_min":21,"x_max":524,"o":"m 36 0 q 25 5 29 0 q 22 17 21 10 l 138 956 q 144 967 139 963 q 156 972 149 972 l 347 972 q 358 967 354 972 q 361 956 363 963 l 246 17 q 240 5 244 10 q 228 0 235 0 l 36 0 z "},"İ":{"ha":317,"x_min":21,"x_max":392,"o":"m 36 0 q 25 5 29 0 q 22 17 21 10 l 138 956 q 144 967 139 963 q 156 972 149 972 l 347 972 q 358 967 354 972 q 361 956 363 963 l 246 17 q 240 5 244 10 q 228 0 235 0 l 36 0 m 260 1036 q 184 1065 213 1036 q 156 1140 156 1094 q 194 1239 156 1200 q 289 1278 233 1278 q 364 1250 336 1278 q 392 1175 392 1222 q 353 1076 392 1117 q 260 1036 314 1036 z "},"Ị":{"ha":317,"x_min":-12,"x_max":363,"o":"m 36 0 q 25 5 29 0 q 22 17 21 10 l 138 956 q 144 967 139 963 q 156 972 149 972 l 347 972 q 358 967 354 972 q 361 956 363 963 l 246 17 q 240 5 244 10 q 228 0 235 0 l 36 0 m 88 -358 q 15 -331 42 -358 q -12 -260 -12 -303 q 24 -164 -12 -201 q 117 -126 61 -126 q 188 -153 161 -126 q 215 -226 215 -181 q 178 -319 215 -281 q 88 -358 140 -358 z "},"Ì":{"ha":317,"x_min":21,"x_max":363,"o":"m 36 0 q 25 5 29 0 q 22 17 21 10 l 138 956 q 144 967 139 963 q 156 972 149 972 l 347 972 q 358 967 354 972 q 361 956 363 963 l 246 17 q 240 5 244 10 q 228 0 235 0 l 36 0 m 333 1076 q 335 1069 335 1074 q 318 1057 335 1057 l 196 1057 q 176 1067 185 1057 l 89 1206 q 86 1214 86 1211 q 91 1223 86 1219 q 103 1226 96 1226 l 253 1226 q 271 1215 267 1226 l 333 1076 z "},"Ỉ":{"ha":317,"x_min":21,"x_max":426,"o":"m 36 0 q 25 5 29 0 q 22 17 21 10 l 138 956 q 144 967 139 963 q 156 972 149 972 l 347 972 q 358 967 354 972 q 361 956 363 963 l 246 17 q 240 5 244 10 q 228 0 235 0 l 36 0 m 236 1031 q 228 1051 218 1035 q 279 1122 249 1092 q 301 1149 294 1139 q 310 1176 307 1158 l 310 1179 q 301 1197 310 1189 q 282 1204 293 1204 q 253 1196 267 1204 q 219 1164 240 1188 q 206 1157 213 1157 q 196 1161 201 1157 l 144 1203 q 138 1214 138 1210 q 143 1226 138 1221 q 215 1292 179 1272 q 300 1311 250 1311 q 393 1282 360 1311 q 426 1200 426 1253 q 410 1131 426 1157 q 363 1075 394 1106 q 321 1028 329 1042 q 299 1018 311 1017 l 236 1031 z "},"Ī":{"ha":317,"x_min":21,"x_max":425,"o":"m 36 0 q 25 5 29 0 q 22 17 21 10 l 138 956 q 144 967 139 963 q 156 972 149 972 l 347 972 q 358 967 354 972 q 361 956 363 963 l 246 17 q 240 5 244 10 q 228 0 235 0 l 36 0 m 118 1054 q 107 1059 111 1054 q 104 1071 103 1064 l 119 1193 q 126 1205 121 1200 q 138 1210 131 1210 l 410 1210 q 421 1205 417 1210 q 424 1193 425 1200 l 408 1071 q 402 1059 407 1064 q 390 1054 397 1054 l 118 1054 z "},"Į":{"ha":310,"x_min":7,"x_max":360,"o":"m 33 0 q 22 5 26 0 q 19 17 18 10 l 135 956 q 141 967 136 963 q 153 972 146 972 l 344 972 q 356 967 351 972 q 358 956 360 963 l 243 17 q 237 5 242 10 q 225 0 232 0 l 33 0 m 204 -236 q 190 -257 204 -251 q 118 -268 154 -268 q 38 -244 69 -268 q 7 -160 7 -219 q 85 -8 7 -81 q 106 0 93 0 l 210 0 q 222 -7 222 0 q 214 -21 222 -12 q 153 -112 153 -74 q 188 -146 153 -149 l 192 -146 q 204 -158 204 -146 l 204 -236 z "},"Ĩ":{"ha":317,"x_min":21,"x_max":503,"o":"m 36 0 q 25 5 29 0 q 22 17 21 10 l 138 956 q 144 967 139 963 q 156 972 149 972 l 347 972 q 358 967 354 972 q 361 956 363 963 l 246 17 q 240 5 244 10 q 228 0 235 0 l 36 0 m 353 1057 q 282 1079 322 1057 q 263 1092 272 1085 q 246 1101 253 1099 q 229 1104 239 1104 q 182 1075 203 1104 q 170 1066 176 1068 q 158 1069 164 1064 l 96 1119 q 92 1142 86 1128 q 151 1221 114 1194 q 229 1247 189 1247 q 314 1215 269 1247 q 327 1206 318 1213 q 345 1195 336 1199 q 364 1192 354 1192 q 414 1217 393 1192 q 436 1224 424 1232 l 497 1175 q 503 1164 503 1169 q 494 1143 503 1156 q 428 1077 465 1097 q 353 1057 390 1057 z "},"J":{"ha":622,"x_min":17,"x_max":667,"o":"m 265 -11 q 84 51 151 -11 q 17 219 17 114 q 19 258 17 231 l 31 349 q 37 360 32 356 q 49 365 42 365 l 240 365 q 251 360 247 365 q 254 349 256 356 l 243 256 l 242 242 q 255 201 242 217 q 290 186 268 186 q 334 206 315 186 q 356 256 353 225 l 442 956 q 448 967 443 963 q 460 972 453 972 l 651 972 q 663 967 658 972 q 665 956 667 963 l 581 258 q 478 63 565 138 q 265 -11 392 -11 z "},"Ĵ":{"ha":622,"x_min":17,"x_max":772,"o":"m 265 -11 q 84 51 151 -11 q 17 219 17 114 q 19 258 17 231 l 31 349 q 37 360 32 356 q 49 365 42 365 l 240 365 q 251 360 247 365 q 254 349 256 356 l 243 256 l 242 242 q 255 201 242 217 q 290 186 268 186 q 334 206 315 186 q 356 256 353 225 l 442 956 q 448 967 443 963 q 460 972 453 972 l 651 972 q 663 967 658 972 q 665 956 667 963 l 581 258 q 478 63 565 138 q 265 -11 392 -11 m 360 1050 q 347 1058 347 1050 q 351 1069 347 1064 l 454 1217 q 475 1228 461 1228 l 682 1228 q 700 1217 694 1228 l 771 1069 q 772 1063 772 1067 q 757 1050 772 1050 l 615 1050 q 599 1063 603 1050 l 572 1133 q 564 1133 568 1140 l 521 1063 q 500 1050 513 1050 l 360 1050 z "},"K":{"ha":681,"x_min":21,"x_max":749,"o":"m 36 0 q 25 5 29 0 q 22 17 21 10 l 138 956 q 144 967 139 963 q 156 972 149 972 l 347 972 q 358 967 354 972 q 361 956 363 963 l 322 642 q 325 636 322 636 q 331 640 328 636 l 511 960 q 532 972 518 972 l 733 972 q 746 967 743 972 q 743 953 749 963 l 499 544 q 496 541 497 543 q 496 536 494 539 l 638 19 l 639 14 q 634 4 639 8 q 622 0 629 0 l 419 0 q 401 13 404 0 l 321 338 q 317 342 319 342 q 311 338 314 342 l 281 288 q 278 279 278 282 l 246 17 q 240 5 244 10 q 228 0 235 0 l 36 0 z "},"L":{"ha":588,"x_min":21,"x_max":565,"o":"m 36 0 q 25 5 29 0 q 22 17 21 10 l 138 956 q 144 967 139 963 q 156 972 149 972 l 347 972 q 358 967 354 972 q 361 956 363 963 l 269 204 q 275 197 267 197 l 550 197 q 561 192 557 197 q 564 181 565 188 l 543 17 q 538 5 543 10 q 525 0 532 0 l 36 0 z "},"Ĺ":{"ha":588,"x_min":21,"x_max":565,"o":"m 36 0 q 25 5 29 0 q 22 17 21 10 l 138 956 q 144 967 139 963 q 156 972 149 972 l 347 972 q 358 967 354 972 q 361 956 363 963 l 269 204 q 275 197 267 197 l 550 197 q 561 192 557 197 q 564 181 565 188 l 543 17 q 538 5 543 10 q 525 0 532 0 l 36 0 m 183 1057 q 169 1065 169 1057 q 174 1076 169 1071 l 269 1215 q 290 1226 276 1226 l 440 1226 q 453 1218 453 1226 q 447 1206 453 1211 l 325 1067 q 304 1057 317 1057 l 183 1057 z "},"Ľ":{"ha":593,"x_min":21,"x_max":657,"o":"m 36 0 q 25 5 29 0 q 22 17 21 10 l 138 956 q 144 967 139 963 q 156 972 149 972 l 347 972 q 358 967 354 972 q 361 956 363 963 l 269 204 q 275 197 267 197 l 550 197 q 561 192 557 197 q 564 181 565 188 l 543 17 q 538 5 543 10 q 525 0 532 0 l 36 0 z "},"Ļ":{"ha":588,"x_min":21,"x_max":565,"o":"m 36 0 q 25 5 29 0 q 22 17 21 10 l 138 956 q 144 967 139 963 q 156 972 149 972 l 347 972 q 358 967 354 972 q 361 956 363 963 l 269 204 q 275 197 267 197 l 550 197 q 561 192 557 197 q 564 181 565 188 l 543 17 q 538 5 543 10 q 525 0 532 0 l 36 0 z "},"Ł":{"ha":696,"x_min":-8,"x_max":690,"o":"m 375 204 q 381 197 375 197 l 657 197 q 672 181 672 197 l 651 17 q 645 5 650 10 q 633 0 640 0 l 143 0 q 132 5 136 0 q 129 17 128 10 l 154 224 q 146 228 154 235 l 94 186 q 82 181 86 181 q 71 188 78 181 l -4 293 q -8 304 -8 300 q 0 317 -8 311 l 179 460 q 185 468 181 461 l 244 956 q 251 967 246 963 q 263 972 256 972 l 454 972 q 465 967 461 972 q 468 956 469 963 l 433 671 q 435 665 432 667 q 440 667 438 664 l 589 785 q 601 790 597 790 q 613 783 608 790 l 686 676 q 690 665 690 671 q 682 653 690 660 l 408 435 q 403 426 403 433 l 375 204 z "},"M":{"ha":751,"x_min":14,"x_max":801,"o":"m 578 961 q 599 972 583 972 l 786 972 q 797 967 793 972 q 800 956 801 963 l 685 17 q 678 5 683 10 q 667 0 674 0 l 475 0 q 464 5 468 0 q 461 17 460 10 l 535 613 q 533 619 536 618 q 526 615 529 619 l 411 446 q 403 435 406 435 q 394 446 399 435 l 321 615 q 316 619 318 619 q 313 614 314 619 l 239 17 q 233 5 238 10 q 221 0 228 0 l 29 0 q 18 5 22 0 q 15 17 14 10 l 131 956 q 137 967 132 963 q 149 972 142 972 l 338 972 q 357 961 350 972 l 439 760 q 447 760 443 754 l 578 961 z "},"N":{"ha":703,"x_min":21,"x_max":747,"o":"m 525 956 q 531 967 526 963 q 543 972 536 972 l 732 972 q 743 967 739 972 q 746 956 747 963 l 631 17 q 625 5 631 10 q 613 0 619 0 l 399 0 q 382 14 385 0 l 307 497 q 303 502 307 501 q 300 497 300 503 l 243 17 q 237 5 242 10 q 225 0 232 0 l 36 0 q 25 5 29 0 q 22 17 21 10 l 138 956 q 144 967 139 963 q 156 972 149 972 l 367 972 q 385 958 382 972 l 460 472 q 463 468 460 468 q 468 474 467 468 l 525 956 z "},"Ń":{"ha":703,"x_min":21,"x_max":747,"o":"m 525 956 q 531 967 526 963 q 543 972 536 972 l 732 972 q 743 967 739 972 q 746 956 747 963 l 631 17 q 625 5 631 10 q 613 0 619 0 l 399 0 q 382 14 385 0 l 307 497 q 303 502 307 501 q 300 497 300 503 l 243 17 q 237 5 242 10 q 225 0 232 0 l 36 0 q 25 5 29 0 q 22 17 21 10 l 138 956 q 144 967 139 963 q 156 972 149 972 l 367 972 q 385 958 382 972 l 460 472 q 463 468 460 468 q 468 474 467 468 l 525 956 m 369 1058 q 356 1067 356 1058 q 360 1078 356 1072 l 456 1217 q 476 1228 463 1228 l 626 1228 q 639 1219 639 1228 q 633 1207 639 1213 l 511 1068 q 490 1058 503 1058 l 369 1058 z "},"Ň":{"ha":703,"x_min":21,"x_max":747,"o":"m 525 956 q 531 967 526 963 q 543 972 536 972 l 732 972 q 743 967 739 972 q 746 956 747 963 l 631 17 q 625 5 631 10 q 613 0 619 0 l 399 0 q 382 14 385 0 l 307 497 q 303 502 307 501 q 300 497 300 503 l 243 17 q 237 5 242 10 q 225 0 232 0 l 36 0 q 25 5 29 0 q 22 17 21 10 l 138 956 q 144 967 139 963 q 156 972 149 972 l 367 972 q 385 958 382 972 l 460 472 q 463 468 460 468 q 468 474 467 468 l 525 956 m 267 1208 q 265 1217 265 1211 q 281 1228 265 1228 l 421 1228 q 438 1215 433 1228 l 464 1144 q 472 1144 468 1139 l 515 1215 q 536 1228 524 1228 l 678 1228 q 690 1219 690 1228 q 686 1208 690 1215 l 579 1061 q 558 1050 572 1050 l 351 1050 q 333 1061 338 1050 l 267 1208 z "},"Ŋ":{"ha":703,"x_min":21,"x_max":747,"o":"m 525 956 q 531 967 526 963 q 543 972 536 972 l 732 972 q 743 967 739 972 q 746 956 747 963 l 629 0 q 590 -163 615 -107 q 494 -251 565 -219 q 278 -279 422 -282 q 267 -274 271 -279 q 264 -262 263 -269 l 283 -99 q 290 -87 285 -90 q 307 -83 296 -83 q 363 -65 349 -83 q 383 -4 378 -47 l 383 4 l 307 497 q 303 502 307 501 q 300 497 300 503 l 243 17 q 237 5 242 10 q 225 0 232 0 l 36 0 q 25 5 29 0 q 22 17 21 10 l 138 956 q 144 967 139 963 q 156 972 149 972 l 367 972 q 385 958 382 972 l 460 472 q 463 468 460 468 q 468 474 467 468 l 525 956 z "},"Ñ":{"ha":703,"x_min":21,"x_max":747,"o":"m 525 956 q 531 967 526 963 q 543 972 536 972 l 732 972 q 743 967 739 972 q 746 956 747 963 l 631 17 q 625 5 631 10 q 613 0 619 0 l 399 0 q 382 14 385 0 l 307 497 q 303 502 307 501 q 300 497 300 503 l 243 17 q 237 5 242 10 q 225 0 232 0 l 36 0 q 25 5 29 0 q 22 17 21 10 l 138 956 q 144 967 139 963 q 156 972 149 972 l 367 972 q 385 958 382 972 l 460 472 q 463 468 460 468 q 468 474 467 468 l 525 956 m 544 1058 q 474 1081 514 1058 q 454 1093 464 1086 q 438 1103 444 1100 q 421 1106 431 1106 q 374 1076 394 1106 q 362 1067 368 1069 q 350 1071 356 1065 l 288 1121 q 283 1143 278 1129 q 343 1222 306 1196 q 421 1249 381 1249 q 506 1217 461 1249 q 519 1207 510 1214 q 537 1197 528 1200 q 556 1193 546 1193 q 606 1218 585 1193 q 628 1225 615 1233 l 689 1176 q 694 1165 694 1171 q 686 1144 694 1157 q 619 1078 657 1099 q 544 1058 582 1058 z "},"O":{"ha":644,"x_min":40,"x_max":671,"o":"m 293 -11 q 108 53 175 -11 q 40 231 40 118 q 43 276 40 246 l 94 696 q 198 906 111 828 q 415 983 285 983 q 602 918 533 983 q 671 740 671 853 q 668 696 671 726 l 615 276 q 512 67 600 144 q 293 -11 424 -11 m 318 186 q 367 208 347 186 q 392 267 386 229 l 444 706 q 446 724 446 713 q 432 769 446 753 q 392 786 418 786 q 343 764 363 786 q 319 706 324 742 l 265 267 l 264 251 q 278 203 264 221 q 318 186 292 186 z "},"Ó":{"ha":644,"x_min":40,"x_max":671,"o":"m 293 -11 q 108 53 175 -11 q 40 231 40 118 q 43 276 40 246 l 94 696 q 198 906 111 828 q 415 983 285 983 q 602 918 533 983 q 671 740 671 853 q 668 696 671 726 l 615 276 q 512 67 600 144 q 293 -11 424 -11 m 318 186 q 367 208 347 186 q 392 267 386 229 l 444 706 q 446 724 446 713 q 432 769 446 753 q 392 786 418 786 q 343 764 363 786 q 319 706 324 742 l 265 267 l 264 251 q 278 203 264 221 q 318 186 292 186 m 342 1057 q 328 1065 328 1057 q 332 1076 328 1071 l 428 1215 q 449 1226 435 1226 l 599 1226 q 611 1218 611 1226 q 606 1206 611 1211 l 483 1067 q 463 1057 475 1057 l 342 1057 z "},"Ô":{"ha":644,"x_min":40,"x_max":671,"o":"m 293 -11 q 108 53 175 -11 q 40 231 40 118 q 43 276 40 246 l 94 696 q 198 906 111 828 q 415 983 285 983 q 602 918 533 983 q 671 740 671 853 q 668 696 671 726 l 615 276 q 512 67 600 144 q 293 -11 424 -11 m 318 186 q 367 208 347 186 q 392 267 386 229 l 444 706 q 446 724 446 713 q 432 769 446 753 q 392 786 418 786 q 343 764 363 786 q 319 706 324 742 l 265 267 l 264 251 q 278 203 264 221 q 318 186 292 186 m 224 1049 q 211 1057 211 1049 q 215 1068 211 1063 l 318 1215 q 339 1226 325 1226 l 546 1226 q 564 1215 558 1226 l 635 1068 q 636 1061 636 1065 q 621 1049 636 1049 l 479 1049 q 463 1061 467 1049 l 436 1132 q 428 1132 432 1139 l 385 1061 q 364 1049 376 1049 l 224 1049 z "},"Ố":{"ha":644,"x_min":40,"x_max":917,"o":"m 293 -11 q 108 53 175 -11 q 40 231 40 118 q 43 276 40 246 l 94 696 q 198 906 111 828 q 415 983 285 983 q 602 918 533 983 q 671 740 671 853 q 668 696 671 726 l 615 276 q 512 67 600 144 q 293 -11 424 -11 m 318 186 q 367 208 347 186 q 392 267 386 229 l 444 706 q 446 724 446 713 q 432 769 446 753 q 392 786 418 786 q 343 764 363 786 q 319 706 324 742 l 265 267 l 264 251 q 278 203 264 221 q 318 186 292 186 z "},"Ộ":{"ha":644,"x_min":40,"x_max":671,"o":"m 293 -11 q 108 53 175 -11 q 40 231 40 118 q 43 276 40 246 l 94 696 q 198 906 111 828 q 415 983 285 983 q 602 918 533 983 q 671 740 671 853 q 668 696 671 726 l 615 276 q 512 67 600 144 q 293 -11 424 -11 m 318 186 q 367 208 347 186 q 392 267 386 229 l 444 706 q 446 724 446 713 q 432 769 446 753 q 392 786 418 786 q 343 764 363 786 q 319 706 324 742 l 265 267 l 264 251 q 278 203 264 221 q 318 186 292 186 m 251 -358 q 178 -331 206 -358 q 151 -260 151 -303 q 188 -164 151 -201 q 281 -126 225 -126 q 352 -153 325 -126 q 379 -226 379 -181 q 342 -319 379 -281 q 251 -358 304 -358 m 224 1049 q 211 1057 211 1049 q 215 1068 211 1063 l 318 1215 q 339 1226 325 1226 l 546 1226 q 564 1215 558 1226 l 635 1068 q 636 1061 636 1065 q 621 1049 636 1049 l 479 1049 q 463 1061 467 1049 l 436 1132 q 428 1132 432 1139 l 385 1061 q 364 1049 376 1049 l 224 1049 z "},"Ồ":{"ha":644,"x_min":40,"x_max":753,"o":"m 293 -11 q 108 53 175 -11 q 40 231 40 118 q 43 276 40 246 l 94 696 q 198 906 111 828 q 415 983 285 983 q 602 918 533 983 q 671 740 671 853 q 668 696 671 726 l 615 276 q 512 67 600 144 q 293 -11 424 -11 m 318 186 q 367 208 347 186 q 392 267 386 229 l 444 706 q 446 724 446 713 q 432 769 446 753 q 392 786 418 786 q 343 764 363 786 q 319 706 324 742 l 265 267 l 264 251 q 278 203 264 221 q 318 186 292 186 z "},"Ổ":{"ha":644,"x_min":40,"x_max":815,"o":"m 293 -11 q 108 53 175 -11 q 40 231 40 118 q 43 276 40 246 l 94 696 q 198 906 111 828 q 415 983 285 983 q 602 918 533 983 q 671 740 671 853 q 668 696 671 726 l 615 276 q 512 67 600 144 q 293 -11 424 -11 m 318 186 q 367 208 347 186 q 392 267 386 229 l 444 706 q 446 724 446 713 q 432 769 446 753 q 392 786 418 786 q 343 764 363 786 q 319 706 324 742 l 265 267 l 264 251 q 278 203 264 221 q 318 186 292 186 m 640 1197 q 632 1218 622 1203 q 679 1282 651 1257 q 699 1307 693 1297 q 707 1332 706 1317 l 707 1335 q 700 1351 707 1344 q 682 1358 693 1358 q 656 1351 668 1358 q 625 1322 644 1343 q 601 1318 614 1308 l 556 1357 q 550 1368 550 1363 q 556 1381 550 1375 q 622 1440 589 1422 q 700 1457 654 1457 q 785 1429 754 1457 q 815 1353 815 1401 q 800 1290 815 1314 q 754 1238 785 1265 q 735 1218 747 1231 q 717 1196 724 1206 q 696 1186 708 1185 l 640 1197 m 224 1049 q 211 1057 211 1049 q 215 1068 211 1063 l 318 1215 q 339 1226 325 1226 l 546 1226 q 564 1215 558 1226 l 635 1068 q 636 1061 636 1065 q 621 1049 636 1049 l 479 1049 q 463 1061 467 1049 l 436 1132 q 428 1132 432 1139 l 385 1061 q 364 1049 376 1049 l 224 1049 z "},"Ỗ":{"ha":644,"x_min":40,"x_max":671,"o":"m 293 -11 q 108 53 175 -11 q 40 231 40 118 q 43 276 40 246 l 94 696 q 198 906 111 828 q 415 983 285 983 q 602 918 533 983 q 671 740 671 853 q 668 696 671 726 l 615 276 q 512 67 600 144 q 293 -11 424 -11 m 318 186 q 367 208 347 186 q 392 267 386 229 l 444 706 q 446 724 446 713 q 432 769 446 753 q 392 786 418 786 q 343 764 363 786 q 319 706 324 742 l 265 267 l 264 251 q 278 203 264 221 q 318 186 292 186 z "},"Ö":{"ha":644,"x_min":40,"x_max":688,"o":"m 293 -11 q 108 53 175 -11 q 40 231 40 118 q 43 276 40 246 l 94 696 q 198 906 111 828 q 415 983 285 983 q 602 918 533 983 q 671 740 671 853 q 668 696 671 726 l 615 276 q 512 67 600 144 q 293 -11 424 -11 m 318 186 q 367 208 347 186 q 392 267 386 229 l 444 706 q 446 724 446 713 q 432 769 446 753 q 392 786 418 786 q 343 764 363 786 q 319 706 324 742 l 265 267 l 264 251 q 278 203 264 221 q 318 186 292 186 z "},"Ọ":{"ha":644,"x_min":40,"x_max":671,"o":"m 293 -11 q 108 53 175 -11 q 40 231 40 118 q 43 276 40 246 l 94 696 q 198 906 111 828 q 415 983 285 983 q 602 918 533 983 q 671 740 671 853 q 668 696 671 726 l 615 276 q 512 67 600 144 q 293 -11 424 -11 m 318 186 q 367 208 347 186 q 392 267 386 229 l 444 706 q 446 724 446 713 q 432 769 446 753 q 392 786 418 786 q 343 764 363 786 q 319 706 324 742 l 265 267 l 264 251 q 278 203 264 221 q 318 186 292 186 m 251 -358 q 178 -331 206 -358 q 151 -260 151 -303 q 188 -164 151 -201 q 281 -126 225 -126 q 352 -153 325 -126 q 379 -226 379 -181 q 342 -319 379 -281 q 251 -358 304 -358 z "},"Ò":{"ha":644,"x_min":40,"x_max":671,"o":"m 293 -11 q 108 53 175 -11 q 40 231 40 118 q 43 276 40 246 l 94 696 q 198 906 111 828 q 415 983 285 983 q 602 918 533 983 q 671 740 671 853 q 668 696 671 726 l 615 276 q 512 67 600 144 q 293 -11 424 -11 m 318 186 q 367 208 347 186 q 392 267 386 229 l 444 706 q 446 724 446 713 q 432 769 446 753 q 392 786 418 786 q 343 764 363 786 q 319 706 324 742 l 265 267 l 264 251 q 278 203 264 221 q 318 186 292 186 m 497 1076 q 499 1069 499 1074 q 482 1057 499 1057 l 360 1057 q 340 1067 349 1057 l 253 1206 q 250 1214 250 1211 q 255 1223 250 1219 q 267 1226 260 1226 l 417 1226 q 435 1215 431 1226 l 497 1076 z "},"Ỏ":{"ha":644,"x_min":40,"x_max":671,"o":"m 293 -11 q 108 53 175 -11 q 40 231 40 118 q 43 276 40 246 l 94 696 q 198 906 111 828 q 415 983 285 983 q 602 918 533 983 q 671 740 671 853 q 668 696 671 726 l 615 276 q 512 67 600 144 q 293 -11 424 -11 m 318 186 q 367 208 347 186 q 392 267 386 229 l 444 706 q 446 724 446 713 q 432 769 446 753 q 392 786 418 786 q 343 764 363 786 q 319 706 324 742 l 265 267 l 264 251 q 278 203 264 221 q 318 186 292 186 m 400 1031 q 392 1051 382 1035 q 443 1122 413 1092 q 465 1149 458 1139 q 474 1176 471 1158 l 474 1179 q 465 1197 474 1189 q 446 1204 457 1204 q 417 1196 431 1204 q 383 1164 404 1188 q 369 1157 376 1157 q 360 1161 365 1157 l 308 1203 q 301 1214 301 1210 q 307 1226 301 1221 q 378 1292 343 1272 q 464 1311 414 1311 q 557 1282 524 1311 q 590 1200 590 1253 q 574 1131 590 1157 q 526 1075 558 1106 q 485 1028 493 1042 q 463 1018 475 1017 l 400 1031 z "},"Ơ":{"ha":644,"x_min":40,"x_max":704,"o":"m 617 914 q 615 904 610 910 q 671 739 671 840 q 668 696 671 726 l 615 276 q 512 67 600 144 q 293 -11 424 -11 q 108 53 175 -11 q 40 231 40 118 q 43 276 40 246 l 94 696 q 198 906 111 828 q 415 983 285 983 q 500 974 454 983 q 507 972 501 972 q 590 1075 572 978 q 608 1092 593 1092 l 690 1092 q 701 1085 697 1092 q 703 1065 704 1078 q 617 914 683 964 m 444 706 q 446 724 446 713 q 432 769 446 753 q 392 786 418 786 q 343 764 363 786 q 319 706 324 742 l 265 267 l 264 251 q 278 203 264 221 q 318 186 292 186 q 367 208 347 186 q 392 267 386 229 l 444 706 z "},"Ớ":{"ha":644,"x_min":40,"x_max":704,"o":"m 617 914 q 615 904 610 910 q 671 739 671 840 q 668 696 671 726 l 615 276 q 512 67 600 144 q 293 -11 424 -11 q 108 53 175 -11 q 40 231 40 118 q 43 276 40 246 l 94 696 q 198 906 111 828 q 415 983 285 983 q 500 974 454 983 q 507 972 501 972 q 590 1075 572 978 q 608 1092 593 1092 l 690 1092 q 701 1085 697 1092 q 703 1065 704 1078 q 617 914 683 964 m 444 706 q 446 724 446 713 q 432 769 446 753 q 392 786 418 786 q 343 764 363 786 q 319 706 324 742 l 265 267 l 264 251 q 278 203 264 221 q 318 186 292 186 q 367 208 347 186 q 392 267 386 229 l 444 706 m 342 1057 q 328 1065 328 1057 q 332 1076 328 1071 l 428 1215 q 449 1226 435 1226 l 599 1226 q 611 1218 611 1226 q 606 1206 611 1211 l 483 1067 q 463 1057 475 1057 l 342 1057 z "},"Ợ":{"ha":644,"x_min":40,"x_max":704,"o":"m 617 914 q 615 904 610 910 q 671 739 671 840 q 668 696 671 726 l 615 276 q 512 67 600 144 q 293 -11 424 -11 q 108 53 175 -11 q 40 231 40 118 q 43 276 40 246 l 94 696 q 198 906 111 828 q 415 983 285 983 q 500 974 454 983 q 507 972 501 972 q 590 1075 572 978 q 608 1092 593 1092 l 690 1092 q 701 1085 697 1092 q 703 1065 704 1078 q 617 914 683 964 m 444 706 q 446 724 446 713 q 432 769 446 753 q 392 786 418 786 q 343 764 363 786 q 319 706 324 742 l 265 267 l 264 251 q 278 203 264 221 q 318 186 292 186 q 367 208 347 186 q 392 267 386 229 l 444 706 m 251 -358 q 178 -331 206 -358 q 151 -260 151 -303 q 188 -164 151 -201 q 281 -126 225 -126 q 352 -153 325 -126 q 379 -226 379 -181 q 342 -319 379 -281 q 251 -358 304 -358 z "},"Ờ":{"ha":644,"x_min":40,"x_max":704,"o":"m 617 914 q 615 904 610 910 q 671 739 671 840 q 668 696 671 726 l 615 276 q 512 67 600 144 q 293 -11 424 -11 q 108 53 175 -11 q 40 231 40 118 q 43 276 40 246 l 94 696 q 198 906 111 828 q 415 983 285 983 q 500 974 454 983 q 507 972 501 972 q 590 1075 572 978 q 608 1092 593 1092 l 690 1092 q 701 1085 697 1092 q 703 1065 704 1078 q 617 914 683 964 m 444 706 q 446 724 446 713 q 432 769 446 753 q 392 786 418 786 q 343 764 363 786 q 319 706 324 742 l 265 267 l 264 251 q 278 203 264 221 q 318 186 292 186 q 367 208 347 186 q 392 267 386 229 l 444 706 m 497 1076 q 499 1069 499 1074 q 482 1057 499 1057 l 360 1057 q 340 1067 349 1057 l 253 1206 q 250 1214 250 1211 q 255 1223 250 1219 q 267 1226 260 1226 l 417 1226 q 435 1215 431 1226 l 497 1076 z "},"Ở":{"ha":644,"x_min":40,"x_max":704,"o":"m 617 914 q 615 904 610 910 q 671 739 671 840 q 668 696 671 726 l 615 276 q 512 67 600 144 q 293 -11 424 -11 q 108 53 175 -11 q 40 231 40 118 q 43 276 40 246 l 94 696 q 198 906 111 828 q 415 983 285 983 q 500 974 454 983 q 507 972 501 972 q 590 1075 572 978 q 608 1092 593 1092 l 690 1092 q 701 1085 697 1092 q 703 1065 704 1078 q 617 914 683 964 m 444 706 q 446 724 446 713 q 432 769 446 753 q 392 786 418 786 q 343 764 363 786 q 319 706 324 742 l 265 267 l 264 251 q 278 203 264 221 q 318 186 292 186 q 367 208 347 186 q 392 267 386 229 l 444 706 m 400 1031 q 392 1051 382 1035 q 443 1122 413 1092 q 465 1149 458 1139 q 474 1176 471 1158 l 474 1179 q 465 1197 474 1189 q 446 1204 457 1204 q 417 1196 431 1204 q 383 1164 404 1188 q 369 1157 376 1157 q 360 1161 365 1157 l 308 1203 q 301 1214 301 1210 q 307 1226 301 1221 q 378 1292 343 1272 q 464 1311 414 1311 q 557 1282 524 1311 q 590 1200 590 1253 q 574 1131 590 1157 q 526 1075 558 1106 q 485 1028 493 1042 q 463 1018 475 1017 l 400 1031 z "},"Ỡ":{"ha":644,"x_min":40,"x_max":704,"o":"m 617 914 q 615 904 610 910 q 671 739 671 840 q 668 696 671 726 l 615 276 q 512 67 600 144 q 293 -11 424 -11 q 108 53 175 -11 q 40 231 40 118 q 43 276 40 246 l 94 696 q 198 906 111 828 q 415 983 285 983 q 500 974 454 983 q 507 972 501 972 q 588 1065 567 978 q 587 1071 589 1069 q 581 1071 585 1072 q 518 1057 549 1057 q 446 1079 486 1057 q 422 1094 436 1085 q 394 1103 408 1103 q 346 1075 368 1103 q 324 1068 335 1057 l 260 1119 q 256 1142 251 1128 q 315 1220 279 1194 q 393 1246 351 1246 q 476 1215 436 1246 q 490 1206 481 1213 q 508 1194 499 1199 q 529 1190 518 1190 q 578 1217 557 1190 q 601 1224 590 1232 l 661 1175 q 665 1153 674 1167 q 624 1100 649 1122 q 622 1094 621 1097 q 626 1092 622 1092 l 690 1092 q 701 1085 697 1092 q 703 1065 704 1078 q 617 914 683 964 m 444 706 q 446 724 446 713 q 432 769 446 753 q 392 786 418 786 q 343 764 363 786 q 319 706 324 742 l 265 267 l 264 251 q 278 203 264 221 q 318 186 292 186 q 367 208 347 186 q 392 267 386 229 l 444 706 z "},"Ő":{"ha":644,"x_min":40,"x_max":740,"o":"m 293 -11 q 108 53 175 -11 q 40 231 40 118 q 43 276 40 246 l 94 696 q 198 906 111 828 q 415 983 285 983 q 602 918 533 983 q 671 740 671 853 q 668 696 671 726 l 615 276 q 512 67 600 144 q 293 -11 424 -11 m 318 186 q 367 208 347 186 q 392 267 386 229 l 444 706 q 446 724 446 713 q 432 769 446 753 q 392 786 418 786 q 343 764 363 786 q 319 706 324 742 l 265 267 l 264 251 q 278 203 264 221 q 318 186 292 186 m 251 1057 q 239 1062 242 1057 q 242 1076 236 1067 l 319 1214 q 339 1226 325 1226 l 496 1226 q 508 1222 506 1226 q 506 1207 511 1217 l 418 1069 q 399 1057 411 1057 l 251 1057 m 481 1057 q 468 1063 471 1057 q 471 1076 465 1068 l 557 1214 q 579 1226 565 1226 l 725 1226 q 737 1222 733 1226 q 735 1207 740 1217 l 647 1069 q 626 1057 639 1057 l 481 1057 z "},"Ō":{"ha":644,"x_min":40,"x_max":671,"o":"m 293 -11 q 108 53 175 -11 q 40 231 40 118 q 43 276 40 246 l 94 696 q 198 906 111 828 q 415 983 285 983 q 602 918 533 983 q 671 740 671 853 q 668 696 671 726 l 615 276 q 512 67 600 144 q 293 -11 424 -11 m 318 186 q 367 208 347 186 q 392 267 386 229 l 444 706 q 446 724 446 713 q 432 769 446 753 q 392 786 418 786 q 343 764 363 786 q 319 706 324 742 l 265 267 l 264 251 q 278 203 264 221 q 318 186 292 186 m 282 1054 q 271 1059 275 1054 q 268 1071 267 1064 l 283 1193 q 290 1205 285 1200 q 301 1210 294 1210 l 574 1210 q 585 1205 581 1210 q 588 1193 589 1200 l 572 1071 q 566 1059 571 1064 q 554 1054 561 1054 l 282 1054 z "},"Ø":{"ha":696,"x_min":-15,"x_max":718,"o":"m 711 979 q 718 968 718 975 q 714 957 718 964 l 651 857 q 650 849 649 853 q 671 739 671 801 q 668 696 671 726 l 615 276 q 512 67 600 144 q 293 -11 424 -11 q 169 13 221 -11 q 165 13 168 14 q 161 10 163 13 l 113 -68 q 101 -77 108 -75 q 89 -74 94 -79 l -4 -7 q -7 15 -15 3 l 57 117 q 58 125 60 121 q 39 233 39 175 q 42 276 39 246 l 93 696 q 197 905 110 826 q 415 983 285 983 q 536 961 483 983 q 544 964 542 958 l 593 1040 q 603 1049 597 1047 q 617 1046 610 1050 l 711 979 m 444 706 q 446 724 446 711 q 431 769 446 753 q 392 786 417 786 q 343 764 363 786 q 318 706 324 742 l 264 267 q 274 208 260 231 q 318 186 289 186 q 367 208 347 186 q 392 267 386 231 l 444 706 z "},"Õ":{"ha":644,"x_min":40,"x_max":671,"o":"m 293 -11 q 108 53 175 -11 q 40 231 40 118 q 43 276 40 246 l 94 696 q 198 906 111 828 q 415 983 285 983 q 602 918 533 983 q 671 740 671 853 q 668 696 671 726 l 615 276 q 512 67 600 144 q 293 -11 424 -11 m 318 186 q 367 208 347 186 q 392 267 386 229 l 444 706 q 446 724 446 713 q 432 769 446 753 q 392 786 418 786 q 343 764 363 786 q 319 706 324 742 l 265 267 l 264 251 q 278 203 264 221 q 318 186 292 186 m 517 1057 q 446 1079 486 1057 q 426 1092 436 1085 q 410 1101 417 1099 q 393 1104 403 1104 q 346 1075 367 1104 q 334 1066 340 1068 q 322 1069 328 1064 l 260 1119 q 256 1142 250 1128 q 315 1221 278 1194 q 393 1247 353 1247 q 478 1215 433 1247 q 491 1206 482 1213 q 509 1195 500 1199 q 528 1192 518 1192 q 578 1217 557 1192 q 600 1224 588 1232 l 661 1175 q 667 1164 667 1169 q 658 1143 667 1156 q 592 1077 629 1097 q 517 1057 554 1057 z "},"Œ":{"ha":933,"x_min":40,"x_max":994,"o":"m 972 792 q 967 780 972 785 q 954 775 961 775 l 683 775 q 676 768 676 775 l 654 593 q 661 586 654 586 l 810 586 q 825 569 825 586 l 804 404 q 798 392 803 397 q 786 388 793 388 l 636 388 q 629 381 629 388 l 607 204 q 613 197 607 197 l 883 197 q 894 192 890 197 q 897 181 899 188 l 878 17 q 872 5 876 10 q 860 0 867 0 l 375 0 q 360 14 360 0 l 361 18 q 358 24 361 22 q 353 22 356 25 q 236 -11 303 -11 q 138 18 183 -11 q 67 102 93 47 q 40 229 40 157 q 43 276 40 243 l 94 696 q 146 846 106 781 q 243 947 186 911 q 358 983 300 983 q 467 950 425 983 q 472 949 469 947 q 475 954 475 950 l 475 956 q 482 967 476 963 q 494 972 488 972 l 979 972 q 990 967 986 972 q 993 956 994 963 l 972 792 m 318 186 q 367 208 347 186 q 392 267 386 229 l 444 706 q 446 724 446 713 q 432 769 446 753 q 392 786 418 786 q 343 764 363 786 q 319 706 324 742 l 265 267 l 264 251 q 278 203 264 221 q 318 186 292 186 z "},"P":{"ha":638,"x_min":18,"x_max":675,"o":"m 444 972 q 613 903 550 972 q 675 719 675 835 q 672 668 675 686 q 576 456 656 536 q 382 376 496 376 l 294 376 q 286 369 289 376 l 243 17 q 237 5 242 10 q 225 0 232 0 l 33 0 q 22 5 26 0 q 19 17 18 10 l 135 956 q 141 967 136 963 q 153 972 146 972 l 444 972 m 354 554 q 422 590 396 554 q 449 689 449 625 q 431 753 449 731 q 381 775 413 775 l 343 775 q 336 768 336 775 l 310 561 q 315 554 310 554 l 354 554 z "},"Þ":{"ha":638,"x_min":18,"x_max":650,"o":"m 419 786 q 588 717 526 786 q 650 533 650 647 q 647 482 650 500 q 552 268 632 349 q 357 188 472 188 l 271 188 q 264 181 264 188 l 243 17 q 237 5 242 10 q 225 0 232 0 l 33 0 q 22 5 26 0 q 19 17 18 10 l 135 956 q 141 967 136 963 q 153 972 146 972 l 344 972 q 356 967 351 972 q 358 956 360 963 l 339 793 q 344 786 336 786 l 419 786 m 329 368 q 398 403 371 368 q 425 501 425 438 q 407 566 425 543 q 357 589 389 589 l 321 589 q 313 582 313 589 l 288 375 q 293 368 285 368 l 329 368 z "},"Q":{"ha":629,"x_min":42,"x_max":654,"o":"m 408 983 q 588 916 522 983 q 654 735 654 849 q 651 685 654 701 l 603 288 q 538 117 590 189 q 406 13 486 44 q 399 4 401 10 l 385 -111 q 378 -123 383 -118 q 367 -128 374 -128 l 175 -128 q 164 -123 168 -128 q 161 -111 160 -118 l 175 4 q 171 13 178 8 q 76 100 110 40 q 42 240 42 160 q 44 288 42 254 l 93 685 q 196 901 110 819 q 408 983 282 983 m 265 263 l 264 247 q 276 203 264 219 q 310 186 289 186 q 354 208 336 186 q 376 263 372 229 l 431 710 l 432 725 q 419 769 432 753 q 383 786 406 786 q 342 765 360 786 q 321 710 324 743 l 265 263 z "},"R":{"ha":649,"x_min":21,"x_max":676,"o":"m 388 0 q 371 14 372 0 l 325 382 q 318 388 324 388 l 299 388 q 290 381 293 388 l 246 17 q 240 5 244 10 q 228 0 235 0 l 36 0 q 25 5 29 0 q 22 17 21 10 l 138 956 q 144 967 139 963 q 156 972 149 972 l 446 972 q 615 904 553 972 q 676 722 676 836 q 674 671 676 689 q 628 531 664 593 q 539 432 593 469 q 535 428 536 431 q 535 424 533 426 l 600 19 l 600 17 q 585 0 600 0 l 388 0 m 346 775 q 338 768 340 775 l 314 571 q 319 564 314 564 l 357 564 q 425 598 399 564 q 451 692 451 632 q 433 753 451 732 q 383 775 415 775 l 346 775 z "},"Ŕ":{"ha":649,"x_min":21,"x_max":676,"o":"m 388 0 q 371 14 372 0 l 325 382 q 318 388 324 388 l 299 388 q 290 381 293 388 l 246 17 q 240 5 244 10 q 228 0 235 0 l 36 0 q 25 5 29 0 q 22 17 21 10 l 138 956 q 144 967 139 963 q 156 972 149 972 l 446 972 q 615 904 553 972 q 676 722 676 836 q 674 671 676 689 q 628 531 664 593 q 539 432 593 469 q 535 428 536 431 q 535 424 533 426 l 600 19 l 600 17 q 585 0 600 0 l 388 0 m 346 775 q 338 768 340 775 l 314 571 q 319 564 314 564 l 357 564 q 425 598 399 564 q 451 692 451 632 q 433 753 451 732 q 383 775 415 775 l 346 775 m 332 1057 q 318 1065 318 1057 q 322 1076 318 1071 l 418 1215 q 439 1226 425 1226 l 589 1226 q 601 1218 601 1226 q 596 1206 601 1211 l 474 1067 q 453 1057 465 1057 l 332 1057 z "},"Ř":{"ha":649,"x_min":21,"x_max":676,"o":"m 388 0 q 371 14 372 0 l 325 382 q 318 388 324 388 l 299 388 q 290 381 293 388 l 246 17 q 240 5 244 10 q 228 0 235 0 l 36 0 q 25 5 29 0 q 22 17 21 10 l 138 956 q 144 967 139 963 q 156 972 149 972 l 446 972 q 615 904 553 972 q 676 722 676 836 q 674 671 676 689 q 628 531 664 593 q 539 432 593 469 q 535 428 536 431 q 535 424 533 426 l 600 19 l 600 17 q 585 0 600 0 l 388 0 m 346 775 q 338 768 340 775 l 314 571 q 319 564 314 564 l 357 564 q 425 598 399 564 q 451 692 451 632 q 433 753 451 732 q 383 775 415 775 l 346 775 m 229 1207 q 228 1215 228 1210 q 243 1226 228 1226 l 383 1226 q 400 1214 396 1226 l 426 1143 q 435 1143 431 1138 l 478 1214 q 499 1226 486 1226 l 640 1226 q 653 1218 653 1226 q 649 1207 653 1214 l 542 1060 q 521 1049 535 1049 l 314 1049 q 296 1060 300 1049 l 229 1207 z "},"S":{"ha":613,"x_min":36,"x_max":644,"o":"m 282 -11 q 102 49 168 -11 q 36 210 36 110 q 39 247 36 222 l 43 290 q 50 302 44 297 q 63 307 56 307 l 250 307 q 265 290 265 307 l 261 258 l 260 244 q 273 202 260 218 q 307 186 286 186 q 352 208 333 186 q 371 264 371 229 q 349 315 371 290 q 267 390 328 340 q 174 472 208 438 q 113 558 139 507 q 88 674 88 608 q 128 835 88 764 q 239 944 168 906 q 399 983 310 983 q 578 920 511 983 q 644 751 644 857 q 642 711 644 739 l 638 678 q 631 666 636 671 q 618 661 625 661 l 432 661 q 417 678 417 661 l 422 717 q 412 767 425 747 q 374 786 399 786 q 328 763 347 786 q 310 703 310 739 q 331 647 310 674 q 410 572 353 619 q 516 476 481 513 q 573 397 551 439 q 594 300 594 354 q 592 261 594 289 q 491 63 576 136 q 282 -11 406 -11 z "},"Ś":{"ha":613,"x_min":36,"x_max":644,"o":"m 282 -11 q 102 49 168 -11 q 36 210 36 110 q 39 247 36 222 l 43 290 q 50 302 44 297 q 63 307 56 307 l 250 307 q 265 290 265 307 l 261 258 l 260 244 q 273 202 260 218 q 307 186 286 186 q 352 208 333 186 q 371 264 371 229 q 349 315 371 290 q 267 390 328 340 q 174 472 208 438 q 113 558 139 507 q 88 674 88 608 q 128 835 88 764 q 239 944 168 906 q 399 983 310 983 q 578 920 511 983 q 644 751 644 857 q 642 711 644 739 l 638 678 q 631 666 636 671 q 618 661 625 661 l 432 661 q 417 678 417 661 l 422 717 q 412 767 425 747 q 374 786 399 786 q 328 763 347 786 q 310 703 310 739 q 331 647 310 674 q 410 572 353 619 q 516 476 481 513 q 573 397 551 439 q 594 300 594 354 q 592 261 594 289 q 491 63 576 136 q 282 -11 406 -11 m 324 1057 q 310 1065 310 1057 q 314 1076 310 1071 l 410 1215 q 431 1226 417 1226 l 581 1226 q 593 1218 593 1226 q 588 1206 593 1211 l 465 1067 q 444 1057 457 1057 l 324 1057 z "},"Š":{"ha":613,"x_min":36,"x_max":646,"o":"m 282 -11 q 102 49 168 -11 q 36 210 36 110 q 39 247 36 222 l 43 290 q 50 302 44 297 q 63 307 56 307 l 250 307 q 265 290 265 307 l 261 258 l 260 244 q 273 202 260 218 q 307 186 286 186 q 352 208 333 186 q 371 264 371 229 q 349 315 371 290 q 267 390 328 340 q 174 472 208 438 q 113 558 139 507 q 88 674 88 608 q 128 835 88 764 q 239 944 168 906 q 399 983 310 983 q 578 920 511 983 q 644 751 644 857 q 642 711 644 739 l 638 678 q 631 666 636 671 q 618 661 625 661 l 432 661 q 417 678 417 661 l 422 717 q 412 767 425 747 q 374 786 399 786 q 328 763 347 786 q 310 703 310 739 q 331 647 310 674 q 410 572 353 619 q 516 476 481 513 q 573 397 551 439 q 594 300 594 354 q 592 261 594 289 q 491 63 576 136 q 282 -11 406 -11 m 222 1207 q 221 1215 221 1210 q 236 1226 221 1226 l 376 1226 q 393 1214 389 1226 l 419 1143 q 428 1143 424 1138 l 471 1214 q 492 1226 479 1226 l 633 1226 q 646 1218 646 1226 q 642 1207 646 1214 l 535 1060 q 514 1049 528 1049 l 307 1049 q 289 1060 293 1049 l 222 1207 z "},"Ş":{"ha":613,"x_min":36,"x_max":644,"o":"m 592 261 q 517 88 578 157 q 361 -3 456 18 q 356 -6 357 -3 q 357 -11 354 -8 q 392 -112 392 -60 q 381 -171 392 -140 q 250 -257 349 -257 q 181 -246 214 -257 q 171 -226 167 -242 l 189 -147 q 195 -137 190 -139 q 206 -135 200 -135 q 215 -135 213 -135 q 251 -107 242 -135 q 254 -90 254 -96 q 210 -6 254 -50 l 201 -1 q 80 74 124 18 q 36 211 36 131 q 39 247 36 222 l 43 290 q 50 302 44 297 q 63 307 56 307 l 250 307 q 265 290 265 307 l 261 258 l 260 244 q 273 202 260 218 q 307 186 286 186 q 352 208 333 186 q 371 264 371 229 q 349 315 371 290 q 267 390 328 340 q 174 472 208 438 q 113 558 139 507 q 88 674 88 608 q 128 835 88 764 q 239 944 168 906 q 399 983 310 983 q 578 920 511 983 q 644 751 644 857 q 642 711 644 739 l 638 678 q 631 666 636 671 q 618 661 625 661 l 432 661 q 417 678 417 661 l 422 717 q 412 767 425 747 q 374 786 399 786 q 328 763 347 786 q 310 703 310 739 q 331 647 310 674 q 410 572 353 619 q 516 476 481 513 q 573 397 551 439 q 594 300 594 354 q 592 261 594 289 z "},"Ŝ":{"ha":613,"x_min":36,"x_max":644,"o":"m 282 -11 q 102 49 168 -11 q 36 210 36 110 q 39 247 36 222 l 43 290 q 50 302 44 297 q 63 307 56 307 l 250 307 q 265 290 265 307 l 261 258 l 260 244 q 273 202 260 218 q 307 186 286 186 q 352 208 333 186 q 371 264 371 229 q 349 315 371 290 q 267 390 328 340 q 174 472 208 438 q 113 558 139 507 q 88 674 88 608 q 128 835 88 764 q 239 944 168 906 q 399 983 310 983 q 578 920 511 983 q 644 751 644 857 q 642 711 644 739 l 638 678 q 631 666 636 671 q 618 661 625 661 l 432 661 q 417 678 417 661 l 422 717 q 412 767 425 747 q 374 786 399 786 q 328 763 347 786 q 310 703 310 739 q 331 647 310 674 q 410 572 353 619 q 516 476 481 513 q 573 397 551 439 q 594 300 594 354 q 592 261 594 289 q 491 63 576 136 q 282 -11 406 -11 m 206 1049 q 193 1057 193 1049 q 197 1068 193 1063 l 300 1215 q 321 1226 307 1226 l 528 1226 q 546 1215 540 1226 l 617 1068 q 618 1061 618 1065 q 603 1049 618 1049 l 461 1049 q 444 1061 449 1049 l 418 1132 q 410 1132 414 1139 l 367 1061 q 346 1049 358 1049 l 206 1049 z "},"Ə":{"ha":742,"x_min":40,"x_max":764,"o":"m 463 983 q 685 913 606 983 q 764 717 764 842 q 761 667 764 683 l 717 301 q 656 137 706 208 q 524 25 606 65 q 340 -15 443 -15 q 119 58 199 -15 q 40 253 40 131 q 43 301 40 285 l 72 543 q 78 555 74 550 q 90 560 83 560 l 517 560 q 525 567 525 560 l 535 650 q 536 674 536 658 q 510 754 536 724 q 439 785 483 785 q 361 755 394 785 q 314 678 328 725 q 294 664 308 664 l 108 675 q 98 680 101 675 q 96 692 94 685 q 217 908 124 832 q 463 983 311 983 m 365 183 q 451 222 414 183 q 494 319 488 260 l 501 376 q 496 383 504 383 l 282 383 q 274 376 276 383 l 267 319 q 265 296 265 311 q 292 215 265 246 q 365 183 319 183 z "},"T":{"ha":653,"x_min":97,"x_max":717,"o":"m 701 972 q 713 967 708 972 q 715 956 717 963 l 696 792 q 690 780 694 785 q 678 775 685 775 l 510 775 q 503 768 503 775 l 410 17 q 404 5 410 10 q 392 0 399 0 l 201 0 q 186 17 186 0 l 279 768 q 274 775 279 775 l 113 775 q 101 780 106 775 q 99 792 97 785 l 118 956 q 125 967 119 963 q 138 972 131 972 l 701 972 z "},"Ŧ":{"ha":653,"x_min":97,"x_max":717,"o":"m 696 792 q 690 780 694 785 q 678 775 685 775 l 510 775 q 503 768 503 775 l 478 571 q 485 564 478 564 l 538 564 q 553 547 553 564 l 539 444 q 533 433 539 438 q 521 428 528 428 l 468 428 q 460 421 460 428 l 410 17 q 404 5 410 10 q 392 0 399 0 l 201 0 q 186 17 186 0 l 236 421 q 231 428 236 428 l 160 428 q 149 433 153 428 q 146 444 144 438 l 158 547 q 165 559 160 554 q 176 564 169 564 l 247 564 q 254 571 254 564 l 279 768 q 274 775 279 775 l 113 775 q 101 780 106 775 q 99 792 97 785 l 118 956 q 125 967 119 963 q 138 972 131 972 l 701 972 q 713 967 708 972 q 715 956 717 963 l 696 792 z "},"Ť":{"ha":653,"x_min":97,"x_max":717,"o":"m 701 972 q 713 967 708 972 q 715 956 717 963 l 696 792 q 690 780 694 785 q 678 775 685 775 l 510 775 q 503 768 503 775 l 410 17 q 404 5 410 10 q 392 0 399 0 l 201 0 q 186 17 186 0 l 279 768 q 274 775 279 775 l 113 775 q 101 780 106 775 q 99 792 97 785 l 118 956 q 125 967 119 963 q 138 972 131 972 l 701 972 z "},"U":{"ha":647,"x_min":49,"x_max":694,"o":"m 294 -11 q 115 56 181 -11 q 49 235 49 122 q 51 283 49 267 l 133 956 q 140 967 135 963 q 151 972 144 972 l 343 972 q 354 967 350 972 q 357 956 358 963 l 272 261 l 271 246 q 284 202 271 218 q 319 186 297 186 q 363 207 346 186 q 385 261 381 228 l 471 956 q 476 967 471 963 q 489 972 482 972 l 679 972 q 694 956 694 972 l 611 283 q 508 69 594 150 q 294 -11 421 -11 z "},"Ú":{"ha":647,"x_min":49,"x_max":694,"o":"m 294 -11 q 115 56 181 -11 q 49 235 49 122 q 51 283 49 267 l 133 956 q 140 967 135 963 q 151 972 144 972 l 343 972 q 354 967 350 972 q 357 956 358 963 l 272 261 l 271 246 q 284 202 271 218 q 319 186 297 186 q 363 207 346 186 q 385 261 381 228 l 471 956 q 476 967 471 963 q 489 972 482 972 l 679 972 q 694 956 694 972 l 611 283 q 508 69 594 150 q 294 -11 421 -11 m 344 1057 q 331 1065 331 1057 q 335 1076 331 1071 l 431 1215 q 451 1226 438 1226 l 601 1226 q 614 1218 614 1226 q 608 1206 614 1211 l 486 1067 q 465 1057 478 1057 l 344 1057 z "},"Ŭ":{"ha":647,"x_min":49,"x_max":694,"o":"m 294 -11 q 115 56 181 -11 q 49 235 49 122 q 51 283 49 267 l 133 956 q 140 967 135 963 q 151 972 144 972 l 343 972 q 354 967 350 972 q 357 956 358 963 l 272 261 l 271 246 q 284 202 271 218 q 319 186 297 186 q 363 207 346 186 q 385 261 381 228 l 471 956 q 476 967 471 963 q 489 972 482 972 l 679 972 q 694 956 694 972 l 611 283 q 508 69 594 150 q 294 -11 421 -11 m 424 1032 q 311 1074 351 1032 q 274 1185 271 1115 q 292 1201 275 1201 l 374 1201 q 389 1185 389 1201 q 401 1144 389 1160 q 436 1129 414 1129 q 474 1144 457 1129 q 497 1185 490 1160 q 517 1201 501 1201 l 599 1201 q 613 1185 615 1201 q 547 1074 597 1115 q 424 1032 496 1032 z "},"Û":{"ha":647,"x_min":49,"x_max":694,"o":"m 294 -11 q 115 56 181 -11 q 49 235 49 122 q 51 283 49 267 l 133 956 q 140 967 135 963 q 151 972 144 972 l 343 972 q 354 967 350 972 q 357 956 358 963 l 272 261 l 271 246 q 284 202 271 218 q 319 186 297 186 q 363 207 346 186 q 385 261 381 228 l 471 956 q 476 967 471 963 q 489 972 482 972 l 679 972 q 694 956 694 972 l 611 283 q 508 69 594 150 q 294 -11 421 -11 m 225 1049 q 213 1057 213 1049 q 217 1068 213 1063 l 319 1215 q 340 1226 326 1226 l 547 1226 q 565 1215 560 1226 l 636 1068 q 638 1061 638 1065 q 622 1049 638 1049 l 481 1049 q 464 1061 468 1049 l 438 1132 q 429 1132 433 1139 l 386 1061 q 365 1049 378 1049 l 225 1049 z "},"Ü":{"ha":647,"x_min":49,"x_max":694,"o":"m 294 -11 q 115 56 181 -11 q 49 235 49 122 q 51 283 49 267 l 133 956 q 140 967 135 963 q 151 972 144 972 l 343 972 q 354 967 350 972 q 357 956 358 963 l 272 261 l 271 246 q 284 202 271 218 q 319 186 297 186 q 363 207 346 186 q 385 261 381 228 l 471 956 q 476 967 471 963 q 489 972 482 972 l 679 972 q 694 956 694 972 l 611 283 q 508 69 594 150 q 294 -11 421 -11 z "},"Ụ":{"ha":647,"x_min":49,"x_max":694,"o":"m 294 -11 q 115 56 181 -11 q 49 235 49 122 q 51 283 49 267 l 133 956 q 140 967 135 963 q 151 972 144 972 l 343 972 q 354 967 350 972 q 357 956 358 963 l 272 261 l 271 246 q 284 202 271 218 q 319 186 297 186 q 363 207 346 186 q 385 261 381 228 l 471 956 q 476 967 471 963 q 489 972 482 972 l 679 972 q 694 956 694 972 l 611 283 q 508 69 594 150 q 294 -11 421 -11 m 254 -358 q 181 -331 208 -358 q 154 -260 154 -303 q 191 -164 154 -201 q 283 -126 228 -126 q 355 -153 328 -126 q 382 -226 382 -181 q 344 -319 382 -281 q 254 -358 307 -358 z "},"Ù":{"ha":647,"x_min":49,"x_max":694,"o":"m 294 -11 q 115 56 181 -11 q 49 235 49 122 q 51 283 49 267 l 133 956 q 140 967 135 963 q 151 972 144 972 l 343 972 q 354 967 350 972 q 357 956 358 963 l 272 261 l 271 246 q 284 202 271 218 q 319 186 297 186 q 363 207 346 186 q 385 261 381 228 l 471 956 q 476 967 471 963 q 489 972 482 972 l 679 972 q 694 956 694 972 l 611 283 q 508 69 594 150 q 294 -11 421 -11 m 499 1076 q 500 1069 500 1074 q 483 1057 500 1057 l 361 1057 q 342 1067 350 1057 l 254 1206 q 251 1214 251 1211 q 256 1223 251 1219 q 268 1226 261 1226 l 418 1226 q 436 1215 432 1226 l 499 1076 z "},"Ủ":{"ha":647,"x_min":49,"x_max":694,"o":"m 294 -11 q 115 56 181 -11 q 49 235 49 122 q 51 283 49 267 l 133 956 q 140 967 135 963 q 151 972 144 972 l 343 972 q 354 967 350 972 q 357 956 358 963 l 272 261 l 271 246 q 284 202 271 218 q 319 186 297 186 q 363 207 346 186 q 385 261 381 228 l 471 956 q 476 967 471 963 q 489 972 482 972 l 679 972 q 694 956 694 972 l 611 283 q 508 69 594 150 q 294 -11 421 -11 m 401 1031 q 393 1051 383 1035 q 444 1122 414 1092 q 466 1149 460 1139 q 475 1176 472 1158 l 475 1179 q 467 1197 475 1189 q 447 1204 458 1204 q 419 1196 432 1204 q 385 1164 406 1188 q 371 1157 378 1157 q 361 1161 367 1157 l 310 1203 q 303 1214 303 1210 q 308 1226 303 1221 q 380 1292 344 1272 q 465 1311 415 1311 q 558 1282 525 1311 q 592 1200 592 1253 q 576 1131 592 1157 q 528 1075 560 1106 q 486 1028 494 1042 q 464 1018 476 1017 l 401 1031 z "},"Ư":{"ha":647,"x_min":49,"x_max":817,"o":"m 801 1092 q 813 1088 808 1092 q 815 1075 817 1083 q 692 894 792 936 q 685 886 688 892 l 611 283 q 508 69 594 150 q 294 -11 421 -11 q 115 56 181 -11 q 49 235 49 122 q 51 283 49 267 l 133 956 q 140 967 135 963 q 151 972 144 972 l 343 972 q 354 967 350 972 q 357 956 358 963 l 272 261 l 271 246 q 284 202 271 218 q 319 186 297 186 q 363 207 346 186 q 385 261 381 228 l 471 956 q 476 967 471 963 q 489 972 482 972 l 610 972 q 665 994 639 972 q 700 1074 690 1015 q 718 1092 701 1092 l 801 1092 z "},"Ứ":{"ha":647,"x_min":49,"x_max":817,"o":"m 801 1092 q 813 1088 808 1092 q 815 1075 817 1083 q 692 894 792 936 q 685 886 688 892 l 611 283 q 508 69 594 150 q 294 -11 421 -11 q 115 56 181 -11 q 49 235 49 122 q 51 283 49 267 l 133 956 q 140 967 135 963 q 151 972 144 972 l 343 972 q 354 967 350 972 q 357 956 358 963 l 272 261 l 271 246 q 284 202 271 218 q 319 186 297 186 q 363 207 346 186 q 385 261 381 228 l 471 956 q 476 967 471 963 q 489 972 482 972 l 610 972 q 665 994 639 972 q 700 1074 690 1015 q 718 1092 701 1092 l 801 1092 m 344 1057 q 331 1065 331 1057 q 335 1076 331 1071 l 431 1215 q 451 1226 438 1226 l 601 1226 q 614 1218 614 1226 q 608 1206 614 1211 l 486 1067 q 465 1057 478 1057 l 344 1057 z "},"Ự":{"ha":647,"x_min":49,"x_max":817,"o":"m 801 1092 q 813 1088 808 1092 q 815 1075 817 1083 q 692 894 792 936 q 685 886 688 892 l 611 283 q 508 69 594 150 q 294 -11 421 -11 q 115 56 181 -11 q 49 235 49 122 q 51 283 49 267 l 133 956 q 140 967 135 963 q 151 972 144 972 l 343 972 q 354 967 350 972 q 357 956 358 963 l 272 261 l 271 246 q 284 202 271 218 q 319 186 297 186 q 363 207 346 186 q 385 261 381 228 l 471 956 q 476 967 471 963 q 489 972 482 972 l 610 972 q 665 994 639 972 q 700 1074 690 1015 q 718 1092 701 1092 l 801 1092 m 254 -358 q 181 -331 208 -358 q 154 -260 154 -303 q 191 -164 154 -201 q 283 -126 228 -126 q 355 -153 328 -126 q 382 -226 382 -181 q 344 -319 382 -281 q 254 -358 307 -358 z "},"Ừ":{"ha":647,"x_min":49,"x_max":817,"o":"m 801 1092 q 813 1088 808 1092 q 815 1075 817 1083 q 692 894 792 936 q 685 886 688 892 l 611 283 q 508 69 594 150 q 294 -11 421 -11 q 115 56 181 -11 q 49 235 49 122 q 51 283 49 267 l 133 956 q 140 967 135 963 q 151 972 144 972 l 343 972 q 354 967 350 972 q 357 956 358 963 l 272 261 l 271 246 q 284 202 271 218 q 319 186 297 186 q 363 207 346 186 q 385 261 381 228 l 471 956 q 476 967 471 963 q 489 972 482 972 l 610 972 q 665 994 639 972 q 700 1074 690 1015 q 718 1092 701 1092 l 801 1092 m 499 1076 q 500 1069 500 1074 q 483 1057 500 1057 l 361 1057 q 342 1067 350 1057 l 254 1206 q 251 1214 251 1211 q 256 1223 251 1219 q 268 1226 261 1226 l 418 1226 q 436 1215 432 1226 l 499 1076 z "},"Ử":{"ha":647,"x_min":49,"x_max":817,"o":"m 801 1092 q 813 1088 808 1092 q 815 1075 817 1083 q 692 894 792 936 q 685 886 688 892 l 611 283 q 508 69 594 150 q 294 -11 421 -11 q 115 56 181 -11 q 49 235 49 122 q 51 283 49 267 l 133 956 q 140 967 135 963 q 151 972 144 972 l 343 972 q 354 967 350 972 q 357 956 358 963 l 272 261 l 271 246 q 284 202 271 218 q 319 186 297 186 q 363 207 346 186 q 385 261 381 228 l 471 956 q 476 967 471 963 q 489 972 482 972 l 610 972 q 665 994 639 972 q 700 1074 690 1015 q 718 1092 701 1092 l 801 1092 m 401 1031 q 393 1051 383 1035 q 444 1122 414 1092 q 466 1149 460 1139 q 475 1176 472 1158 l 475 1179 q 467 1197 475 1189 q 447 1204 458 1204 q 419 1196 432 1204 q 385 1164 406 1188 q 371 1157 378 1157 q 361 1161 367 1157 l 310 1203 q 303 1214 303 1210 q 308 1226 303 1221 q 380 1292 344 1272 q 465 1311 415 1311 q 558 1282 525 1311 q 592 1200 592 1253 q 576 1131 592 1157 q 528 1075 560 1106 q 486 1028 494 1042 q 464 1018 476 1017 l 401 1031 z "},"Ữ":{"ha":647,"x_min":49,"x_max":817,"o":"m 801 1092 q 813 1088 808 1092 q 815 1075 817 1083 q 692 894 792 936 q 685 886 688 892 l 611 283 q 508 69 594 150 q 294 -11 421 -11 q 115 56 181 -11 q 49 235 49 122 q 51 283 49 267 l 133 956 q 140 967 135 963 q 151 972 144 972 l 343 972 q 354 967 350 972 q 357 956 358 963 l 272 261 l 271 246 q 284 202 271 218 q 319 186 297 186 q 363 207 346 186 q 385 261 381 228 l 471 956 q 476 967 471 963 q 489 972 482 972 l 610 972 q 665 994 639 972 q 700 1074 690 1015 q 718 1092 701 1092 l 801 1092 m 518 1057 q 447 1079 488 1057 q 428 1092 438 1085 q 411 1101 418 1099 q 394 1104 404 1104 q 347 1075 368 1104 q 335 1066 342 1068 q 324 1069 329 1064 l 261 1119 q 257 1142 251 1128 q 317 1221 279 1194 q 394 1247 354 1247 q 479 1215 435 1247 q 492 1206 483 1213 q 510 1195 501 1199 q 529 1192 519 1192 q 579 1217 558 1192 q 601 1224 589 1232 l 663 1175 q 668 1164 668 1169 q 660 1143 668 1156 q 593 1077 631 1097 q 518 1057 556 1057 z "},"Ű":{"ha":647,"x_min":49,"x_max":742,"o":"m 294 -11 q 115 56 181 -11 q 49 235 49 122 q 51 283 49 267 l 133 956 q 140 967 135 963 q 151 972 144 972 l 343 972 q 354 967 350 972 q 357 956 358 963 l 272 261 l 271 246 q 284 202 271 218 q 319 186 297 186 q 363 207 346 186 q 385 261 381 228 l 471 956 q 476 967 471 963 q 489 972 482 972 l 679 972 q 694 956 694 972 l 611 283 q 508 69 594 150 q 294 -11 421 -11 m 253 1057 q 240 1062 243 1057 q 243 1076 238 1067 l 321 1214 q 340 1226 326 1226 l 497 1226 q 510 1222 507 1226 q 507 1207 513 1217 l 419 1069 q 400 1057 413 1057 l 253 1057 m 482 1057 q 469 1063 472 1057 q 472 1076 467 1068 l 558 1214 q 581 1226 567 1226 l 726 1226 q 738 1222 735 1226 q 736 1207 742 1217 l 649 1069 q 628 1057 640 1057 l 482 1057 z "},"Ū":{"ha":647,"x_min":49,"x_max":694,"o":"m 294 -11 q 115 56 181 -11 q 49 235 49 122 q 51 283 49 267 l 133 956 q 140 967 135 963 q 151 972 144 972 l 343 972 q 354 967 350 972 q 357 956 358 963 l 272 261 l 271 246 q 284 202 271 218 q 319 186 297 186 q 363 207 346 186 q 385 261 381 228 l 471 956 q 476 967 471 963 q 489 972 482 972 l 679 972 q 694 956 694 972 l 611 283 q 508 69 594 150 q 294 -11 421 -11 m 283 1054 q 272 1059 276 1054 q 269 1071 268 1064 l 285 1193 q 291 1205 286 1200 q 303 1210 296 1210 l 575 1210 q 586 1205 582 1210 q 589 1193 590 1200 l 574 1071 q 567 1059 572 1064 q 556 1054 563 1054 l 283 1054 z "},"Ų":{"ha":647,"x_min":49,"x_max":694,"o":"m 471 956 q 476 967 471 963 q 489 972 482 972 l 679 972 q 694 956 694 972 l 611 283 q 534 97 597 172 q 375 -1 471 22 l 367 -6 q 318 -59 335 -33 q 303 -104 301 -85 q 331 -132 304 -132 l 340 -132 q 351 -134 347 -132 q 354 -144 354 -136 l 354 -224 q 339 -243 354 -239 q 265 -254 303 -254 q 188 -231 219 -254 q 156 -154 156 -208 q 218 -11 156 -78 q 217 -1 224 -4 q 93 81 138 19 q 49 235 49 143 q 51 283 49 250 l 133 956 q 140 967 135 963 q 151 972 144 972 l 343 972 q 354 967 350 972 q 357 956 358 963 l 272 261 l 271 246 q 284 202 271 218 q 319 186 297 186 q 363 207 346 186 q 385 261 381 228 l 471 956 z "},"Ů":{"ha":647,"x_min":49,"x_max":694,"o":"m 294 -11 q 115 56 181 -11 q 49 235 49 122 q 51 283 49 267 l 133 956 q 140 967 135 963 q 151 972 144 972 l 343 972 q 354 967 350 972 q 357 956 358 963 l 272 261 l 271 246 q 284 202 271 218 q 319 186 297 186 q 363 207 346 186 q 385 261 381 228 l 471 956 q 476 967 471 963 q 489 972 482 972 l 679 972 q 694 956 694 972 l 611 283 q 508 69 594 150 q 294 -11 421 -11 m 424 1028 q 313 1072 356 1028 q 269 1182 269 1115 q 297 1285 269 1238 q 369 1360 324 1332 q 468 1388 415 1388 q 578 1344 535 1388 q 621 1233 621 1300 q 594 1129 621 1176 q 522 1055 568 1082 q 424 1028 476 1028 m 438 1146 q 485 1167 464 1146 q 506 1218 506 1189 q 491 1257 506 1242 q 453 1272 476 1272 q 405 1251 425 1272 q 385 1200 385 1231 q 400 1161 385 1176 q 438 1146 415 1146 z "},"Ũ":{"ha":647,"x_min":49,"x_max":694,"o":"m 294 -11 q 115 56 181 -11 q 49 235 49 122 q 51 283 49 267 l 133 956 q 140 967 135 963 q 151 972 144 972 l 343 972 q 354 967 350 972 q 357 956 358 963 l 272 261 l 271 246 q 284 202 271 218 q 319 186 297 186 q 363 207 346 186 q 385 261 381 228 l 471 956 q 476 967 471 963 q 489 972 482 972 l 679 972 q 694 956 694 972 l 611 283 q 508 69 594 150 q 294 -11 421 -11 m 518 1057 q 447 1079 488 1057 q 428 1092 438 1085 q 411 1101 418 1099 q 394 1104 404 1104 q 347 1075 368 1104 q 335 1066 342 1068 q 324 1069 329 1064 l 261 1119 q 257 1142 251 1128 q 317 1221 279 1194 q 394 1247 354 1247 q 479 1215 435 1247 q 492 1206 483 1213 q 510 1195 501 1199 q 529 1192 519 1192 q 579 1217 558 1192 q 601 1224 589 1232 l 663 1175 q 668 1164 668 1169 q 660 1143 668 1156 q 593 1077 631 1097 q 518 1057 556 1057 z "},"V":{"ha":681,"x_min":115,"x_max":751,"o":"m 207 0 q 196 4 200 0 q 192 15 192 8 l 115 954 q 132 972 115 972 l 340 972 q 356 957 356 972 l 365 403 q 369 398 365 397 q 372 403 372 399 l 513 957 q 532 972 517 972 l 735 972 q 746 954 751 972 l 439 15 q 419 0 435 0 l 207 0 z "},"W":{"ha":951,"x_min":114,"x_max":1024,"o":"m 199 0 q 182 15 182 0 l 114 954 q 131 972 114 972 l 328 972 q 344 957 344 972 l 349 500 q 352 496 349 496 q 357 500 356 496 l 474 957 q 493 972 478 972 l 650 972 q 665 957 665 972 l 676 500 q 681 496 678 496 q 683 500 683 496 l 796 957 q 813 972 797 972 l 1007 972 q 1019 954 1024 972 l 731 15 q 711 0 726 0 l 539 0 q 524 15 524 0 l 514 490 q 510 494 514 494 q 506 490 507 494 l 389 15 q 371 0 385 0 l 199 0 z "},"Ẃ":{"ha":944,"x_min":114,"x_max":1024,"o":"m 199 0 q 182 15 182 0 l 114 954 q 131 972 114 972 l 328 972 q 344 957 344 972 l 349 500 q 352 496 349 496 q 357 500 356 496 l 474 957 q 493 972 478 972 l 650 972 q 665 957 665 972 l 676 500 q 681 496 678 496 q 683 500 683 496 l 796 957 q 813 972 797 972 l 1007 972 q 1019 954 1024 972 l 731 15 q 711 0 726 0 l 539 0 q 524 15 524 0 l 514 490 q 510 494 514 494 q 506 490 507 494 l 389 15 q 371 0 385 0 l 199 0 m 488 1057 q 474 1065 474 1057 q 478 1076 474 1071 l 574 1215 q 594 1226 581 1226 l 744 1226 q 757 1218 757 1226 q 751 1206 757 1211 l 629 1067 q 608 1057 621 1057 l 488 1057 z "},"Ŵ":{"ha":944,"x_min":114,"x_max":1024,"o":"m 199 0 q 182 15 182 0 l 114 954 q 131 972 114 972 l 328 972 q 344 957 344 972 l 349 500 q 352 496 349 496 q 357 500 356 496 l 474 957 q 493 972 478 972 l 650 972 q 665 957 665 972 l 676 500 q 681 496 678 496 q 683 500 683 496 l 796 957 q 813 972 797 972 l 1007 972 q 1019 954 1024 972 l 731 15 q 711 0 726 0 l 539 0 q 524 15 524 0 l 514 490 q 510 494 514 494 q 506 490 507 494 l 389 15 q 371 0 385 0 l 199 0 m 368 1049 q 356 1057 356 1049 q 360 1068 356 1063 l 463 1215 q 483 1226 469 1226 l 690 1226 q 708 1215 703 1226 l 779 1068 q 781 1061 781 1065 q 765 1049 781 1049 l 624 1049 q 607 1061 611 1049 l 581 1132 q 572 1132 576 1139 l 529 1061 q 508 1049 521 1049 l 368 1049 z "},"Ẅ":{"ha":944,"x_min":114,"x_max":1024,"o":"m 199 0 q 182 15 182 0 l 114 954 q 131 972 114 972 l 328 972 q 344 957 344 972 l 349 500 q 352 496 349 496 q 357 500 356 496 l 474 957 q 493 972 478 972 l 650 972 q 665 957 665 972 l 676 500 q 681 496 678 496 q 683 500 683 496 l 796 957 q 813 972 797 972 l 1007 972 q 1019 954 1024 972 l 731 15 q 711 0 726 0 l 539 0 q 524 15 524 0 l 514 490 q 510 494 514 494 q 506 490 507 494 l 389 15 q 371 0 385 0 l 199 0 z "},"Ẁ":{"ha":944,"x_min":114,"x_max":1024,"o":"m 199 0 q 182 15 182 0 l 114 954 q 131 972 114 972 l 328 972 q 344 957 344 972 l 349 500 q 352 496 349 496 q 357 500 356 496 l 474 957 q 493 972 478 972 l 650 972 q 665 957 665 972 l 676 500 q 681 496 678 496 q 683 500 683 496 l 796 957 q 813 972 797 972 l 1007 972 q 1019 954 1024 972 l 731 15 q 711 0 726 0 l 539 0 q 524 15 524 0 l 514 490 q 510 494 514 494 q 506 490 507 494 l 389 15 q 371 0 385 0 l 199 0 m 642 1076 q 643 1069 643 1074 q 626 1057 643 1057 l 504 1057 q 485 1067 493 1057 l 397 1206 q 394 1214 394 1211 q 399 1223 394 1219 q 411 1226 404 1226 l 561 1226 q 579 1215 575 1226 l 642 1076 z "},"X":{"ha":660,"x_min":1,"x_max":725,"o":"m 15 0 q 3 6 6 0 q 6 19 1 11 l 243 482 q 243 490 244 486 l 119 953 l 118 958 q 123 968 118 964 q 135 972 128 972 l 329 972 q 346 958 342 972 l 390 729 q 394 724 390 724 q 399 729 397 724 l 497 958 q 517 972 504 972 l 711 972 q 723 967 721 972 q 721 953 725 961 l 483 490 l 482 482 l 606 19 l 607 14 q 592 0 607 0 l 399 0 q 383 14 386 0 l 338 242 q 335 247 338 247 q 331 242 332 246 l 228 14 q 208 0 224 0 l 15 0 z "},"Y":{"ha":663,"x_min":118,"x_max":729,"o":"m 208 3 q 193 19 193 3 l 236 361 l 235 369 l 118 953 l 118 958 q 133 972 118 972 l 335 972 q 350 957 347 972 l 381 651 q 384 646 381 646 q 389 651 388 646 l 493 957 q 513 972 500 972 l 715 972 q 726 967 724 972 q 725 953 729 961 l 461 369 l 460 361 l 417 19 q 411 8 417 13 q 399 3 406 3 l 208 3 z "},"Ý":{"ha":663,"x_min":118,"x_max":729,"o":"m 208 3 q 193 19 193 3 l 236 361 l 235 369 l 118 953 l 118 958 q 133 972 118 972 l 335 972 q 350 957 347 972 l 381 651 q 384 646 381 646 q 389 651 388 646 l 493 957 q 513 972 500 972 l 715 972 q 726 967 724 972 q 725 953 729 961 l 461 369 l 460 361 l 417 19 q 411 8 417 13 q 399 3 406 3 l 208 3 m 351 1057 q 338 1065 338 1057 q 342 1076 338 1071 l 438 1215 q 458 1226 444 1226 l 608 1226 q 621 1218 621 1226 q 615 1206 621 1211 l 493 1067 q 472 1057 485 1057 l 351 1057 z "},"Ŷ":{"ha":663,"x_min":118,"x_max":729,"o":"m 208 3 q 193 19 193 3 l 236 361 l 235 369 l 118 953 l 118 958 q 133 972 118 972 l 335 972 q 350 957 347 972 l 381 651 q 384 646 381 646 q 389 651 388 646 l 493 957 q 513 972 500 972 l 715 972 q 726 967 724 972 q 725 953 729 961 l 461 369 l 460 361 l 417 19 q 411 8 417 13 q 399 3 406 3 l 208 3 m 232 1049 q 219 1057 219 1049 q 224 1068 219 1063 l 326 1215 q 347 1226 333 1226 l 554 1226 q 572 1215 567 1226 l 643 1068 q 644 1061 644 1065 q 629 1049 644 1049 l 488 1049 q 471 1061 475 1049 l 444 1132 q 436 1132 440 1139 l 393 1061 q 372 1049 385 1049 l 232 1049 z "},"Ÿ":{"ha":663,"x_min":118,"x_max":729,"o":"m 208 3 q 193 19 193 3 l 236 361 l 235 369 l 118 953 l 118 958 q 133 972 118 972 l 335 972 q 350 957 347 972 l 381 651 q 384 646 381 646 q 389 651 388 646 l 493 957 q 513 972 500 972 l 715 972 q 726 967 724 972 q 725 953 729 961 l 461 369 l 460 361 l 417 19 q 411 8 417 13 q 399 3 406 3 l 208 3 z "},"Ỵ":{"ha":663,"x_min":118,"x_max":729,"o":"m 208 3 q 193 19 193 3 l 236 361 l 235 369 l 118 953 l 118 958 q 133 972 118 972 l 335 972 q 350 957 347 972 l 381 651 q 384 646 381 646 q 389 651 388 646 l 493 957 q 513 972 500 972 l 715 972 q 726 967 724 972 q 725 953 729 961 l 461 369 l 460 361 l 417 19 q 411 8 417 13 q 399 3 406 3 l 208 3 m 261 -358 q 188 -331 215 -358 q 161 -260 161 -303 q 198 -164 161 -201 q 290 -126 235 -126 q 362 -153 335 -126 q 389 -226 389 -181 q 351 -319 389 -281 q 261 -358 314 -358 z "},"Ỳ":{"ha":663,"x_min":118,"x_max":729,"o":"m 208 3 q 193 19 193 3 l 236 361 l 235 369 l 118 953 l 118 958 q 133 972 118 972 l 335 972 q 350 957 347 972 l 381 651 q 384 646 381 646 q 389 651 388 646 l 493 957 q 513 972 500 972 l 715 972 q 726 967 724 972 q 725 953 729 961 l 461 369 l 460 361 l 417 19 q 411 8 417 13 q 399 3 406 3 l 208 3 m 507 1076 q 508 1069 508 1074 q 492 1057 508 1057 l 369 1057 q 350 1067 358 1057 l 263 1206 q 260 1214 260 1211 q 265 1223 260 1219 q 276 1226 269 1226 l 426 1226 q 444 1215 440 1226 l 507 1076 z "},"Ỷ":{"ha":663,"x_min":118,"x_max":729,"o":"m 208 3 q 193 19 193 3 l 236 361 l 235 369 l 118 953 l 118 958 q 133 972 118 972 l 335 972 q 350 957 347 972 l 381 651 q 384 646 381 646 q 389 651 388 646 l 493 957 q 513 972 500 972 l 715 972 q 726 967 724 972 q 725 953 729 961 l 461 369 l 460 361 l 417 19 q 411 8 417 13 q 399 3 406 3 l 208 3 m 408 1031 q 400 1051 390 1035 q 451 1122 421 1092 q 473 1149 467 1139 q 482 1176 479 1158 l 482 1179 q 474 1197 482 1189 q 454 1204 465 1204 q 426 1196 439 1204 q 392 1164 413 1188 q 378 1157 385 1157 q 368 1161 374 1157 l 317 1203 q 310 1214 310 1210 q 315 1226 310 1221 q 387 1292 351 1272 q 472 1311 422 1311 q 565 1282 532 1311 q 599 1200 599 1253 q 583 1131 599 1157 q 535 1075 567 1106 q 493 1028 501 1042 q 471 1018 483 1017 l 408 1031 z "},"Ỹ":{"ha":663,"x_min":118,"x_max":729,"o":"m 208 3 q 193 19 193 3 l 236 361 l 235 369 l 118 953 l 118 958 q 133 972 118 972 l 335 972 q 350 957 347 972 l 381 651 q 384 646 381 646 q 389 651 388 646 l 493 957 q 513 972 500 972 l 715 972 q 726 967 724 972 q 725 953 729 961 l 461 369 l 460 361 l 417 19 q 411 8 417 13 q 399 3 406 3 l 208 3 m 526 1057 q 456 1079 496 1057 q 436 1092 446 1085 q 419 1101 426 1099 q 403 1104 413 1104 q 356 1075 376 1104 q 344 1066 350 1068 q 332 1069 338 1064 l 269 1119 q 265 1142 260 1128 q 325 1221 288 1194 q 403 1247 363 1247 q 488 1215 443 1247 q 501 1206 492 1213 q 519 1195 510 1199 q 538 1192 528 1192 q 588 1217 567 1192 q 610 1224 597 1232 l 671 1175 q 676 1164 676 1169 q 668 1143 676 1156 q 601 1077 639 1097 q 526 1057 564 1057 z "},"Z":{"ha":564,"x_min":-4,"x_max":631,"o":"m 11 0 q 0 5 4 0 q -3 17 -4 10 l 18 186 q 21 198 18 192 q 25 207 24 204 l 367 767 q 367 773 368 771 q 363 775 365 775 l 106 775 q 94 780 99 775 q 92 792 90 785 l 113 956 q 118 967 113 963 q 131 972 124 972 l 615 972 q 626 967 622 972 q 629 956 631 963 l 608 786 q 600 765 607 776 l 257 206 q 261 197 253 197 l 519 197 q 535 181 535 197 l 514 17 q 508 5 513 10 q 496 0 503 0 l 11 0 z "},"Ź":{"ha":564,"x_min":-4,"x_max":631,"o":"m 11 0 q 0 5 4 0 q -3 17 -4 10 l 18 186 q 21 198 18 192 q 25 207 24 204 l 367 767 q 367 773 368 771 q 363 775 365 775 l 106 775 q 94 780 99 775 q 92 792 90 785 l 113 956 q 118 967 113 963 q 131 972 124 972 l 615 972 q 626 967 622 972 q 629 956 631 963 l 608 786 q 600 765 607 776 l 257 206 q 261 197 253 197 l 519 197 q 535 181 535 197 l 514 17 q 508 5 513 10 q 496 0 503 0 l 11 0 m 300 1057 q 286 1065 286 1057 q 290 1076 286 1071 l 386 1215 q 407 1226 393 1226 l 557 1226 q 569 1218 569 1226 q 564 1206 569 1211 l 442 1067 q 421 1057 433 1057 l 300 1057 z "},"Ž":{"ha":564,"x_min":-4,"x_max":631,"o":"m 11 0 q 0 5 4 0 q -3 17 -4 10 l 18 186 q 21 198 18 192 q 25 207 24 204 l 367 767 q 367 773 368 771 q 363 775 365 775 l 106 775 q 94 780 99 775 q 92 792 90 785 l 113 956 q 118 967 113 963 q 131 972 124 972 l 615 972 q 626 967 622 972 q 629 956 631 963 l 608 786 q 600 765 607 776 l 257 206 q 261 197 253 197 l 519 197 q 535 181 535 197 l 514 17 q 508 5 513 10 q 496 0 503 0 l 11 0 m 197 1207 q 196 1215 196 1210 q 211 1226 196 1226 l 351 1226 q 368 1214 364 1226 l 394 1143 q 403 1143 399 1138 l 446 1214 q 467 1226 454 1226 l 608 1226 q 621 1218 621 1226 q 617 1207 621 1214 l 510 1060 q 489 1049 503 1049 l 282 1049 q 264 1060 268 1049 l 197 1207 z "},"Ż":{"ha":564,"x_min":-4,"x_max":631,"o":"m 11 0 q 0 5 4 0 q -3 17 -4 10 l 18 186 q 21 198 18 192 q 25 207 24 204 l 367 767 q 367 773 368 771 q 363 775 365 775 l 106 775 q 94 780 99 775 q 92 792 90 785 l 113 956 q 118 967 113 963 q 131 972 124 972 l 615 972 q 626 967 622 972 q 629 956 631 963 l 608 786 q 600 765 607 776 l 257 206 q 261 197 253 197 l 519 197 q 535 181 535 197 l 514 17 q 508 5 513 10 q 496 0 503 0 l 11 0 m 381 1036 q 305 1065 333 1036 q 276 1140 276 1094 q 315 1239 276 1200 q 410 1278 354 1278 q 485 1250 457 1278 q 513 1175 513 1222 q 474 1076 513 1117 q 381 1036 435 1036 z "},"Ģ":{"ha":638,"x_min":39,"x_max":664,"o":"m 290 -11 q 106 51 174 -11 q 39 219 39 113 q 42 263 39 232 l 97 711 q 197 910 111 836 q 411 983 283 983 q 596 921 528 983 q 664 751 664 858 q 661 708 664 739 l 654 657 q 648 645 653 650 q 636 640 643 640 l 444 640 q 433 645 438 640 q 431 657 429 650 l 438 711 l 439 725 q 425 769 439 753 q 388 786 411 786 q 343 765 361 786 q 321 711 325 744 l 265 261 l 264 246 q 278 202 264 218 q 314 186 292 186 q 359 207 340 186 q 382 261 378 228 l 393 350 q 388 357 396 357 l 353 357 q 342 362 346 357 q 339 374 338 367 l 357 521 q 363 533 357 528 q 375 538 368 538 l 624 538 q 635 533 631 538 q 638 521 639 528 l 606 263 q 505 63 592 138 q 290 -11 418 -11 z "},"Ķ":{"ha":681,"x_min":21,"x_max":749,"o":"m 36 0 q 25 5 29 0 q 22 17 21 10 l 138 956 q 144 967 139 963 q 156 972 149 972 l 347 972 q 358 967 354 972 q 361 956 363 963 l 322 642 q 325 636 322 636 q 331 640 328 636 l 511 960 q 532 972 518 972 l 733 972 q 746 967 743 972 q 743 953 749 963 l 499 544 q 496 541 497 543 q 496 536 494 539 l 638 19 l 639 14 q 634 4 639 8 q 622 0 629 0 l 419 0 q 401 13 404 0 l 321 338 q 317 342 319 342 q 311 338 314 342 l 281 288 q 278 279 278 282 l 246 17 q 240 5 244 10 q 228 0 235 0 l 36 0 z "},"Ņ":{"ha":703,"x_min":21,"x_max":747,"o":"m 525 956 q 531 967 526 963 q 543 972 536 972 l 732 972 q 743 967 739 972 q 746 956 747 963 l 631 17 q 625 5 631 10 q 613 0 619 0 l 399 0 q 382 14 385 0 l 307 497 q 303 502 307 501 q 300 497 300 503 l 243 17 q 237 5 242 10 q 225 0 232 0 l 36 0 q 25 5 29 0 q 22 17 21 10 l 138 956 q 144 967 139 963 q 156 972 149 972 l 367 972 q 385 958 382 972 l 460 472 q 463 468 460 468 q 468 474 467 468 l 525 956 z "},"Ŗ":{"ha":649,"x_min":21,"x_max":676,"o":"m 388 0 q 371 14 372 0 l 325 382 q 318 388 324 388 l 299 388 q 290 381 293 388 l 246 17 q 240 5 244 10 q 228 0 235 0 l 36 0 q 25 5 29 0 q 22 17 21 10 l 138 956 q 144 967 139 963 q 156 972 149 972 l 446 972 q 615 904 553 972 q 676 722 676 836 q 674 671 676 689 q 628 531 664 593 q 539 432 593 469 q 535 428 536 431 q 535 424 533 426 l 600 19 l 600 17 q 585 0 600 0 l 388 0 m 346 775 q 338 768 340 775 l 314 571 q 319 564 314 564 l 357 564 q 425 598 399 564 q 451 692 451 632 q 433 753 451 732 q 383 775 415 775 l 346 775 z "},"Ţ":{"ha":653,"x_min":97,"x_max":717,"o":"m 701 972 q 713 967 708 972 q 715 956 717 963 l 696 792 q 690 780 694 785 q 678 775 685 775 l 510 775 q 503 768 503 775 l 410 17 q 404 5 410 10 q 392 0 399 0 l 201 0 q 186 17 186 0 l 279 768 q 274 775 279 775 l 113 775 q 101 780 106 775 q 99 792 97 785 l 118 956 q 125 967 119 963 q 138 972 131 972 l 701 972 m 249 -257 q 239 -236 238 -251 l 258 -158 q 279 -146 263 -143 q 321 -117 310 -149 q 324 -101 324 -106 q 282 -21 324 -65 q 276 -10 276 -15 q 292 0 276 0 l 397 0 q 417 -8 408 0 q 461 -124 461 -62 q 451 -181 461 -153 q 319 -268 418 -268 q 249 -257 282 -268 z "},"Ș":{"ha":613,"x_min":36,"x_max":644,"o":"m 282 -11 q 102 49 168 -11 q 36 210 36 110 q 39 247 36 222 l 43 290 q 50 302 44 297 q 63 307 56 307 l 250 307 q 265 290 265 307 l 261 258 l 260 244 q 273 202 260 218 q 307 186 286 186 q 352 208 333 186 q 371 264 371 229 q 349 315 371 290 q 267 390 328 340 q 174 472 208 438 q 113 558 139 507 q 88 674 88 608 q 128 835 88 764 q 239 944 168 906 q 399 983 310 983 q 578 920 511 983 q 644 751 644 857 q 642 711 644 739 l 638 678 q 631 666 636 671 q 618 661 625 661 l 432 661 q 417 678 417 661 l 422 717 q 412 767 425 747 q 374 786 399 786 q 328 763 347 786 q 310 703 310 739 q 331 647 310 674 q 410 572 353 619 q 516 476 481 513 q 573 397 551 439 q 594 300 594 354 q 592 261 594 289 q 491 63 576 136 q 282 -11 406 -11 z "},"Ț":{"ha":653,"x_min":60,"x_max":717,"o":"m 701 972 q 713 967 708 972 q 715 956 717 963 l 696 792 q 690 780 694 785 q 678 775 685 775 l 510 775 q 503 768 503 775 l 410 17 q 404 5 410 10 q 392 0 399 0 l 201 0 q 186 17 186 0 l 279 768 q 274 775 279 775 l 113 775 q 101 780 106 775 q 99 792 97 785 l 118 956 q 125 967 119 963 q 138 972 131 972 l 701 972 z "},"a":{"ha":610,"x_min":29,"x_max":632,"o":"m 407 701 q 413 713 408 708 q 425 718 418 718 l 617 718 q 628 713 624 718 q 631 701 632 708 l 546 17 q 540 5 544 10 q 528 0 535 0 l 336 0 q 325 5 329 0 q 322 17 321 10 l 328 53 q 325 58 328 58 q 319 54 322 58 q 189 -11 272 -11 q 29 168 29 -11 q 33 229 29 199 l 65 489 q 279 729 96 729 q 394 663 363 729 q 399 658 396 657 q 403 664 401 658 l 407 701 m 296 186 q 333 203 318 186 q 351 247 349 219 l 378 471 q 379 485 379 475 q 368 519 379 506 q 339 532 357 532 q 305 515 319 532 q 288 471 290 499 l 260 247 q 267 203 257 219 q 296 186 276 186 z "},"á":{"ha":615,"x_min":29,"x_max":632,"o":"m 407 701 q 413 713 408 708 q 425 718 418 718 l 617 718 q 628 713 624 718 q 631 701 632 708 l 546 17 q 540 5 544 10 q 528 0 535 0 l 336 0 q 325 5 329 0 q 322 17 321 10 l 328 53 q 325 58 328 58 q 319 54 322 58 q 189 -11 272 -11 q 29 168 29 -11 q 33 229 29 199 l 65 489 q 279 729 96 729 q 394 663 363 729 q 399 658 396 657 q 403 664 401 658 l 407 701 m 296 186 q 333 203 318 186 q 351 247 349 219 l 378 471 q 379 485 379 475 q 368 519 379 506 q 339 532 357 532 q 305 515 319 532 q 288 471 290 499 l 260 247 q 267 203 257 219 q 296 186 276 186 m 297 803 q 283 811 283 803 q 288 822 283 817 l 383 961 q 404 972 390 972 l 554 972 q 567 964 567 972 q 561 951 567 957 l 439 813 q 418 803 431 803 l 297 803 z "},"ă":{"ha":615,"x_min":29,"x_max":632,"o":"m 407 701 q 413 713 408 708 q 425 718 418 718 l 617 718 q 628 713 624 718 q 631 701 632 708 l 546 17 q 540 5 544 10 q 528 0 535 0 l 336 0 q 325 5 329 0 q 322 17 321 10 l 328 53 q 325 58 328 58 q 319 54 322 58 q 189 -11 272 -11 q 29 168 29 -11 q 33 229 29 199 l 65 489 q 279 729 96 729 q 394 663 363 729 q 399 658 396 657 q 403 664 401 658 l 407 701 m 296 186 q 333 203 318 186 q 351 247 349 219 l 378 471 q 379 485 379 475 q 368 519 379 506 q 339 532 357 532 q 305 515 319 532 q 288 471 290 499 l 260 247 q 267 203 257 219 q 296 186 276 186 m 375 758 q 262 800 303 758 q 224 911 221 842 q 242 928 226 928 l 324 928 q 339 911 339 928 q 353 871 340 886 q 386 856 365 856 q 424 871 407 856 q 447 911 440 886 q 467 928 451 928 l 549 928 q 563 911 565 928 q 497 800 549 842 q 375 758 446 758 z "},"ắ":{"ha":615,"x_min":29,"x_max":632,"o":"m 407 701 q 413 713 408 708 q 425 718 418 718 l 617 718 q 628 713 624 718 q 631 701 632 708 l 546 17 q 540 5 544 10 q 528 0 535 0 l 336 0 q 325 5 329 0 q 322 17 321 10 l 328 53 q 325 58 328 58 q 319 54 322 58 q 189 -11 272 -11 q 29 168 29 -11 q 33 229 29 199 l 65 489 q 279 729 96 729 q 394 663 363 729 q 399 658 396 657 q 403 664 401 658 l 407 701 m 296 186 q 333 203 318 186 q 351 247 349 219 l 378 471 q 379 485 379 475 q 368 519 379 506 q 339 532 357 532 q 305 515 319 532 q 288 471 290 499 l 260 247 q 267 203 257 219 q 296 186 276 186 z "},"ặ":{"ha":615,"x_min":29,"x_max":632,"o":"m 407 701 q 413 713 408 708 q 425 718 418 718 l 617 718 q 628 713 624 718 q 631 701 632 708 l 546 17 q 540 5 544 10 q 528 0 535 0 l 336 0 q 325 5 329 0 q 322 17 321 10 l 328 53 q 325 58 328 58 q 319 54 322 58 q 189 -11 272 -11 q 29 168 29 -11 q 33 229 29 199 l 65 489 q 279 729 96 729 q 394 663 363 729 q 399 658 396 657 q 403 664 401 658 l 407 701 m 296 186 q 333 203 318 186 q 351 247 349 219 l 378 471 q 379 485 379 475 q 368 519 379 506 q 339 532 357 532 q 305 515 319 532 q 288 471 290 499 l 260 247 q 267 203 257 219 q 296 186 276 186 m 238 -358 q 165 -331 192 -358 q 138 -260 138 -303 q 174 -164 138 -201 q 267 -126 211 -126 q 338 -153 311 -126 q 365 -226 365 -181 q 328 -319 365 -281 q 238 -358 290 -358 m 376 778 q 264 819 304 778 q 226 931 224 861 q 244 947 228 947 l 326 947 q 342 931 342 947 q 354 890 342 906 q 389 875 367 875 q 426 890 410 875 q 450 931 443 906 q 469 947 454 947 l 551 947 q 565 931 568 947 q 499 819 550 861 q 376 778 449 778 z "},"ằ":{"ha":615,"x_min":29,"x_max":632,"o":"m 407 701 q 413 713 408 708 q 425 718 418 718 l 617 718 q 628 713 624 718 q 631 701 632 708 l 546 17 q 540 5 544 10 q 528 0 535 0 l 336 0 q 325 5 329 0 q 322 17 321 10 l 328 53 q 325 58 328 58 q 319 54 322 58 q 189 -11 272 -11 q 29 168 29 -11 q 33 229 29 199 l 65 489 q 279 729 96 729 q 394 663 363 729 q 399 658 396 657 q 403 664 401 658 l 407 701 m 296 186 q 333 203 318 186 q 351 247 349 219 l 378 471 q 379 485 379 475 q 368 519 379 506 q 339 532 357 532 q 305 515 319 532 q 288 471 290 499 l 260 247 q 267 203 257 219 q 296 186 276 186 z "},"ẳ":{"ha":615,"x_min":29,"x_max":632,"o":"m 407 701 q 413 713 408 708 q 425 718 418 718 l 617 718 q 628 713 624 718 q 631 701 632 708 l 546 17 q 540 5 544 10 q 528 0 535 0 l 336 0 q 325 5 329 0 q 322 17 321 10 l 328 53 q 325 58 328 58 q 319 54 322 58 q 189 -11 272 -11 q 29 168 29 -11 q 33 229 29 199 l 65 489 q 279 729 96 729 q 394 663 363 729 q 399 658 396 657 q 403 664 401 658 l 407 701 m 296 186 q 333 203 318 186 q 351 247 349 219 l 378 471 q 379 485 379 475 q 368 519 379 506 q 339 532 357 532 q 305 515 319 532 q 288 471 290 499 l 260 247 q 267 203 257 219 q 296 186 276 186 m 386 990 q 378 1011 369 994 q 421 1069 393 1042 q 439 1092 433 1083 q 446 1115 444 1100 l 446 1119 q 439 1133 446 1128 q 422 1139 432 1139 q 399 1132 410 1139 q 371 1106 389 1125 q 349 1103 361 1093 l 307 1136 q 301 1147 301 1142 q 307 1160 301 1154 q 367 1213 338 1197 q 439 1229 397 1229 q 517 1204 489 1229 q 546 1135 546 1179 q 532 1076 546 1097 q 490 1028 518 1054 q 474 1011 485 1022 q 457 990 464 1000 q 435 981 447 979 l 386 990 m 376 778 q 264 819 304 778 q 226 931 224 861 q 244 947 228 947 l 326 947 q 342 931 342 947 q 354 890 342 906 q 389 875 367 875 q 426 890 410 875 q 450 931 443 906 q 469 947 454 947 l 551 947 q 565 931 567 947 q 499 819 550 861 q 376 778 447 778 z "},"ẵ":{"ha":615,"x_min":29,"x_max":644,"o":"m 407 701 q 413 713 408 708 q 425 718 418 718 l 617 718 q 628 713 624 718 q 631 701 632 708 l 546 17 q 540 5 544 10 q 528 0 535 0 l 336 0 q 325 5 329 0 q 322 17 321 10 l 328 53 q 325 58 328 58 q 319 54 322 58 q 189 -11 272 -11 q 29 168 29 -11 q 33 229 29 199 l 65 489 q 279 729 96 729 q 394 663 363 729 q 399 658 396 657 q 403 664 401 658 l 407 701 m 296 186 q 333 203 318 186 q 351 247 349 219 l 378 471 q 379 485 379 475 q 368 519 379 506 q 339 532 357 532 q 305 515 319 532 q 288 471 290 499 l 260 247 q 267 203 257 219 q 296 186 276 186 z "},"ǎ":{"ha":615,"x_min":29,"x_max":632,"o":"m 407 701 q 413 713 408 708 q 425 718 418 718 l 617 718 q 628 713 624 718 q 631 701 632 708 l 546 17 q 540 5 544 10 q 528 0 535 0 l 336 0 q 325 5 329 0 q 322 17 321 10 l 328 53 q 325 58 328 58 q 319 54 322 58 q 189 -11 272 -11 q 29 168 29 -11 q 33 229 29 199 l 65 489 q 279 729 96 729 q 394 663 363 729 q 399 658 396 657 q 403 664 401 658 l 407 701 m 296 186 q 333 203 318 186 q 351 247 349 219 l 378 471 q 379 485 379 475 q 368 519 379 506 q 339 532 357 532 q 305 515 319 532 q 288 471 290 499 l 260 247 q 267 203 257 219 q 296 186 276 186 z "},"â":{"ha":615,"x_min":29,"x_max":632,"o":"m 407 701 q 413 713 408 708 q 425 718 418 718 l 617 718 q 628 713 624 718 q 631 701 632 708 l 546 17 q 540 5 544 10 q 528 0 535 0 l 336 0 q 325 5 329 0 q 322 17 321 10 l 328 53 q 325 58 328 58 q 319 54 322 58 q 189 -11 272 -11 q 29 168 29 -11 q 33 229 29 199 l 65 489 q 279 729 96 729 q 394 663 363 729 q 399 658 396 657 q 403 664 401 658 l 407 701 m 296 186 q 333 203 318 186 q 351 247 349 219 l 378 471 q 379 485 379 475 q 368 519 379 506 q 339 532 357 532 q 305 515 319 532 q 288 471 290 499 l 260 247 q 267 203 257 219 q 296 186 276 186 m 178 794 q 165 803 165 794 q 169 814 165 808 l 272 961 q 293 972 279 972 l 500 972 q 518 961 513 972 l 589 814 q 590 807 590 811 q 575 794 590 794 l 433 794 q 417 807 421 794 l 390 878 q 382 878 386 885 l 339 807 q 318 794 331 794 l 178 794 z "},"ấ":{"ha":615,"x_min":29,"x_max":871,"o":"m 407 701 q 413 713 408 708 q 425 718 418 718 l 617 718 q 628 713 624 718 q 631 701 632 708 l 546 17 q 540 5 544 10 q 528 0 535 0 l 336 0 q 325 5 329 0 q 322 17 321 10 l 328 53 q 325 58 328 58 q 319 54 322 58 q 189 -11 272 -11 q 29 168 29 -11 q 33 229 29 199 l 65 489 q 279 729 96 729 q 394 663 363 729 q 399 658 396 657 q 403 664 401 658 l 407 701 m 296 186 q 333 203 318 186 q 351 247 349 219 l 378 471 q 379 485 379 475 q 368 519 379 506 q 339 532 357 532 q 305 515 319 532 q 288 471 290 499 l 260 247 q 267 203 257 219 q 296 186 276 186 z "},"ậ":{"ha":615,"x_min":29,"x_max":632,"o":"m 407 701 q 413 713 408 708 q 425 718 418 718 l 617 718 q 628 713 624 718 q 631 701 632 708 l 546 17 q 540 5 544 10 q 528 0 535 0 l 336 0 q 325 5 329 0 q 322 17 321 10 l 328 53 q 325 58 328 58 q 319 54 322 58 q 189 -11 272 -11 q 29 168 29 -11 q 33 229 29 199 l 65 489 q 279 729 96 729 q 394 663 363 729 q 399 658 396 657 q 403 664 401 658 l 407 701 m 296 186 q 333 203 318 186 q 351 247 349 219 l 378 471 q 379 485 379 475 q 368 519 379 506 q 339 532 357 532 q 305 515 319 532 q 288 471 290 499 l 260 247 q 267 203 257 219 q 296 186 276 186 m 238 -358 q 165 -331 192 -358 q 138 -260 138 -303 q 174 -164 138 -201 q 267 -126 211 -126 q 338 -153 311 -126 q 365 -226 365 -181 q 328 -319 365 -281 q 238 -358 290 -358 m 178 794 q 165 803 165 794 q 169 814 165 808 l 272 961 q 293 972 279 972 l 500 972 q 518 961 513 972 l 589 814 q 590 807 590 811 q 575 794 590 794 l 433 794 q 417 807 421 794 l 390 878 q 382 878 386 885 l 339 807 q 318 794 331 794 l 178 794 z "},"ầ":{"ha":615,"x_min":29,"x_max":707,"o":"m 407 701 q 413 713 408 708 q 425 718 418 718 l 617 718 q 628 713 624 718 q 631 701 632 708 l 546 17 q 540 5 544 10 q 528 0 535 0 l 336 0 q 325 5 329 0 q 322 17 321 10 l 328 53 q 325 58 328 58 q 319 54 322 58 q 189 -11 272 -11 q 29 168 29 -11 q 33 229 29 199 l 65 489 q 279 729 96 729 q 394 663 363 729 q 399 658 396 657 q 403 664 401 658 l 407 701 m 296 186 q 333 203 318 186 q 351 247 349 219 l 378 471 q 379 485 379 475 q 368 519 379 506 q 339 532 357 532 q 305 515 319 532 q 288 471 290 499 l 260 247 q 267 203 257 219 q 296 186 276 186 z "},"ẩ":{"ha":615,"x_min":29,"x_max":769,"o":"m 407 701 q 413 713 408 708 q 425 718 418 718 l 617 718 q 628 713 624 718 q 631 701 632 708 l 546 17 q 540 5 544 10 q 528 0 535 0 l 336 0 q 325 5 329 0 q 322 17 321 10 l 328 53 q 325 58 328 58 q 319 54 322 58 q 189 -11 272 -11 q 29 168 29 -11 q 33 229 29 199 l 65 489 q 279 729 96 729 q 394 663 363 729 q 399 658 396 657 q 403 664 401 658 l 407 701 m 296 186 q 333 203 318 186 q 351 247 349 219 l 378 471 q 379 485 379 475 q 368 519 379 506 q 339 532 357 532 q 305 515 319 532 q 288 471 290 499 l 260 247 q 267 203 257 219 q 296 186 276 186 m 594 943 q 586 964 576 949 q 633 1028 606 1003 q 653 1053 647 1043 q 661 1078 660 1063 l 661 1081 q 654 1097 661 1090 q 636 1104 647 1104 q 610 1097 622 1104 q 579 1068 599 1089 q 556 1064 568 1054 l 510 1103 q 504 1114 504 1108 q 510 1126 504 1121 q 576 1185 543 1168 q 654 1203 608 1203 q 739 1175 708 1203 q 769 1099 769 1147 q 754 1035 769 1060 q 708 983 739 1011 q 690 964 701 976 q 671 942 678 951 q 650 932 663 931 l 594 943 m 178 794 q 165 803 165 794 q 169 814 165 808 l 272 961 q 293 972 279 972 l 500 972 q 518 961 513 972 l 589 814 q 590 807 590 811 q 575 794 590 794 l 433 794 q 417 807 421 794 l 390 878 q 382 878 386 885 l 339 807 q 318 794 331 794 l 178 794 z "},"ẫ":{"ha":615,"x_min":29,"x_max":632,"o":"m 407 701 q 413 713 408 708 q 425 718 418 718 l 617 718 q 628 713 624 718 q 631 701 632 708 l 546 17 q 540 5 544 10 q 528 0 535 0 l 336 0 q 325 5 329 0 q 322 17 321 10 l 328 53 q 325 58 328 58 q 319 54 322 58 q 189 -11 272 -11 q 29 168 29 -11 q 33 229 29 199 l 65 489 q 279 729 96 729 q 394 663 363 729 q 399 658 396 657 q 403 664 401 658 l 407 701 m 296 186 q 333 203 318 186 q 351 247 349 219 l 378 471 q 379 485 379 475 q 368 519 379 506 q 339 532 357 532 q 305 515 319 532 q 288 471 290 499 l 260 247 q 267 203 257 219 q 296 186 276 186 z "},"ä":{"ha":615,"x_min":29,"x_max":642,"o":"m 407 701 q 413 713 408 708 q 425 718 418 718 l 617 718 q 628 713 624 718 q 631 701 632 708 l 546 17 q 540 5 544 10 q 528 0 535 0 l 336 0 q 325 5 329 0 q 322 17 321 10 l 328 53 q 325 58 328 58 q 319 54 322 58 q 189 -11 272 -11 q 29 168 29 -11 q 33 229 29 199 l 65 489 q 279 729 96 729 q 394 663 363 729 q 399 658 396 657 q 403 664 401 658 l 407 701 m 296 186 q 333 203 318 186 q 351 247 349 219 l 378 471 q 379 485 379 475 q 368 519 379 506 q 339 532 357 532 q 305 515 319 532 q 288 471 290 499 l 260 247 q 267 203 257 219 q 296 186 276 186 z "},"ạ":{"ha":615,"x_min":29,"x_max":632,"o":"m 407 701 q 413 713 408 708 q 425 718 418 718 l 617 718 q 628 713 624 718 q 631 701 632 708 l 546 17 q 540 5 544 10 q 528 0 535 0 l 336 0 q 325 5 329 0 q 322 17 321 10 l 328 53 q 325 58 328 58 q 319 54 322 58 q 189 -11 272 -11 q 29 168 29 -11 q 33 229 29 199 l 65 489 q 279 729 96 729 q 394 663 363 729 q 399 658 396 657 q 403 664 401 658 l 407 701 m 296 186 q 333 203 318 186 q 351 247 349 219 l 378 471 q 379 485 379 475 q 368 519 379 506 q 339 532 357 532 q 305 515 319 532 q 288 471 290 499 l 260 247 q 267 203 257 219 q 296 186 276 186 m 238 -358 q 165 -331 192 -358 q 138 -260 138 -303 q 174 -164 138 -201 q 267 -126 211 -126 q 338 -153 311 -126 q 365 -226 365 -181 q 328 -319 365 -281 q 238 -358 290 -358 z "},"à":{"ha":615,"x_min":29,"x_max":632,"o":"m 407 701 q 413 713 408 708 q 425 718 418 718 l 617 718 q 628 713 624 718 q 631 701 632 708 l 546 17 q 540 5 544 10 q 528 0 535 0 l 336 0 q 325 5 329 0 q 322 17 321 10 l 328 53 q 325 58 328 58 q 319 54 322 58 q 189 -11 272 -11 q 29 168 29 -11 q 33 229 29 199 l 65 489 q 279 729 96 729 q 394 663 363 729 q 399 658 396 657 q 403 664 401 658 l 407 701 m 296 186 q 333 203 318 186 q 351 247 349 219 l 378 471 q 379 485 379 475 q 368 519 379 506 q 339 532 357 532 q 305 515 319 532 q 288 471 290 499 l 260 247 q 267 203 257 219 q 296 186 276 186 m 451 822 q 453 815 453 819 q 436 803 453 803 l 314 803 q 294 813 303 803 l 207 951 q 204 960 204 957 q 209 969 204 965 q 221 972 214 972 l 371 972 q 389 961 385 972 l 451 822 z "},"ả":{"ha":615,"x_min":29,"x_max":632,"o":"m 407 701 q 413 713 408 708 q 425 718 418 718 l 617 718 q 628 713 624 718 q 631 701 632 708 l 546 17 q 540 5 544 10 q 528 0 535 0 l 336 0 q 325 5 329 0 q 322 17 321 10 l 328 53 q 325 58 328 58 q 319 54 322 58 q 189 -11 272 -11 q 29 168 29 -11 q 33 229 29 199 l 65 489 q 279 729 96 729 q 394 663 363 729 q 399 658 396 657 q 403 664 401 658 l 407 701 m 296 186 q 333 203 318 186 q 351 247 349 219 l 378 471 q 379 485 379 475 q 368 519 379 506 q 339 532 357 532 q 305 515 319 532 q 288 471 290 499 l 260 247 q 267 203 257 219 q 296 186 276 186 m 354 776 q 346 797 336 781 q 397 868 367 838 q 419 894 413 885 q 428 922 425 904 l 428 925 q 419 942 428 935 q 400 950 411 950 q 372 942 385 950 q 338 910 358 933 q 324 903 331 903 q 314 907 319 903 l 263 949 q 256 960 256 956 q 261 972 256 967 q 333 1038 297 1018 q 418 1057 368 1057 q 511 1028 478 1057 q 544 946 544 999 q 528 877 544 903 q 481 821 513 851 q 439 774 447 788 q 417 764 429 763 l 354 776 z "},"ā":{"ha":615,"x_min":29,"x_max":632,"o":"m 407 701 q 413 713 408 708 q 425 718 418 718 l 617 718 q 628 713 624 718 q 631 701 632 708 l 546 17 q 540 5 544 10 q 528 0 535 0 l 336 0 q 325 5 329 0 q 322 17 321 10 l 328 53 q 325 58 328 58 q 319 54 322 58 q 189 -11 272 -11 q 29 168 29 -11 q 33 229 29 199 l 65 489 q 279 729 96 729 q 394 663 363 729 q 399 658 396 657 q 403 664 401 658 l 407 701 m 296 186 q 333 203 318 186 q 351 247 349 219 l 378 471 q 379 485 379 475 q 368 519 379 506 q 339 532 357 532 q 305 515 319 532 q 288 471 290 499 l 260 247 q 267 203 257 219 q 296 186 276 186 m 238 800 q 226 805 231 800 q 224 817 222 810 l 239 939 q 245 951 240 946 q 257 956 250 956 l 529 956 q 540 951 536 956 q 543 939 544 946 l 528 817 q 522 805 526 810 q 510 800 517 800 l 238 800 z "},"ą":{"ha":614,"x_min":36,"x_max":639,"o":"m 553 13 q 540 -8 550 -1 q 464 -112 464 -69 q 499 -146 464 -149 l 503 -146 q 515 -158 515 -146 l 515 -236 q 501 -257 515 -251 q 429 -268 465 -268 q 349 -244 381 -268 q 317 -162 317 -221 q 394 -8 317 -83 q 397 -3 399 -6 q 392 0 396 0 l 343 0 q 332 5 336 0 q 329 17 328 10 l 333 53 q 332 58 335 58 q 326 54 329 58 q 196 -11 276 -11 q 36 169 36 -11 q 40 229 36 199 l 72 489 q 286 729 103 729 q 400 663 369 729 q 406 658 403 657 q 408 664 408 658 l 414 701 q 420 713 415 708 q 432 718 425 718 l 624 718 q 635 713 631 718 q 638 701 639 708 l 553 13 m 304 186 q 340 203 325 186 q 358 247 354 219 l 385 471 q 386 485 386 475 q 376 519 386 506 q 347 532 365 532 q 312 515 326 532 q 293 471 297 499 l 267 247 q 265 233 265 242 q 276 199 265 211 q 304 186 286 186 z "},"å":{"ha":615,"x_min":29,"x_max":632,"o":"m 407 701 q 413 713 408 708 q 425 718 418 718 l 617 718 q 628 713 624 718 q 631 701 632 708 l 546 17 q 540 5 544 10 q 528 0 535 0 l 336 0 q 325 5 329 0 q 322 17 321 10 l 328 53 q 325 58 328 58 q 319 54 322 58 q 189 -11 272 -11 q 29 168 29 -11 q 33 229 29 199 l 65 489 q 279 729 96 729 q 394 663 363 729 q 399 658 396 657 q 403 664 401 658 l 407 701 m 296 186 q 333 203 318 186 q 351 247 349 219 l 378 471 q 379 485 379 475 q 368 519 379 506 q 339 532 357 532 q 305 515 319 532 q 288 471 290 499 l 260 247 q 267 203 257 219 q 296 186 276 186 m 376 774 q 265 817 308 774 q 222 928 222 861 q 249 1031 222 983 q 322 1106 276 1078 q 421 1133 368 1133 q 531 1090 488 1133 q 574 979 574 1046 q 547 875 574 922 q 475 801 521 828 q 376 774 429 774 m 390 892 q 438 913 417 892 q 458 964 458 935 q 444 1003 458 988 q 406 1018 429 1018 q 358 997 378 1018 q 338 946 338 976 q 353 907 338 922 q 390 892 368 892 z "},"ã":{"ha":615,"x_min":29,"x_max":632,"o":"m 407 701 q 413 713 408 708 q 425 718 418 718 l 617 718 q 628 713 624 718 q 631 701 632 708 l 546 17 q 540 5 544 10 q 528 0 535 0 l 336 0 q 325 5 329 0 q 322 17 321 10 l 328 53 q 325 58 328 58 q 319 54 322 58 q 189 -11 272 -11 q 29 168 29 -11 q 33 229 29 199 l 65 489 q 279 729 96 729 q 394 663 363 729 q 399 658 396 657 q 403 664 401 658 l 407 701 m 296 186 q 333 203 318 186 q 351 247 349 219 l 378 471 q 379 485 379 475 q 368 519 379 506 q 339 532 357 532 q 305 515 319 532 q 288 471 290 499 l 260 247 q 267 203 257 219 q 296 186 276 186 m 472 803 q 401 825 442 803 q 382 838 392 831 q 365 847 372 844 q 349 850 358 850 q 301 821 322 850 q 290 812 296 814 q 278 815 283 810 l 215 865 q 211 888 206 874 q 271 967 233 940 q 349 993 308 993 q 433 961 389 993 q 447 951 438 958 q 465 941 456 944 q 483 938 474 938 q 533 963 513 938 q 556 969 543 978 l 617 921 q 622 910 622 915 q 614 889 622 901 q 547 823 585 843 q 472 803 510 803 z "},"æ":{"ha":940,"x_min":19,"x_max":947,"o":"m 211 -11 q 75 23 131 -11 q 19 161 19 57 q 22 208 19 192 q 72 342 33 296 q 169 405 110 389 q 319 421 229 421 l 378 421 q 385 428 385 421 l 390 469 q 381 515 393 497 q 346 532 369 532 q 313 522 328 532 q 290 493 297 511 q 272 478 288 478 l 79 482 q 65 499 64 482 q 167 667 85 606 q 363 729 250 729 q 451 715 414 729 q 521 671 488 700 q 531 671 525 667 q 714 729 607 729 q 885 673 822 729 q 947 522 947 617 q 946 489 947 500 l 922 297 q 915 285 921 290 q 903 281 910 281 l 610 281 q 603 274 603 281 l 599 247 q 607 206 596 222 q 639 189 618 189 q 669 200 656 189 q 689 228 682 211 q 699 238 694 235 q 710 240 703 242 l 894 228 q 905 223 901 228 q 907 210 908 218 q 816 46 886 103 q 633 -11 746 -11 q 510 12 560 -11 q 453 64 461 35 q 450 68 450 68 q 367 13 435 38 q 211 -11 299 -11 m 621 428 q 626 421 621 421 l 707 421 q 714 428 714 421 l 719 471 q 712 515 722 499 q 681 532 701 532 q 644 515 660 532 q 626 471 629 497 l 621 428 m 292 156 q 335 170 314 156 q 358 210 356 185 l 367 274 q 361 281 367 281 l 318 281 q 269 259 289 281 q 250 200 250 238 q 292 156 250 156 z "},"b":{"ha":610,"x_min":13,"x_max":615,"o":"m 456 729 q 615 550 615 729 q 611 489 615 522 l 579 229 q 365 -11 550 -11 q 250 47 288 -11 q 244 49 247 50 q 242 44 242 49 l 238 17 q 231 5 236 10 q 219 0 226 0 l 28 0 q 17 5 21 0 q 14 17 13 10 l 129 956 q 135 967 131 963 q 147 972 140 972 l 339 972 q 350 967 346 972 q 353 956 354 963 l 318 669 q 319 667 318 667 q 336 679 324 667 q 456 729 386 729 m 385 471 q 386 485 386 476 q 376 519 386 507 q 349 532 365 532 q 312 515 326 532 q 293 471 297 499 l 267 247 q 265 233 265 243 q 276 199 265 213 q 306 186 288 186 q 340 203 326 186 q 358 247 354 219 l 385 471 z "},"c":{"ha":600,"x_min":31,"x_max":608,"o":"m 275 -11 q 94 42 158 -11 q 31 192 31 96 q 33 229 31 204 l 65 489 q 159 663 79 597 q 365 729 239 729 q 544 674 481 729 q 608 528 608 619 q 606 493 608 518 l 603 463 q 597 451 601 456 q 585 446 592 446 l 392 438 q 378 454 376 438 l 381 475 q 372 515 383 499 q 342 532 361 532 q 306 515 321 532 q 288 471 290 497 l 260 247 q 267 203 257 219 q 299 186 278 186 q 334 203 319 186 q 351 244 349 219 l 354 265 q 360 277 356 272 q 372 282 365 282 l 564 281 q 575 276 571 281 q 578 264 579 271 l 574 226 q 481 52 560 115 q 275 -11 403 -11 z "},"ć":{"ha":600,"x_min":31,"x_max":608,"o":"m 275 -11 q 94 42 158 -11 q 31 192 31 96 q 33 229 31 204 l 65 489 q 159 663 79 597 q 365 729 239 729 q 544 674 481 729 q 608 528 608 619 q 606 493 608 518 l 603 463 q 597 451 601 456 q 585 446 592 446 l 392 438 q 378 454 376 438 l 381 475 q 372 515 383 499 q 342 532 361 532 q 306 515 321 532 q 288 471 290 497 l 260 247 q 267 203 257 219 q 299 186 278 186 q 334 203 319 186 q 351 244 349 219 l 354 265 q 360 277 356 272 q 372 282 365 282 l 564 281 q 575 276 571 281 q 578 264 579 271 l 574 226 q 481 52 560 115 q 275 -11 403 -11 m 292 803 q 278 811 278 803 q 282 822 278 817 l 378 961 q 399 972 385 972 l 549 972 q 561 964 561 972 q 556 951 561 957 l 433 813 q 413 803 425 803 l 292 803 z "},"č":{"ha":600,"x_min":31,"x_max":613,"o":"m 275 -11 q 94 42 158 -11 q 31 192 31 96 q 33 229 31 204 l 65 489 q 159 663 79 597 q 365 729 239 729 q 544 674 481 729 q 608 528 608 619 q 606 493 608 518 l 603 463 q 597 451 601 456 q 585 446 592 446 l 392 438 q 378 454 376 438 l 381 475 q 372 515 383 499 q 342 532 361 532 q 306 515 321 532 q 288 471 290 497 l 260 247 q 267 203 257 219 q 299 186 278 186 q 334 203 319 186 q 351 244 349 219 l 354 265 q 360 277 356 272 q 372 282 365 282 l 564 281 q 575 276 571 281 q 578 264 579 271 l 574 226 q 481 52 560 115 q 275 -11 403 -11 m 189 953 q 188 961 188 956 q 203 972 188 972 l 343 972 q 360 960 356 972 l 386 889 q 394 889 390 883 l 438 960 q 458 972 446 972 l 600 972 q 613 964 613 972 q 608 953 613 960 l 501 806 q 481 794 494 794 l 274 794 q 256 806 260 794 l 189 953 z "},"ç":{"ha":600,"x_min":31,"x_max":608,"o":"m 603 463 q 597 451 601 456 q 585 446 592 446 l 392 438 q 378 454 376 438 l 381 475 q 372 515 383 499 q 342 532 361 532 q 306 515 321 532 q 288 471 290 497 l 260 247 q 267 203 257 219 q 299 186 278 186 q 334 203 319 186 q 351 244 349 219 l 354 265 q 360 277 356 272 q 372 282 365 282 l 564 281 q 575 276 571 281 q 578 264 579 271 l 574 226 q 506 74 563 133 q 354 -4 449 14 q 350 -12 346 -7 q 383 -112 383 -57 q 374 -171 383 -143 q 243 -257 342 -257 q 172 -246 206 -257 q 163 -226 158 -242 l 183 -147 q 203 -135 185 -132 q 244 -107 231 -139 q 247 -90 247 -96 q 206 -7 247 -53 l 197 -3 q 74 63 117 13 q 31 192 31 113 q 33 229 31 204 l 65 489 q 159 663 79 597 q 365 729 239 729 q 544 674 481 729 q 608 528 608 619 q 606 493 608 518 l 603 463 z "},"ĉ":{"ha":600,"x_min":31,"x_max":608,"o":"m 275 -11 q 94 42 158 -11 q 31 192 31 96 q 33 229 31 204 l 65 489 q 159 663 79 597 q 365 729 239 729 q 544 674 481 729 q 608 528 608 619 q 606 493 608 518 l 603 463 q 597 451 601 456 q 585 446 592 446 l 392 438 q 378 454 376 438 l 381 475 q 372 515 383 499 q 342 532 361 532 q 306 515 321 532 q 288 471 290 497 l 260 247 q 267 203 257 219 q 299 186 278 186 q 334 203 319 186 q 351 244 349 219 l 354 265 q 360 277 356 272 q 372 282 365 282 l 564 281 q 575 276 571 281 q 578 264 579 271 l 574 226 q 481 52 560 115 q 275 -11 403 -11 m 172 794 q 160 803 160 794 q 164 814 160 808 l 267 961 q 288 972 274 972 l 494 972 q 513 961 507 972 l 583 814 q 585 807 585 811 q 569 794 585 794 l 428 794 q 411 807 415 794 l 385 878 q 376 878 381 885 l 333 807 q 313 794 325 794 l 172 794 z "},"ċ":{"ha":600,"x_min":31,"x_max":608,"o":"m 275 -11 q 94 42 158 -11 q 31 192 31 96 q 33 229 31 204 l 65 489 q 159 663 79 597 q 365 729 239 729 q 544 674 481 729 q 608 528 608 619 q 606 493 608 518 l 603 463 q 597 451 601 456 q 585 446 592 446 l 392 438 q 378 454 376 438 l 381 475 q 372 515 383 499 q 342 532 361 532 q 306 515 321 532 q 288 471 290 497 l 260 247 q 267 203 257 219 q 299 186 278 186 q 334 203 319 186 q 351 244 349 219 l 354 265 q 360 277 356 272 q 372 282 365 282 l 564 281 q 575 276 571 281 q 578 264 579 271 l 574 226 q 481 52 560 115 q 275 -11 403 -11 m 372 782 q 297 811 325 782 q 268 886 268 840 q 307 985 268 946 q 401 1024 346 1024 q 476 996 449 1024 q 504 921 504 968 q 465 822 504 863 q 372 782 426 782 z "},"d":{"ha":610,"x_min":29,"x_max":663,"o":"m 438 956 q 444 967 439 963 q 456 972 449 972 l 647 972 q 658 967 654 972 q 661 956 663 963 l 546 17 q 540 5 544 10 q 528 0 535 0 l 336 0 q 325 5 329 0 q 322 17 321 10 l 326 44 q 324 49 326 49 q 318 47 321 50 q 189 -11 268 -11 q 29 168 29 -11 q 33 229 29 199 l 65 489 q 279 729 96 729 q 394 668 358 729 q 400 665 397 664 q 403 669 403 665 l 438 956 m 296 186 q 333 203 318 186 q 351 247 349 219 l 378 471 q 379 485 379 475 q 368 519 379 506 q 339 532 357 532 q 305 515 319 532 q 288 471 290 499 l 260 247 q 267 203 257 219 q 296 186 276 186 z "},"ð":{"ha":614,"x_min":31,"x_max":651,"o":"m 651 832 q 636 814 651 819 l 568 797 q 563 789 561 794 q 610 532 610 664 q 604 440 610 483 l 578 229 q 485 52 564 115 q 276 -11 407 -11 q 95 42 160 -11 q 31 192 31 96 q 33 229 31 204 l 60 440 q 106 565 68 510 q 201 651 144 621 q 322 682 258 682 q 382 669 360 682 q 387 668 385 667 q 388 674 389 669 q 367 744 385 688 q 358 749 365 750 l 251 724 l 247 722 q 233 736 236 722 l 226 797 l 226 800 q 240 818 226 814 l 318 838 q 324 846 325 840 q 271 951 308 878 q 268 960 268 957 q 283 972 268 972 l 464 972 q 479 965 476 972 q 481 961 481 963 q 483 958 482 960 q 519 892 513 903 q 522 888 519 889 q 526 888 524 886 l 626 913 l 632 914 q 646 900 643 914 l 651 835 l 651 832 m 378 422 q 370 467 381 450 q 338 483 360 483 q 299 466 315 483 q 281 422 283 449 l 260 247 q 268 203 257 221 q 300 186 279 186 q 338 203 322 186 q 357 247 353 219 l 378 422 z "},"ď":{"ha":610,"x_min":29,"x_max":971,"o":"m 438 956 q 444 967 439 963 q 456 972 449 972 l 647 972 q 658 967 654 972 q 661 956 663 963 l 546 17 q 540 5 544 10 q 528 0 535 0 l 336 0 q 325 5 329 0 q 322 17 321 10 l 326 44 q 324 49 326 49 q 318 47 321 50 q 189 -11 268 -11 q 29 168 29 -11 q 33 229 29 199 l 65 489 q 279 729 96 729 q 394 668 358 729 q 400 665 397 664 q 403 669 403 665 l 438 956 m 296 186 q 333 203 318 186 q 351 247 349 219 l 378 471 q 379 485 379 475 q 368 519 379 506 q 339 532 357 532 q 305 515 319 532 q 288 471 290 499 l 260 247 q 267 203 257 219 q 296 186 276 186 z "},"đ":{"ha":610,"x_min":29,"x_max":704,"o":"m 689 901 q 700 897 696 901 q 703 885 704 892 l 690 782 q 684 770 689 775 q 672 765 679 765 l 644 765 q 638 758 638 765 l 546 17 q 540 5 544 10 q 528 0 535 0 l 336 0 q 325 5 329 0 q 322 17 321 10 l 326 44 q 324 49 326 49 q 318 47 321 50 q 189 -11 268 -11 q 29 168 29 -11 q 33 229 29 199 l 65 489 q 279 729 96 729 q 394 668 358 729 q 400 665 397 664 q 403 669 403 665 l 414 758 q 408 765 414 765 l 311 765 q 300 770 304 765 q 297 782 296 775 l 310 885 q 316 897 311 892 q 328 901 321 901 l 425 901 q 432 908 432 901 l 438 956 q 444 967 439 963 q 456 972 449 972 l 647 972 q 658 967 654 972 q 661 956 663 963 l 656 908 q 661 901 656 901 l 689 901 m 296 186 q 333 203 318 186 q 351 247 349 219 l 378 471 q 379 485 379 475 q 368 519 379 506 q 339 532 357 532 q 305 515 319 532 q 288 471 290 499 l 260 247 q 267 203 257 219 q 296 186 276 186 z "},"e":{"ha":601,"x_min":31,"x_max":608,"o":"m 583 313 q 578 301 583 306 q 565 296 572 296 l 272 296 q 264 289 267 296 l 260 247 q 267 203 257 219 q 299 186 278 186 q 353 235 333 186 q 372 250 357 250 l 556 239 q 567 234 563 239 q 569 221 571 229 q 476 47 549 104 q 275 -11 403 -11 q 94 42 158 -11 q 31 192 31 96 q 33 229 31 204 l 65 489 q 159 663 79 597 q 365 729 239 729 q 544 674 481 729 q 608 525 608 619 q 606 489 608 514 l 583 313 m 342 532 q 306 515 321 532 q 288 471 290 497 l 282 428 q 288 421 279 421 l 367 421 q 375 428 372 421 l 379 471 q 381 485 381 475 q 370 519 381 506 q 342 532 360 532 z "},"é":{"ha":601,"x_min":31,"x_max":608,"o":"m 583 313 q 578 301 583 306 q 565 296 572 296 l 272 296 q 264 289 267 296 l 260 247 q 267 203 257 219 q 299 186 278 186 q 353 235 333 186 q 372 250 357 250 l 556 239 q 567 234 563 239 q 569 221 571 229 q 476 47 549 104 q 275 -11 403 -11 q 94 42 158 -11 q 31 192 31 96 q 33 229 31 204 l 65 489 q 159 663 79 597 q 365 729 239 729 q 544 674 481 729 q 608 525 608 619 q 606 489 608 514 l 583 313 m 342 532 q 306 515 321 532 q 288 471 290 497 l 282 428 q 288 421 279 421 l 367 421 q 375 428 372 421 l 379 471 q 381 485 381 475 q 370 519 381 506 q 342 532 360 532 m 290 803 q 276 811 276 803 q 281 822 276 817 l 376 961 q 397 972 383 972 l 547 972 q 560 964 560 972 q 554 951 560 957 l 432 813 q 411 803 424 803 l 290 803 z "},"ě":{"ha":601,"x_min":31,"x_max":608,"o":"m 583 313 q 578 301 583 306 q 565 296 572 296 l 272 296 q 264 289 267 296 l 260 247 q 267 203 257 219 q 299 186 278 186 q 353 235 333 186 q 372 250 357 250 l 556 239 q 567 234 563 239 q 569 221 571 229 q 476 47 549 104 q 275 -11 403 -11 q 94 42 158 -11 q 31 192 31 96 q 33 229 31 204 l 65 489 q 159 663 79 597 q 365 729 239 729 q 544 674 481 729 q 608 525 608 619 q 606 489 608 514 l 583 313 m 342 532 q 306 515 321 532 q 288 471 290 497 l 282 428 q 288 421 279 421 l 367 421 q 375 428 372 421 l 379 471 q 381 485 381 475 q 370 519 381 506 q 342 532 360 532 z "},"ȩ":{"ha":601,"x_min":31,"x_max":608,"o":"m 583 313 q 578 301 583 306 q 565 296 572 296 l 272 296 q 264 289 267 296 l 260 247 q 267 203 257 219 q 299 186 278 186 q 353 235 333 186 q 372 250 357 250 l 556 239 q 567 234 563 239 q 569 221 571 229 q 363 -4 533 31 q 357 -12 353 -7 q 383 -101 383 -56 q 374 -160 383 -132 q 322 -226 357 -207 q 243 -246 286 -246 q 172 -235 206 -246 q 163 -215 158 -231 l 182 -136 q 188 -126 183 -128 q 199 -124 193 -124 q 207 -124 204 -124 q 243 -96 233 -124 q 246 -78 246 -85 q 214 -10 246 -49 q 207 -6 211 -7 q 76 60 121 10 q 31 192 31 111 q 33 229 31 204 l 65 489 q 159 663 79 597 q 365 729 239 729 q 544 674 481 729 q 608 525 608 619 q 606 489 608 514 l 583 313 m 342 532 q 306 515 321 532 q 288 471 290 497 l 282 428 q 288 421 279 421 l 367 421 q 375 428 372 421 l 379 471 q 381 485 381 475 q 370 519 381 506 q 342 532 360 532 z "},"ê":{"ha":601,"x_min":31,"x_max":608,"o":"m 583 313 q 578 301 583 306 q 565 296 572 296 l 272 296 q 264 289 267 296 l 260 247 q 267 203 257 219 q 299 186 278 186 q 353 235 333 186 q 372 250 357 250 l 556 239 q 567 234 563 239 q 569 221 571 229 q 476 47 549 104 q 275 -11 403 -11 q 94 42 158 -11 q 31 192 31 96 q 33 229 31 204 l 65 489 q 159 663 79 597 q 365 729 239 729 q 544 674 481 729 q 608 525 608 619 q 606 489 608 514 l 583 313 m 342 532 q 306 515 321 532 q 288 471 290 497 l 282 428 q 288 421 279 421 l 367 421 q 375 428 372 421 l 379 471 q 381 485 381 475 q 370 519 381 506 q 342 532 360 532 m 171 794 q 158 803 158 794 q 163 814 158 808 l 265 961 q 286 972 272 972 l 493 972 q 511 961 506 972 l 582 814 q 583 807 583 811 q 568 794 583 794 l 426 794 q 410 807 414 794 l 383 878 q 375 878 379 885 l 332 807 q 311 794 324 794 l 171 794 z "},"ế":{"ha":601,"x_min":31,"x_max":864,"o":"m 583 313 q 578 301 583 306 q 565 296 572 296 l 272 296 q 264 289 267 296 l 260 247 q 267 203 257 219 q 299 186 278 186 q 353 235 333 186 q 372 250 357 250 l 556 239 q 567 234 563 239 q 569 221 571 229 q 476 47 549 104 q 275 -11 403 -11 q 94 42 158 -11 q 31 192 31 96 q 33 229 31 204 l 65 489 q 159 663 79 597 q 365 729 239 729 q 544 674 481 729 q 608 525 608 619 q 606 489 608 514 l 583 313 m 342 532 q 306 515 321 532 q 288 471 290 497 l 282 428 q 288 421 279 421 l 367 421 q 375 428 372 421 l 379 471 q 381 485 381 475 q 370 519 381 506 q 342 532 360 532 z "},"ệ":{"ha":601,"x_min":31,"x_max":608,"o":"m 583 313 q 578 301 583 306 q 565 296 572 296 l 272 296 q 264 289 267 296 l 260 247 q 267 203 257 219 q 299 186 278 186 q 353 235 333 186 q 372 250 357 250 l 556 239 q 567 234 563 239 q 569 221 571 229 q 476 47 549 104 q 275 -11 403 -11 q 94 42 158 -11 q 31 192 31 96 q 33 229 31 204 l 65 489 q 159 663 79 597 q 365 729 239 729 q 544 674 481 729 q 608 525 608 619 q 606 489 608 514 l 583 313 m 342 532 q 306 515 321 532 q 288 471 290 497 l 282 428 q 288 421 279 421 l 367 421 q 375 428 372 421 l 379 471 q 381 485 381 475 q 370 519 381 506 q 342 532 360 532 m 231 -358 q 158 -331 185 -358 q 131 -260 131 -303 q 167 -164 131 -201 q 260 -126 204 -126 q 331 -153 304 -126 q 358 -226 358 -181 q 321 -319 358 -281 q 231 -358 283 -358 m 171 794 q 158 803 158 794 q 163 814 158 808 l 265 961 q 286 972 272 972 l 493 972 q 511 961 506 972 l 582 814 q 583 807 583 811 q 568 794 583 794 l 426 794 q 410 807 414 794 l 383 878 q 375 878 379 885 l 332 807 q 311 794 324 794 l 171 794 z "},"ề":{"ha":601,"x_min":31,"x_max":700,"o":"m 583 313 q 578 301 583 306 q 565 296 572 296 l 272 296 q 264 289 267 296 l 260 247 q 267 203 257 219 q 299 186 278 186 q 353 235 333 186 q 372 250 357 250 l 556 239 q 567 234 563 239 q 569 221 571 229 q 476 47 549 104 q 275 -11 403 -11 q 94 42 158 -11 q 31 192 31 96 q 33 229 31 204 l 65 489 q 159 663 79 597 q 365 729 239 729 q 544 674 481 729 q 608 525 608 619 q 606 489 608 514 l 583 313 m 342 532 q 306 515 321 532 q 288 471 290 497 l 282 428 q 288 421 279 421 l 367 421 q 375 428 372 421 l 379 471 q 381 485 381 475 q 370 519 381 506 q 342 532 360 532 z "},"ể":{"ha":601,"x_min":31,"x_max":763,"o":"m 583 313 q 578 301 583 306 q 565 296 572 296 l 272 296 q 264 289 267 296 l 260 247 q 267 203 257 219 q 299 186 278 186 q 353 235 333 186 q 372 250 357 250 l 556 239 q 567 234 563 239 q 569 221 571 229 q 476 47 549 104 q 275 -11 403 -11 q 94 42 158 -11 q 31 192 31 96 q 33 229 31 204 l 65 489 q 159 663 79 597 q 365 729 239 729 q 544 674 481 729 q 608 525 608 619 q 606 489 608 514 l 583 313 m 342 532 q 306 515 321 532 q 288 471 290 497 l 282 428 q 288 421 279 421 l 367 421 q 375 428 372 421 l 379 471 q 381 485 381 475 q 370 519 381 506 q 342 532 360 532 m 588 943 q 579 964 569 949 q 626 1028 599 1003 q 647 1053 640 1043 q 654 1078 653 1063 l 654 1081 q 647 1097 654 1090 q 629 1104 640 1104 q 603 1097 615 1104 q 572 1068 592 1089 q 549 1064 561 1054 l 503 1103 q 497 1114 497 1108 q 503 1126 497 1121 q 569 1185 536 1168 q 647 1203 601 1203 q 732 1175 701 1203 q 763 1099 763 1147 q 747 1035 763 1060 q 701 983 732 1011 q 683 964 694 976 q 664 942 671 951 q 643 932 656 931 l 588 943 m 171 794 q 158 803 158 794 q 163 814 158 808 l 265 961 q 286 972 272 972 l 493 972 q 511 961 506 972 l 582 814 q 583 807 583 811 q 568 794 583 794 l 426 794 q 410 807 414 794 l 383 878 q 375 878 379 885 l 332 807 q 311 794 324 794 l 171 794 z "},"ễ":{"ha":601,"x_min":31,"x_max":613,"o":"m 583 313 q 578 301 583 306 q 565 296 572 296 l 272 296 q 264 289 267 296 l 260 247 q 267 203 257 219 q 299 186 278 186 q 353 235 333 186 q 372 250 357 250 l 556 239 q 567 234 563 239 q 569 221 571 229 q 476 47 549 104 q 275 -11 403 -11 q 94 42 158 -11 q 31 192 31 96 q 33 229 31 204 l 65 489 q 159 663 79 597 q 365 729 239 729 q 544 674 481 729 q 608 525 608 619 q 606 489 608 514 l 583 313 m 342 532 q 306 515 321 532 q 288 471 290 497 l 282 428 q 288 421 279 421 l 367 421 q 375 428 372 421 l 379 471 q 381 485 381 475 q 370 519 381 506 q 342 532 360 532 z "},"ë":{"ha":601,"x_min":31,"x_max":635,"o":"m 583 313 q 578 301 583 306 q 565 296 572 296 l 272 296 q 264 289 267 296 l 260 247 q 267 203 257 219 q 299 186 278 186 q 353 235 333 186 q 372 250 357 250 l 556 239 q 567 234 563 239 q 569 221 571 229 q 476 47 549 104 q 275 -11 403 -11 q 94 42 158 -11 q 31 192 31 96 q 33 229 31 204 l 65 489 q 159 663 79 597 q 365 729 239 729 q 544 674 481 729 q 608 525 608 619 q 606 489 608 514 l 583 313 m 342 532 q 306 515 321 532 q 288 471 290 497 l 282 428 q 288 421 279 421 l 367 421 q 375 428 372 421 l 379 471 q 381 485 381 475 q 370 519 381 506 q 342 532 360 532 z "},"ė":{"ha":601,"x_min":31,"x_max":608,"o":"m 583 313 q 578 301 583 306 q 565 296 572 296 l 272 296 q 264 289 267 296 l 260 247 q 267 203 257 219 q 299 186 278 186 q 353 235 333 186 q 372 250 357 250 l 556 239 q 567 234 563 239 q 569 221 571 229 q 476 47 549 104 q 275 -11 403 -11 q 94 42 158 -11 q 31 192 31 96 q 33 229 31 204 l 65 489 q 159 663 79 597 q 365 729 239 729 q 544 674 481 729 q 608 525 608 619 q 606 489 608 514 l 583 313 m 342 532 q 306 515 321 532 q 288 471 290 497 l 282 428 q 288 421 279 421 l 367 421 q 375 428 372 421 l 379 471 q 381 485 381 475 q 370 519 381 506 q 342 532 360 532 m 371 782 q 295 811 324 782 q 267 886 267 840 q 306 985 267 946 q 400 1024 344 1024 q 475 996 447 1024 q 503 921 503 968 q 464 822 503 863 q 371 782 425 782 z "},"ẹ":{"ha":601,"x_min":31,"x_max":608,"o":"m 583 313 q 578 301 583 306 q 565 296 572 296 l 272 296 q 264 289 267 296 l 260 247 q 267 203 257 219 q 299 186 278 186 q 353 235 333 186 q 372 250 357 250 l 556 239 q 567 234 563 239 q 569 221 571 229 q 476 47 549 104 q 275 -11 403 -11 q 94 42 158 -11 q 31 192 31 96 q 33 229 31 204 l 65 489 q 159 663 79 597 q 365 729 239 729 q 544 674 481 729 q 608 525 608 619 q 606 489 608 514 l 583 313 m 342 532 q 306 515 321 532 q 288 471 290 497 l 282 428 q 288 421 279 421 l 367 421 q 375 428 372 421 l 379 471 q 381 485 381 475 q 370 519 381 506 q 342 532 360 532 m 231 -358 q 158 -331 185 -358 q 131 -260 131 -303 q 167 -164 131 -201 q 260 -126 204 -126 q 331 -153 304 -126 q 358 -226 358 -181 q 321 -319 358 -281 q 231 -358 283 -358 z "},"è":{"ha":601,"x_min":31,"x_max":608,"o":"m 583 313 q 578 301 583 306 q 565 296 572 296 l 272 296 q 264 289 267 296 l 260 247 q 267 203 257 219 q 299 186 278 186 q 353 235 333 186 q 372 250 357 250 l 556 239 q 567 234 563 239 q 569 221 571 229 q 476 47 549 104 q 275 -11 403 -11 q 94 42 158 -11 q 31 192 31 96 q 33 229 31 204 l 65 489 q 159 663 79 597 q 365 729 239 729 q 544 674 481 729 q 608 525 608 619 q 606 489 608 514 l 583 313 m 342 532 q 306 515 321 532 q 288 471 290 497 l 282 428 q 288 421 279 421 l 367 421 q 375 428 372 421 l 379 471 q 381 485 381 475 q 370 519 381 506 q 342 532 360 532 m 444 822 q 446 815 446 819 q 429 803 446 803 l 307 803 q 288 813 296 803 l 200 951 q 197 960 197 957 q 202 969 197 965 q 214 972 207 972 l 364 972 q 382 961 378 972 l 444 822 z "},"ẻ":{"ha":601,"x_min":31,"x_max":608,"o":"m 583 313 q 578 301 583 306 q 565 296 572 296 l 272 296 q 264 289 267 296 l 260 247 q 267 203 257 219 q 299 186 278 186 q 353 235 333 186 q 372 250 357 250 l 556 239 q 567 234 563 239 q 569 221 571 229 q 476 47 549 104 q 275 -11 403 -11 q 94 42 158 -11 q 31 192 31 96 q 33 229 31 204 l 65 489 q 159 663 79 597 q 365 729 239 729 q 544 674 481 729 q 608 525 608 619 q 606 489 608 514 l 583 313 m 342 532 q 306 515 321 532 q 288 471 290 497 l 282 428 q 288 421 279 421 l 367 421 q 375 428 372 421 l 379 471 q 381 485 381 475 q 370 519 381 506 q 342 532 360 532 m 347 776 q 339 797 329 781 q 390 868 360 838 q 412 894 406 885 q 421 922 418 904 l 421 925 q 413 942 421 935 q 393 950 404 950 q 365 942 378 950 q 331 910 351 933 q 317 903 324 903 q 307 907 313 903 l 256 949 q 249 960 249 956 q 254 972 249 967 q 326 1038 290 1018 q 411 1057 361 1057 q 504 1028 471 1057 q 538 946 538 999 q 522 877 538 903 q 474 821 506 851 q 432 774 440 788 q 410 764 422 763 l 347 776 z "},"ē":{"ha":601,"x_min":31,"x_max":608,"o":"m 583 313 q 578 301 583 306 q 565 296 572 296 l 272 296 q 264 289 267 296 l 260 247 q 267 203 257 219 q 299 186 278 186 q 353 235 333 186 q 372 250 357 250 l 556 239 q 567 234 563 239 q 569 221 571 229 q 476 47 549 104 q 275 -11 403 -11 q 94 42 158 -11 q 31 192 31 96 q 33 229 31 204 l 65 489 q 159 663 79 597 q 365 729 239 729 q 544 674 481 729 q 608 525 608 619 q 606 489 608 514 l 583 313 m 342 532 q 306 515 321 532 q 288 471 290 497 l 282 428 q 288 421 279 421 l 367 421 q 375 428 372 421 l 379 471 q 381 485 381 475 q 370 519 381 506 q 342 532 360 532 m 232 811 q 221 816 225 811 q 218 828 217 821 l 232 949 q 239 960 233 956 q 251 965 244 965 l 524 965 q 535 960 531 965 q 538 949 539 956 l 522 828 q 516 816 521 821 q 504 811 511 811 l 232 811 z "},"ę":{"ha":601,"x_min":31,"x_max":608,"o":"m 583 313 q 578 301 583 306 q 565 296 572 296 l 272 296 q 264 289 267 296 l 260 247 q 267 203 257 219 q 299 186 278 186 q 353 235 333 186 q 372 250 357 250 l 556 239 q 567 234 563 239 q 569 221 571 229 q 496 64 550 121 q 347 -7 442 7 q 339 -10 344 -7 q 279 -104 276 -62 q 307 -132 283 -132 l 318 -132 q 328 -134 325 -132 q 331 -144 332 -136 l 331 -224 q 317 -243 331 -239 q 243 -254 281 -254 q 164 -231 196 -254 q 132 -150 132 -207 q 194 -11 132 -78 q 193 -3 200 -6 q 73 64 115 14 q 31 192 31 114 q 33 229 31 204 l 65 489 q 159 663 79 597 q 365 729 239 729 q 544 674 481 729 q 608 525 608 619 q 606 489 608 514 l 583 313 m 342 532 q 306 515 321 532 q 288 471 290 497 l 282 428 q 288 421 279 421 l 367 421 q 375 428 372 421 l 379 471 q 381 485 381 475 q 370 519 381 506 q 342 532 360 532 z "},"ẽ":{"ha":601,"x_min":31,"x_max":614,"o":"m 583 313 q 578 301 583 306 q 565 296 572 296 l 272 296 q 264 289 267 296 l 260 247 q 267 203 257 219 q 299 186 278 186 q 353 235 333 186 q 372 250 357 250 l 556 239 q 567 234 563 239 q 569 221 571 229 q 476 47 549 104 q 275 -11 403 -11 q 94 42 158 -11 q 31 192 31 96 q 33 229 31 204 l 65 489 q 159 663 79 597 q 365 729 239 729 q 544 674 481 729 q 608 525 608 619 q 606 489 608 514 l 583 313 m 342 532 q 306 515 321 532 q 288 471 290 497 l 282 428 q 288 421 279 421 l 367 421 q 375 428 372 421 l 379 471 q 381 485 381 475 q 370 519 381 506 q 342 532 360 532 m 464 803 q 393 825 433 803 q 374 838 383 831 q 357 847 364 844 q 340 850 350 850 q 293 821 314 850 q 281 812 288 814 q 269 815 275 810 l 207 865 q 203 888 197 874 q 263 967 225 940 q 340 993 300 993 q 425 961 381 993 q 438 951 429 958 q 456 941 447 944 q 475 938 465 938 q 525 963 504 938 q 547 969 535 978 l 608 921 q 614 910 614 915 q 606 889 614 901 q 539 823 576 843 q 464 803 501 803 z "},"ə":{"ha":601,"x_min":28,"x_max":604,"o":"m 360 729 q 540 677 476 729 q 604 529 604 625 q 601 489 604 517 l 569 229 q 476 55 557 121 q 269 -11 396 -11 q 91 44 154 -11 q 28 194 28 100 q 29 229 28 218 l 51 406 q 58 417 53 413 q 69 422 63 422 l 363 422 q 371 429 368 422 l 376 471 q 368 515 379 497 q 336 532 357 532 q 304 518 318 532 q 285 483 290 504 q 264 469 279 469 l 79 481 q 68 485 72 481 q 65 497 64 490 q 360 729 107 729 m 293 186 q 331 203 315 186 q 349 247 346 219 l 354 292 q 347 299 354 299 l 268 299 q 261 292 261 299 l 256 247 q 263 203 253 219 q 293 186 274 186 z "},"ʒ":{"ha":547,"x_min":-14,"x_max":544,"o":"m 338 358 q 335 353 335 356 q 339 349 335 350 q 463 253 418 319 q 507 101 507 188 q 504 60 507 88 q 440 -108 493 -32 q 306 -227 388 -183 q 128 -271 224 -271 q -1 -250 65 -271 q -12 -232 -14 -246 l 13 -64 q 32 -51 15 -44 q 119 -69 72 -69 q 228 -34 182 -69 q 283 76 274 1 q 285 100 285 85 q 260 185 285 151 q 192 219 235 219 q 122 200 164 219 q 113 197 118 197 q 101 206 106 197 l 61 328 q 60 335 60 331 q 68 351 60 343 l 254 501 q 257 507 257 504 q 253 510 257 510 l 85 510 q 69 526 69 510 l 92 701 q 98 713 93 708 q 110 718 103 718 l 529 718 q 540 713 536 718 q 543 701 544 708 l 521 522 q 508 501 519 510 l 338 358 z "},"ǯ":{"ha":547,"x_min":-14,"x_max":563,"o":"m 338 358 q 335 353 335 356 q 339 349 335 350 q 463 253 418 319 q 507 101 507 188 q 504 60 507 88 q 440 -108 493 -32 q 306 -227 388 -183 q 128 -271 224 -271 q -1 -250 65 -271 q -12 -232 -14 -246 l 13 -64 q 32 -51 15 -44 q 119 -69 72 -69 q 228 -34 182 -69 q 283 76 274 1 q 285 100 285 85 q 260 185 285 151 q 192 219 235 219 q 122 200 164 219 q 113 197 118 197 q 101 206 106 197 l 61 328 q 60 335 60 331 q 68 351 60 343 l 254 501 q 257 507 257 504 q 253 510 257 510 l 85 510 q 69 526 69 510 l 92 701 q 98 713 93 708 q 110 718 103 718 l 529 718 q 540 713 536 718 q 543 701 544 708 l 521 522 q 508 501 519 510 l 338 358 z "},"f":{"ha":411,"x_min":53,"x_max":467,"o":"m 435 718 q 446 713 442 718 q 449 701 450 708 l 433 575 q 427 563 432 568 q 415 558 422 558 l 350 558 q 343 551 343 558 l 276 17 q 270 5 275 10 q 258 0 265 0 l 68 0 q 57 5 61 0 q 54 17 53 10 l 121 551 q 114 558 121 558 l 78 558 q 67 563 71 558 q 64 575 63 568 l 79 701 q 85 713 81 708 q 97 718 90 718 l 133 718 q 142 725 142 718 l 147 767 q 226 928 161 882 q 411 975 290 975 l 453 974 q 463 969 460 974 q 465 957 467 964 l 450 831 q 435 814 447 814 q 388 794 406 813 q 367 747 369 776 l 364 725 q 369 718 364 718 l 435 718 z "},"g":{"ha":608,"x_min":29,"x_max":632,"o":"m 407 701 q 413 713 408 708 q 425 718 418 718 l 617 718 q 628 713 624 718 q 631 701 632 708 l 550 42 q 447 -203 531 -117 q 168 -290 363 -290 q 96 -287 146 -290 q 82 -269 79 -286 l 101 -104 q 108 -92 103 -96 q 121 -89 114 -87 l 153 -90 q 280 -58 244 -90 q 326 44 315 -25 q 324 51 326 50 q 317 47 321 51 q 189 -8 267 -8 q 29 172 29 -8 q 33 232 29 201 l 65 489 q 279 729 96 729 q 394 667 361 729 q 399 663 396 663 q 403 668 401 664 l 407 701 m 297 190 q 333 207 318 190 q 351 250 349 224 l 378 471 q 379 485 379 475 q 368 519 379 506 q 339 532 357 532 q 305 515 319 532 q 288 471 290 499 l 260 250 q 267 206 257 222 q 297 190 276 190 z "},"ğ":{"ha":608,"x_min":29,"x_max":632,"o":"m 407 701 q 413 713 408 708 q 425 718 418 718 l 617 718 q 628 713 624 718 q 631 701 632 708 l 550 42 q 447 -203 531 -117 q 168 -290 363 -290 q 96 -287 146 -290 q 82 -269 79 -286 l 101 -104 q 108 -92 103 -96 q 121 -89 114 -87 l 153 -90 q 280 -58 244 -90 q 326 44 315 -25 q 324 51 326 50 q 317 47 321 51 q 189 -8 267 -8 q 29 172 29 -8 q 33 232 29 201 l 65 489 q 279 729 96 729 q 394 667 361 729 q 399 663 396 663 q 403 668 401 664 l 407 701 m 297 190 q 333 207 318 190 q 351 250 349 224 l 378 471 q 379 485 379 475 q 368 519 379 506 q 339 532 357 532 q 305 515 319 532 q 288 471 290 499 l 260 250 q 267 206 257 222 q 297 190 276 190 m 374 758 q 260 800 301 758 q 222 911 219 842 q 240 928 225 928 l 322 928 q 338 911 338 928 q 351 871 339 886 q 385 856 364 856 q 422 871 406 856 q 446 911 439 886 q 465 928 450 928 l 547 928 q 561 911 564 928 q 496 800 547 842 q 374 758 444 758 z "},"ǧ":{"ha":608,"x_min":29,"x_max":632,"o":"m 407 701 q 413 713 408 708 q 425 718 418 718 l 617 718 q 628 713 624 718 q 631 701 632 708 l 550 42 q 447 -203 531 -117 q 168 -290 363 -290 q 96 -287 146 -290 q 82 -269 79 -286 l 101 -104 q 108 -92 103 -96 q 121 -89 114 -87 l 153 -90 q 280 -58 244 -90 q 326 44 315 -25 q 324 51 326 50 q 317 47 321 51 q 189 -8 267 -8 q 29 172 29 -8 q 33 232 29 201 l 65 489 q 279 729 96 729 q 394 667 361 729 q 399 663 396 663 q 403 668 401 664 l 407 701 m 297 190 q 333 207 318 190 q 351 250 349 224 l 378 471 q 379 485 379 475 q 368 519 379 506 q 339 532 357 532 q 305 515 319 532 q 288 471 290 499 l 260 250 q 267 206 257 222 q 297 190 276 190 z "},"ĝ":{"ha":608,"x_min":29,"x_max":632,"o":"m 407 701 q 413 713 408 708 q 425 718 418 718 l 617 718 q 628 713 624 718 q 631 701 632 708 l 550 42 q 447 -203 531 -117 q 168 -290 363 -290 q 96 -287 146 -290 q 82 -269 79 -286 l 101 -104 q 108 -92 103 -96 q 121 -89 114 -87 l 153 -90 q 280 -58 244 -90 q 326 44 315 -25 q 324 51 326 50 q 317 47 321 51 q 189 -8 267 -8 q 29 172 29 -8 q 33 232 29 201 l 65 489 q 279 729 96 729 q 394 667 361 729 q 399 663 396 663 q 403 668 401 664 l 407 701 m 297 190 q 333 207 318 190 q 351 250 349 224 l 378 471 q 379 485 379 475 q 368 519 379 506 q 339 532 357 532 q 305 515 319 532 q 288 471 290 499 l 260 250 q 267 206 257 222 q 297 190 276 190 m 176 794 q 164 803 164 794 q 168 814 164 808 l 271 961 q 292 972 278 972 l 499 972 q 517 961 511 972 l 588 814 q 589 807 589 811 q 574 794 589 794 l 432 794 q 415 807 419 794 l 389 878 q 381 878 385 885 l 338 807 q 317 794 329 794 l 176 794 z "},"ġ":{"ha":608,"x_min":29,"x_max":632,"o":"m 407 701 q 413 713 408 708 q 425 718 418 718 l 617 718 q 628 713 624 718 q 631 701 632 708 l 550 42 q 447 -203 531 -117 q 168 -290 363 -290 q 96 -287 146 -290 q 82 -269 79 -286 l 101 -104 q 108 -92 103 -96 q 121 -89 114 -87 l 153 -90 q 280 -58 244 -90 q 326 44 315 -25 q 324 51 326 50 q 317 47 321 51 q 189 -8 267 -8 q 29 172 29 -8 q 33 232 29 201 l 65 489 q 279 729 96 729 q 394 667 361 729 q 399 663 396 663 q 403 668 401 664 l 407 701 m 297 190 q 333 207 318 190 q 351 250 349 224 l 378 471 q 379 485 379 475 q 368 519 379 506 q 339 532 357 532 q 305 515 319 532 q 288 471 290 499 l 260 250 q 267 206 257 222 q 297 190 276 190 m 376 782 q 301 811 329 782 q 272 886 272 840 q 311 985 272 946 q 406 1024 350 1024 q 481 996 453 1024 q 508 921 508 968 q 469 822 508 863 q 376 782 431 782 z "},"ǥ":{"ha":626,"x_min":29,"x_max":639,"o":"m 624 429 q 635 424 631 429 q 638 413 639 419 l 625 310 q 619 298 624 303 q 607 293 614 293 l 588 293 q 579 286 582 293 l 550 42 q 447 -203 531 -117 q 168 -290 363 -290 q 96 -287 146 -290 q 82 -269 79 -286 l 101 -104 q 108 -92 103 -96 q 121 -89 114 -87 l 153 -90 q 280 -58 244 -90 q 326 44 315 -25 q 324 51 326 50 q 317 47 321 51 q 189 -8 267 -8 q 29 172 29 -8 q 33 232 29 201 l 65 489 q 279 729 96 729 q 394 667 361 729 q 399 663 396 663 q 403 668 401 664 l 407 701 q 413 713 408 708 q 425 718 418 718 l 617 718 q 628 713 624 718 q 631 701 632 708 l 597 436 q 604 429 597 429 l 624 429 m 297 190 q 333 207 318 190 q 351 250 349 224 l 356 286 q 350 293 358 293 l 322 293 q 307 310 307 293 l 319 413 q 326 424 321 419 q 339 429 332 429 l 367 429 q 374 436 374 429 l 378 471 q 379 485 379 475 q 368 519 379 506 q 339 532 357 532 q 305 515 319 532 q 288 471 290 499 l 260 250 q 267 206 257 222 q 297 190 276 190 z "},"h":{"ha":613,"x_min":13,"x_max":614,"o":"m 451 729 q 574 681 533 729 q 614 544 614 633 q 610 485 614 517 l 551 17 q 545 5 550 10 q 533 0 540 0 l 342 0 q 331 5 335 0 q 328 17 326 10 l 383 469 q 385 488 385 476 q 349 532 385 532 q 312 515 326 532 q 293 468 297 499 l 238 17 q 231 5 236 10 q 219 0 226 0 l 28 0 q 17 5 21 0 q 14 17 13 10 l 129 956 q 135 967 131 963 q 147 972 140 972 l 339 972 q 350 967 346 972 q 353 956 354 963 l 318 674 q 321 671 318 671 q 333 679 325 671 q 451 729 381 729 z "},"ħ":{"ha":613,"x_min":13,"x_max":614,"o":"m 451 729 q 574 681 533 729 q 614 544 614 633 q 610 485 614 517 l 551 17 q 545 5 550 10 q 533 0 540 0 l 342 0 q 331 5 335 0 q 328 17 326 10 l 383 469 q 385 488 385 476 q 349 532 385 532 q 312 515 326 532 q 293 468 297 499 l 238 17 q 231 5 236 10 q 219 0 226 0 l 28 0 q 17 5 21 0 q 14 17 13 10 l 104 753 q 99 760 107 760 l 63 760 q 51 765 56 760 q 49 776 47 769 l 61 881 q 67 892 63 888 q 79 897 72 897 l 115 897 q 124 904 121 897 l 129 956 q 135 967 131 963 q 147 972 140 972 l 339 972 q 350 967 346 972 q 353 956 354 963 l 347 904 q 353 897 344 897 l 440 897 q 451 892 447 897 q 454 881 456 888 l 442 776 q 435 765 440 769 q 424 760 431 760 l 336 760 q 328 753 331 760 l 318 674 q 321 671 318 671 q 333 679 325 671 q 451 729 381 729 z "},"ȟ":{"ha":613,"x_min":13,"x_max":649,"o":"m 451 729 q 574 681 533 729 q 614 544 614 633 q 610 485 614 517 l 551 17 q 545 5 550 10 q 533 0 540 0 l 342 0 q 331 5 335 0 q 328 17 326 10 l 383 469 q 385 488 385 476 q 349 532 385 532 q 312 515 326 532 q 293 468 297 499 l 238 17 q 231 5 236 10 q 219 0 226 0 l 28 0 q 17 5 21 0 q 14 17 13 10 l 129 956 q 135 967 131 963 q 147 972 140 972 l 339 972 q 350 967 346 972 q 353 956 354 963 l 318 674 q 321 671 318 671 q 333 679 325 671 q 451 729 381 729 z "},"ĥ":{"ha":613,"x_min":13,"x_max":642,"o":"m 451 729 q 574 681 533 729 q 614 544 614 633 q 610 485 614 517 l 551 17 q 545 5 550 10 q 533 0 540 0 l 342 0 q 331 5 335 0 q 328 17 326 10 l 383 469 q 385 488 385 476 q 349 532 385 532 q 312 515 326 532 q 293 468 297 499 l 238 17 q 231 5 236 10 q 219 0 226 0 l 28 0 q 17 5 21 0 q 14 17 13 10 l 129 956 q 135 967 131 963 q 147 972 140 972 l 339 972 q 350 967 346 972 q 353 956 354 963 l 318 674 q 321 671 318 671 q 333 679 325 671 q 451 729 381 729 m 229 1042 q 217 1050 217 1042 q 221 1061 217 1056 l 324 1208 q 344 1219 331 1219 l 551 1219 q 569 1208 564 1219 l 640 1061 q 642 1054 642 1058 q 626 1042 642 1042 l 485 1042 q 468 1054 472 1042 l 442 1125 q 433 1125 438 1132 l 390 1054 q 369 1042 382 1042 l 229 1042 z "},"i":{"ha":300,"x_min":13,"x_max":350,"o":"m 217 782 q 143 811 171 782 q 115 886 115 840 q 153 985 115 946 q 247 1024 192 1024 q 322 996 293 1024 q 350 922 350 968 q 312 822 350 863 q 217 782 274 782 m 28 0 q 17 5 21 0 q 14 17 13 10 l 99 701 q 105 713 100 708 q 117 718 110 718 l 308 718 q 319 713 315 718 q 322 701 324 708 l 238 17 q 231 5 236 10 q 219 0 226 0 l 28 0 z "},"ı":{"ha":265,"x_min":-4,"x_max":306,"o":"m 11 0 q 0 5 4 0 q -3 17 -4 10 l 81 701 q 87 713 82 708 q 99 718 92 718 l 290 718 q 301 713 297 718 q 304 701 306 708 l 221 17 q 215 5 219 10 q 203 0 210 0 l 11 0 z "},"í":{"ha":265,"x_min":-4,"x_max":392,"o":"m 11 0 q 0 5 4 0 q -3 17 -4 10 l 81 701 q 87 713 82 708 q 99 718 92 718 l 290 718 q 301 713 297 718 q 304 701 306 708 l 221 17 q 215 5 219 10 q 203 0 210 0 l 11 0 m 122 803 q 108 811 108 803 q 113 822 108 817 l 208 961 q 229 972 215 972 l 379 972 q 392 964 392 972 q 386 951 392 957 l 264 813 q 243 803 256 803 l 122 803 z "},"ĭ":{"ha":265,"x_min":-4,"x_max":393,"o":"m 11 0 q 0 5 4 0 q -3 17 -4 10 l 81 701 q 87 713 82 708 q 99 718 92 718 l 290 718 q 301 713 297 718 q 304 701 306 708 l 221 17 q 215 5 219 10 q 203 0 210 0 l 11 0 m 201 778 q 89 819 129 778 q 51 931 49 861 q 69 947 53 947 l 151 947 q 167 931 167 947 q 179 890 167 906 q 214 875 192 875 q 251 890 235 875 q 275 931 268 906 q 294 947 279 947 l 376 947 q 390 931 393 947 q 324 819 375 861 q 201 778 274 778 z "},"î":{"ha":265,"x_min":-10,"x_max":415,"o":"m 11 0 q 0 5 4 0 q -3 17 -4 10 l 81 701 q 87 713 82 708 q 99 718 92 718 l 290 718 q 301 713 297 718 q 304 701 306 708 l 221 17 q 215 5 219 10 q 203 0 210 0 l 11 0 m 3 794 q -10 803 -10 794 q -6 814 -10 808 l 97 961 q 118 972 104 972 l 325 972 q 343 961 338 972 l 414 814 q 415 807 415 811 q 400 794 415 794 l 258 794 q 242 807 246 794 l 215 878 q 207 878 211 885 l 164 807 q 143 794 156 794 l 3 794 z "},"ï":{"ha":265,"x_min":-35,"x_max":467,"o":"m 11 0 q 0 5 4 0 q -3 17 -4 10 l 81 701 q 87 713 82 708 q 99 718 92 718 l 290 718 q 301 713 297 718 q 304 701 306 708 l 221 17 q 215 5 219 10 q 203 0 210 0 l 11 0 z "},"ị":{"ha":300,"x_min":-21,"x_max":350,"o":"m 217 782 q 143 811 171 782 q 115 886 115 840 q 153 985 115 946 q 247 1024 192 1024 q 322 996 293 1024 q 350 922 350 968 q 312 822 350 863 q 217 782 274 782 m 28 0 q 17 5 21 0 q 14 17 13 10 l 99 701 q 105 713 100 708 q 117 718 110 718 l 308 718 q 319 713 315 718 q 322 701 324 708 l 238 17 q 231 5 236 10 q 219 0 226 0 l 28 0 m 79 -358 q 6 -331 33 -358 q -21 -260 -21 -303 q 16 -164 -21 -201 q 108 -126 53 -126 q 180 -153 153 -126 q 207 -226 207 -181 q 169 -319 207 -281 q 79 -358 132 -358 z "},"ì":{"ha":265,"x_min":-4,"x_max":306,"o":"m 11 0 q 0 5 4 0 q -3 17 -4 10 l 81 701 q 87 713 82 708 q 99 718 92 718 l 290 718 q 301 713 297 718 q 304 701 306 708 l 221 17 q 215 5 219 10 q 203 0 210 0 l 11 0 m 276 822 q 278 815 278 819 q 261 803 278 803 l 139 803 q 119 813 128 803 l 32 951 q 29 960 29 957 q 34 969 29 965 q 46 972 39 972 l 196 972 q 214 961 210 972 l 276 822 z "},"ỉ":{"ha":265,"x_min":-4,"x_max":369,"o":"m 11 0 q 0 5 4 0 q -3 17 -4 10 l 81 701 q 87 713 82 708 q 99 718 92 718 l 290 718 q 301 713 297 718 q 304 701 306 708 l 221 17 q 215 5 219 10 q 203 0 210 0 l 11 0 m 179 776 q 171 797 161 781 q 222 868 192 838 q 244 894 238 885 q 253 922 250 904 l 253 925 q 244 942 253 935 q 225 950 236 950 q 197 942 210 950 q 163 910 183 933 q 149 903 156 903 q 139 907 144 903 l 88 949 q 81 960 81 956 q 86 972 81 967 q 158 1038 122 1018 q 243 1057 193 1057 q 336 1028 303 1057 q 369 946 369 999 q 353 877 369 903 q 306 821 338 851 q 264 774 272 788 q 242 764 254 763 l 179 776 z "},"ĳ":{"ha":592,"x_min":13,"x_max":644,"o":"m 217 782 q 143 811 171 782 q 115 886 115 840 q 153 985 115 946 q 247 1024 192 1024 q 322 996 293 1024 q 350 922 350 968 q 312 822 350 863 q 217 782 274 782 m 28 0 q 17 5 21 0 q 14 17 13 10 l 99 701 q 105 713 100 708 q 117 718 110 718 l 308 718 q 319 713 315 718 q 322 701 324 708 l 238 17 q 231 5 236 10 q 219 0 226 0 l 28 0 m 511 782 q 437 811 465 782 q 408 886 408 840 q 447 985 408 946 q 542 1024 486 1024 q 616 996 588 1024 q 644 922 644 968 q 606 822 644 863 q 511 782 568 782 m 157 -281 q 146 -276 150 -281 q 143 -264 142 -271 l 164 -101 q 172 -89 165 -92 q 190 -86 178 -86 q 274 -59 249 -86 q 307 21 300 -32 l 390 701 q 397 713 392 708 q 408 718 401 718 l 600 718 q 611 713 607 718 q 614 701 615 708 l 531 21 q 490 -156 517 -94 q 388 -250 464 -217 q 157 -281 311 -283 z "},"ī":{"ha":265,"x_min":-4,"x_max":369,"o":"m 11 0 q 0 5 4 0 q -3 17 -4 10 l 81 701 q 87 713 82 708 q 99 718 92 718 l 290 718 q 301 713 297 718 q 304 701 306 708 l 221 17 q 215 5 219 10 q 203 0 210 0 l 11 0 m 63 800 q 51 805 56 800 q 49 817 47 810 l 64 939 q 70 951 65 946 q 82 956 75 956 l 354 956 q 365 951 361 956 q 368 939 369 946 l 353 817 q 347 805 351 810 q 335 800 342 800 l 63 800 z "},"į":{"ha":303,"x_min":6,"x_max":354,"o":"m 31 0 q 19 5 24 0 q 17 17 15 10 l 100 701 q 106 713 101 708 q 118 718 111 718 l 310 718 q 321 713 317 718 q 324 701 325 708 l 240 17 q 234 5 239 10 q 222 0 229 0 l 31 0 m 222 782 q 147 811 175 782 q 118 886 118 840 q 157 985 118 946 q 251 1024 196 1024 q 326 996 299 1024 q 354 921 354 968 q 315 822 354 863 q 222 782 276 782 m 203 -236 q 189 -257 203 -251 q 117 -268 153 -268 q 37 -244 68 -268 q 6 -160 6 -219 q 83 -8 6 -81 q 104 0 92 0 l 208 0 q 221 -7 221 0 q 213 -21 221 -12 q 151 -112 151 -74 q 186 -146 151 -149 l 190 -146 q 203 -158 203 -146 l 203 -236 z "},"ĩ":{"ha":265,"x_min":-4,"x_max":446,"o":"m 11 0 q 0 5 4 0 q -3 17 -4 10 l 81 701 q 87 713 82 708 q 99 718 92 718 l 290 718 q 301 713 297 718 q 304 701 306 708 l 221 17 q 215 5 219 10 q 203 0 210 0 l 11 0 m 296 803 q 225 825 265 803 q 206 838 215 831 q 189 847 196 844 q 172 850 182 850 q 125 821 146 850 q 113 812 119 814 q 101 815 107 810 l 39 865 q 35 888 29 874 q 94 967 57 940 q 172 993 132 993 q 257 961 213 993 q 270 951 261 958 q 288 941 279 944 q 307 938 297 938 q 357 963 336 938 q 379 969 367 978 l 440 921 q 446 910 446 915 q 438 889 446 901 q 371 823 408 843 q 296 803 333 803 z "},"j":{"ha":300,"x_min":-150,"x_max":353,"o":"m 219 782 q 145 811 174 782 q 117 886 117 840 q 156 985 117 946 q 250 1024 194 1024 q 324 996 296 1024 q 353 922 353 968 q 315 822 353 863 q 219 782 276 782 m -135 -281 q -146 -276 -142 -281 q -149 -264 -150 -271 l -128 -101 q -120 -89 -126 -92 q -101 -86 -114 -86 q -17 -59 -43 -86 q 15 21 8 -32 l 99 701 q 105 713 100 708 q 117 718 110 718 l 308 718 q 319 713 315 718 q 322 701 324 708 l 239 21 q 199 -156 225 -94 q 96 -250 172 -217 q -135 -281 19 -283 z "},"ȷ":{"ha":306,"x_min":-150,"x_max":324,"o":"m -135 -281 q -146 -276 -142 -281 q -149 -264 -150 -271 l -128 -101 q -120 -89 -126 -92 q -101 -86 -114 -86 q -17 -59 -43 -86 q 15 21 8 -32 l 99 701 q 105 713 100 708 q 117 718 110 718 l 308 718 q 319 713 315 718 q 322 701 324 708 l 239 21 q 199 -156 225 -94 q 96 -250 172 -217 q -135 -281 19 -283 z "},"ĵ":{"ha":306,"x_min":-150,"x_max":433,"o":"m -135 -281 q -146 -276 -142 -281 q -149 -264 -150 -271 l -128 -101 q -120 -89 -126 -92 q -101 -86 -114 -86 q -17 -59 -43 -86 q 15 21 8 -32 l 99 701 q 105 713 100 708 q 117 718 110 718 l 308 718 q 319 713 315 718 q 322 701 324 708 l 239 21 q 199 -156 225 -94 q 96 -250 172 -217 q -135 -281 19 -283 m 21 794 q 8 803 8 794 q 13 814 8 808 l 115 961 q 136 972 122 972 l 343 972 q 361 961 356 972 l 432 814 q 433 807 433 811 q 418 794 433 794 l 276 794 q 260 807 264 794 l 233 878 q 225 878 229 885 l 182 807 q 161 794 174 794 l 21 794 z "},"k":{"ha":626,"x_min":13,"x_max":650,"o":"m 28 0 q 17 5 21 0 q 14 17 13 10 l 129 956 q 135 967 131 963 q 147 972 140 972 l 339 972 q 350 967 346 972 q 353 956 354 963 l 301 531 q 303 524 300 525 q 308 528 306 524 l 421 706 q 442 718 429 718 l 638 718 q 650 710 650 718 q 646 699 650 706 l 467 450 q 464 440 463 446 l 576 19 l 578 14 q 573 4 578 8 q 561 0 568 0 l 365 0 q 349 14 353 0 l 304 251 q 301 257 304 257 q 294 253 297 257 l 264 204 q 261 201 263 203 q 260 196 260 199 l 238 17 q 231 5 236 10 q 219 0 226 0 l 28 0 z "},"ǩ":{"ha":626,"x_min":13,"x_max":650,"o":"m 28 0 q 17 5 21 0 q 14 17 13 10 l 129 956 q 135 967 131 963 q 147 972 140 972 l 339 972 q 350 967 346 972 q 353 956 354 963 l 301 531 q 303 524 300 525 q 308 528 306 524 l 421 706 q 442 718 429 718 l 638 718 q 650 710 650 718 q 646 699 650 706 l 467 450 q 464 440 463 446 l 576 19 l 578 14 q 573 4 578 8 q 561 0 568 0 l 365 0 q 349 14 353 0 l 304 251 q 301 257 304 257 q 294 253 297 257 l 264 204 q 261 201 263 203 q 260 196 260 199 l 238 17 q 231 5 236 10 q 219 0 226 0 l 28 0 z "},"l":{"ha":296,"x_min":10,"x_max":351,"o":"m 25 0 q 14 5 18 0 q 11 17 10 10 l 126 956 q 133 967 128 963 q 144 972 138 972 l 336 972 q 347 967 343 972 q 350 956 351 963 l 235 17 q 228 5 233 10 q 217 0 224 0 l 25 0 z "},"ĺ":{"ha":296,"x_min":10,"x_max":439,"o":"m 25 0 q 14 5 18 0 q 11 17 10 10 l 126 956 q 133 967 128 963 q 144 972 138 972 l 336 972 q 347 967 343 972 q 350 956 351 963 l 235 17 q 228 5 233 10 q 217 0 224 0 l 25 0 m 169 1057 q 156 1065 156 1057 q 160 1076 156 1071 l 256 1215 q 276 1226 263 1226 l 426 1226 q 439 1218 439 1226 q 433 1206 439 1211 l 311 1067 q 290 1057 303 1057 l 169 1057 z "},"ľ":{"ha":582,"x_min":10,"x_max":640,"o":"m 25 0 q 14 5 18 0 q 11 17 10 10 l 126 956 q 133 967 128 963 q 144 972 138 972 l 336 972 q 347 967 343 972 q 350 956 351 963 l 235 17 q 228 5 233 10 q 217 0 224 0 l 25 0 z "},"ļ":{"ha":296,"x_min":-108,"x_max":351,"o":"m 25 0 q 14 5 18 0 q 11 17 10 10 l 126 956 q 133 967 128 963 q 144 972 138 972 l 336 972 q 347 967 343 972 q 350 956 351 963 l 235 17 q 228 5 233 10 q 217 0 224 0 l 25 0 z "},"ŀ":{"ha":308,"x_min":15,"x_max":389,"o":"m 31 0 q 19 5 24 0 q 17 17 15 10 l 132 956 q 138 967 133 963 q 150 972 143 972 l 342 972 q 353 967 349 972 q 356 956 357 963 l 240 17 q 234 5 239 10 q 222 0 229 0 l 31 0 z "},"ł":{"ha":567,"x_min":39,"x_max":592,"o":"m 590 556 q 592 549 592 553 q 581 532 592 539 l 418 447 q 413 439 413 443 l 360 17 q 354 5 360 10 q 342 0 349 0 l 151 0 q 136 17 136 0 l 174 311 q 171 317 174 315 q 165 317 168 319 l 108 286 q 99 283 100 283 q 86 293 88 283 l 40 410 l 39 415 q 50 433 39 426 l 192 508 q 199 517 196 511 l 251 956 q 258 967 253 963 q 271 972 264 972 l 461 972 q 472 967 468 972 q 475 956 476 963 l 438 647 q 446 642 438 638 l 518 681 q 528 683 524 683 q 540 675 536 683 l 590 556 z "},"m":{"ha":924,"x_min":13,"x_max":925,"o":"m 763 729 q 925 543 925 729 q 921 483 925 515 l 863 17 q 856 5 861 10 q 844 0 851 0 l 653 0 q 642 5 646 0 q 639 17 638 10 l 694 467 q 696 483 696 472 q 686 519 696 507 q 660 532 676 532 q 606 468 614 532 l 550 17 q 544 5 549 10 q 532 0 539 0 l 340 0 q 329 5 333 0 q 326 17 325 10 l 382 467 q 383 483 383 472 q 374 519 383 507 q 347 532 364 532 q 311 515 325 532 q 293 468 297 499 l 238 17 q 231 5 236 10 q 219 0 226 0 l 28 0 q 17 5 21 0 q 14 17 13 10 l 99 701 q 105 713 100 708 q 117 718 110 718 l 308 718 q 319 713 315 718 q 322 701 324 708 l 321 688 q 322 682 319 683 q 328 683 325 681 q 450 729 382 729 q 593 647 557 729 q 596 646 593 646 q 607 654 601 646 q 763 729 667 729 z "},"n":{"ha":613,"x_min":13,"x_max":614,"o":"m 451 729 q 574 681 533 729 q 614 544 614 633 q 610 485 614 517 l 551 17 q 545 5 550 10 q 533 0 540 0 l 342 0 q 331 5 335 0 q 328 17 326 10 l 383 469 q 385 488 385 476 q 349 532 385 532 q 312 515 326 532 q 293 468 297 499 l 238 17 q 231 5 236 10 q 219 0 226 0 l 28 0 q 17 5 21 0 q 14 17 13 10 l 99 701 q 105 713 100 708 q 117 718 110 718 l 308 718 q 319 713 315 718 q 322 701 324 708 l 318 674 q 321 671 318 671 q 333 679 325 671 q 451 729 381 729 z "},"ń":{"ha":613,"x_min":13,"x_max":614,"o":"m 451 729 q 574 681 533 729 q 614 544 614 633 q 610 485 614 517 l 551 17 q 545 5 550 10 q 533 0 540 0 l 342 0 q 331 5 335 0 q 328 17 326 10 l 383 469 q 385 488 385 476 q 349 532 385 532 q 312 515 326 532 q 293 468 297 499 l 238 17 q 231 5 236 10 q 219 0 226 0 l 28 0 q 17 5 21 0 q 14 17 13 10 l 99 701 q 105 713 100 708 q 117 718 110 718 l 308 718 q 319 713 315 718 q 322 701 324 708 l 318 674 q 321 671 318 671 q 333 679 325 671 q 451 729 381 729 m 299 803 q 285 811 285 803 q 289 822 285 817 l 385 961 q 406 972 392 972 l 556 972 q 568 964 568 972 q 563 951 568 957 l 440 813 q 419 803 432 803 l 299 803 z "},"ň":{"ha":613,"x_min":13,"x_max":619,"o":"m 451 729 q 574 681 533 729 q 614 544 614 633 q 610 485 614 517 l 551 17 q 545 5 550 10 q 533 0 540 0 l 342 0 q 331 5 335 0 q 328 17 326 10 l 383 469 q 385 488 385 476 q 349 532 385 532 q 312 515 326 532 q 293 468 297 499 l 238 17 q 231 5 236 10 q 219 0 226 0 l 28 0 q 17 5 21 0 q 14 17 13 10 l 99 701 q 105 713 100 708 q 117 718 110 718 l 308 718 q 319 713 315 718 q 322 701 324 708 l 318 674 q 321 671 318 671 q 333 679 325 671 q 451 729 381 729 m 196 953 q 194 961 194 956 q 210 972 194 972 l 350 972 q 367 960 363 972 l 393 889 q 401 889 397 883 l 444 960 q 465 972 453 972 l 607 972 q 619 964 619 972 q 615 953 619 960 l 508 806 q 488 794 501 794 l 281 794 q 263 806 267 794 l 196 953 z "},"ŋ":{"ha":613,"x_min":13,"x_max":614,"o":"m 553 31 q 519 -140 539 -83 q 429 -235 500 -197 q 208 -269 358 -272 q 193 -253 190 -269 l 213 -93 q 232 -78 215 -75 q 304 -56 286 -78 q 328 15 322 -33 l 383 469 q 385 488 385 476 q 349 532 385 532 q 312 515 326 532 q 293 468 297 499 l 238 17 q 231 5 236 10 q 219 0 226 0 l 28 0 q 17 5 21 0 q 14 17 13 10 l 99 701 q 105 713 100 708 q 117 718 110 718 l 308 718 q 319 713 315 718 q 322 701 324 708 l 318 674 q 321 669 318 669 q 326 672 324 668 q 451 729 375 729 q 574 681 533 729 q 614 544 614 633 q 610 485 614 517 l 553 31 z "},"ñ":{"ha":613,"x_min":13,"x_max":624,"o":"m 351 850 q 303 821 324 850 q 291 812 297 814 q 279 815 285 810 l 219 865 q 215 888 210 875 q 274 967 238 940 q 350 993 310 993 q 432 961 390 993 q 445 951 436 958 q 463 941 454 944 q 482 938 472 938 q 529 963 511 938 q 553 969 543 979 l 611 921 q 615 899 624 913 q 547 825 586 847 q 471 803 508 803 q 401 825 440 803 q 383 838 393 831 q 367 847 374 844 q 351 850 360 850 m 451 729 q 574 681 533 729 q 614 544 614 633 q 610 485 614 517 l 551 17 q 545 5 550 10 q 533 0 540 0 l 342 0 q 331 5 335 0 q 328 17 326 10 l 383 469 q 385 488 385 476 q 349 532 385 532 q 312 515 326 532 q 293 468 297 499 l 238 17 q 231 5 236 10 q 219 0 226 0 l 28 0 q 17 5 21 0 q 14 17 13 10 l 99 701 q 105 713 100 708 q 117 718 110 718 l 308 718 q 319 713 315 718 q 322 701 324 708 l 318 674 q 321 671 318 671 q 333 679 325 671 q 451 729 381 729 z "},"o":{"ha":610,"x_min":31,"x_max":613,"o":"m 276 -11 q 95 42 160 -11 q 31 192 31 96 q 33 229 31 204 l 65 489 q 159 664 79 599 q 367 729 239 729 q 548 674 483 729 q 613 525 613 619 q 610 489 613 514 l 578 229 q 485 53 564 117 q 276 -11 406 -11 m 300 188 q 338 204 322 188 q 357 249 353 221 l 383 471 l 385 483 q 374 519 385 506 q 343 532 363 532 q 306 515 321 532 q 288 471 290 499 l 260 249 q 268 204 257 221 q 300 188 279 188 z "},"ó":{"ha":610,"x_min":31,"x_max":613,"o":"m 276 -11 q 95 42 160 -11 q 31 192 31 96 q 33 229 31 204 l 65 489 q 159 664 79 599 q 367 729 239 729 q 548 674 483 729 q 613 525 613 619 q 610 489 613 514 l 578 229 q 485 53 564 117 q 276 -11 406 -11 m 300 188 q 338 204 322 188 q 357 249 353 221 l 383 471 l 385 483 q 374 519 385 506 q 343 532 363 532 q 306 515 321 532 q 288 471 290 499 l 260 249 q 268 204 257 221 q 300 188 279 188 m 294 803 q 281 811 281 803 q 285 822 281 817 l 381 961 q 401 972 388 972 l 551 972 q 564 964 564 972 q 558 951 564 957 l 436 813 q 415 803 428 803 l 294 803 z "},"ŏ":{"ha":610,"x_min":31,"x_max":613,"o":"m 276 -11 q 95 42 160 -11 q 31 192 31 96 q 33 229 31 204 l 65 489 q 159 664 79 599 q 367 729 239 729 q 548 674 483 729 q 613 525 613 619 q 610 489 613 514 l 578 229 q 485 53 564 117 q 276 -11 406 -11 m 300 188 q 338 204 322 188 q 357 249 353 221 l 383 471 l 385 483 q 374 519 385 506 q 343 532 363 532 q 306 515 321 532 q 288 471 290 499 l 260 249 q 268 204 257 221 q 300 188 279 188 m 374 778 q 261 819 301 778 q 224 931 221 861 q 242 947 225 947 l 324 947 q 339 931 339 947 q 351 890 339 906 q 386 875 364 875 q 424 890 407 875 q 447 931 440 906 q 467 947 451 947 l 549 947 q 563 931 565 947 q 497 819 547 861 q 374 778 446 778 z "},"ô":{"ha":610,"x_min":31,"x_max":613,"o":"m 276 -11 q 95 42 160 -11 q 31 192 31 96 q 33 229 31 204 l 65 489 q 159 664 79 599 q 367 729 239 729 q 548 674 483 729 q 613 525 613 619 q 610 489 613 514 l 578 229 q 485 53 564 117 q 276 -11 406 -11 m 300 188 q 338 204 322 188 q 357 249 353 221 l 383 471 l 385 483 q 374 519 385 506 q 343 532 363 532 q 306 515 321 532 q 288 471 290 499 l 260 249 q 268 204 257 221 q 300 188 279 188 m 175 794 q 163 803 163 794 q 167 814 163 808 l 269 961 q 290 972 276 972 l 497 972 q 515 961 510 972 l 586 814 q 588 807 588 811 q 572 794 588 794 l 431 794 q 414 807 418 794 l 388 878 q 379 878 383 885 l 336 807 q 315 794 328 794 l 175 794 z "},"ố":{"ha":610,"x_min":31,"x_max":868,"o":"m 276 -11 q 95 42 160 -11 q 31 192 31 96 q 33 229 31 204 l 65 489 q 159 664 79 599 q 367 729 239 729 q 548 674 483 729 q 613 525 613 619 q 610 489 613 514 l 578 229 q 485 53 564 117 q 276 -11 406 -11 m 300 188 q 338 204 322 188 q 357 249 353 221 l 383 471 l 385 483 q 374 519 385 506 q 343 532 363 532 q 306 515 321 532 q 288 471 290 499 l 260 249 q 268 204 257 221 q 300 188 279 188 z "},"ộ":{"ha":610,"x_min":31,"x_max":613,"o":"m 276 -11 q 95 42 160 -11 q 31 192 31 96 q 33 229 31 204 l 65 489 q 159 664 79 599 q 367 729 239 729 q 548 674 483 729 q 613 525 613 619 q 610 489 613 514 l 578 229 q 485 53 564 117 q 276 -11 406 -11 m 300 188 q 338 204 322 188 q 357 249 353 221 l 383 471 l 385 483 q 374 519 385 506 q 343 532 363 532 q 306 515 321 532 q 288 471 290 499 l 260 249 q 268 204 257 221 q 300 188 279 188 m 235 -358 q 162 -331 189 -358 q 135 -260 135 -303 q 172 -164 135 -201 q 264 -126 208 -126 q 335 -153 308 -126 q 363 -226 363 -181 q 325 -319 363 -281 q 235 -358 288 -358 m 175 794 q 163 803 163 794 q 167 814 163 808 l 269 961 q 290 972 276 972 l 497 972 q 515 961 510 972 l 586 814 q 588 807 588 811 q 572 794 588 794 l 431 794 q 414 807 418 794 l 388 878 q 379 878 383 885 l 336 807 q 315 794 328 794 l 175 794 z "},"ồ":{"ha":610,"x_min":31,"x_max":704,"o":"m 276 -11 q 95 42 160 -11 q 31 192 31 96 q 33 229 31 204 l 65 489 q 159 664 79 599 q 367 729 239 729 q 548 674 483 729 q 613 525 613 619 q 610 489 613 514 l 578 229 q 485 53 564 117 q 276 -11 406 -11 m 300 188 q 338 204 322 188 q 357 249 353 221 l 383 471 l 385 483 q 374 519 385 506 q 343 532 363 532 q 306 515 321 532 q 288 471 290 499 l 260 249 q 268 204 257 221 q 300 188 279 188 z "},"ổ":{"ha":610,"x_min":31,"x_max":767,"o":"m 276 -11 q 95 42 160 -11 q 31 192 31 96 q 33 229 31 204 l 65 489 q 159 664 79 599 q 367 729 239 729 q 548 674 483 729 q 613 525 613 619 q 610 489 613 514 l 578 229 q 485 53 564 117 q 276 -11 406 -11 m 300 188 q 338 204 322 188 q 357 249 353 221 l 383 471 l 385 483 q 374 519 385 506 q 343 532 363 532 q 306 515 321 532 q 288 471 290 499 l 260 249 q 268 204 257 221 q 300 188 279 188 m 592 943 q 583 964 574 949 q 631 1028 603 1003 q 651 1053 644 1043 q 658 1078 657 1063 l 658 1081 q 651 1097 658 1090 q 633 1104 644 1104 q 608 1097 619 1104 q 576 1068 596 1089 q 553 1064 565 1054 l 507 1103 q 501 1114 501 1108 q 507 1126 501 1121 q 573 1185 540 1168 q 651 1203 606 1203 q 736 1175 706 1203 q 767 1099 767 1147 q 751 1035 767 1060 q 706 983 736 1011 q 687 964 699 976 q 668 942 675 951 q 647 932 660 931 l 592 943 m 175 794 q 163 803 163 794 q 167 814 163 808 l 269 961 q 290 972 276 972 l 497 972 q 515 961 510 972 l 586 814 q 588 807 588 811 q 572 794 588 794 l 431 794 q 414 807 418 794 l 388 878 q 379 878 383 885 l 336 807 q 315 794 328 794 l 175 794 z "},"ỗ":{"ha":610,"x_min":31,"x_max":617,"o":"m 276 -11 q 95 42 160 -11 q 31 192 31 96 q 33 229 31 204 l 65 489 q 159 664 79 599 q 367 729 239 729 q 548 674 483 729 q 613 525 613 619 q 610 489 613 514 l 578 229 q 485 53 564 117 q 276 -11 406 -11 m 300 188 q 338 204 322 188 q 357 249 353 221 l 383 471 l 385 483 q 374 519 385 506 q 343 532 363 532 q 306 515 321 532 q 288 471 290 499 l 260 249 q 268 204 257 221 q 300 188 279 188 z "},"ö":{"ha":610,"x_min":31,"x_max":639,"o":"m 276 -11 q 95 42 160 -11 q 31 192 31 96 q 33 229 31 204 l 65 489 q 159 664 79 599 q 367 729 239 729 q 548 674 483 729 q 613 525 613 619 q 610 489 613 514 l 578 229 q 485 53 564 117 q 276 -11 406 -11 m 300 188 q 338 204 322 188 q 357 249 353 221 l 383 471 l 385 483 q 374 519 385 506 q 343 532 363 532 q 306 515 321 532 q 288 471 290 499 l 260 249 q 268 204 257 221 q 300 188 279 188 z "},"ọ":{"ha":610,"x_min":31,"x_max":613,"o":"m 276 -11 q 95 42 160 -11 q 31 192 31 96 q 33 229 31 204 l 65 489 q 159 664 79 599 q 367 729 239 729 q 548 674 483 729 q 613 525 613 619 q 610 489 613 514 l 578 229 q 485 53 564 117 q 276 -11 406 -11 m 300 188 q 338 204 322 188 q 357 249 353 221 l 383 471 l 385 483 q 374 519 385 506 q 343 532 363 532 q 306 515 321 532 q 288 471 290 499 l 260 249 q 268 204 257 221 q 300 188 279 188 m 235 -358 q 162 -331 189 -358 q 135 -260 135 -303 q 172 -164 135 -201 q 264 -126 208 -126 q 335 -153 308 -126 q 363 -226 363 -181 q 325 -319 363 -281 q 235 -358 288 -358 z "},"ò":{"ha":610,"x_min":31,"x_max":613,"o":"m 276 -11 q 95 42 160 -11 q 31 192 31 96 q 33 229 31 204 l 65 489 q 159 664 79 599 q 367 729 239 729 q 548 674 483 729 q 613 525 613 619 q 610 489 613 514 l 578 229 q 485 53 564 117 q 276 -11 406 -11 m 300 188 q 338 204 322 188 q 357 249 353 221 l 383 471 l 385 483 q 374 519 385 506 q 343 532 363 532 q 306 515 321 532 q 288 471 290 499 l 260 249 q 268 204 257 221 q 300 188 279 188 m 449 822 q 450 815 450 819 q 433 803 450 803 l 311 803 q 292 813 300 803 l 204 951 q 201 960 201 957 q 206 969 201 965 q 218 972 211 972 l 368 972 q 386 961 382 972 l 449 822 z "},"ỏ":{"ha":610,"x_min":31,"x_max":613,"o":"m 276 -11 q 95 42 160 -11 q 31 192 31 96 q 33 229 31 204 l 65 489 q 159 664 79 599 q 367 729 239 729 q 548 674 483 729 q 613 525 613 619 q 610 489 613 514 l 578 229 q 485 53 564 117 q 276 -11 406 -11 m 300 188 q 338 204 322 188 q 357 249 353 221 l 383 471 l 385 483 q 374 519 385 506 q 343 532 363 532 q 306 515 321 532 q 288 471 290 499 l 260 249 q 268 204 257 221 q 300 188 279 188 m 351 776 q 343 797 333 781 q 394 868 364 838 q 416 894 410 885 q 425 922 422 904 l 425 925 q 417 942 425 935 q 397 950 408 950 q 369 942 382 950 q 335 910 356 933 q 321 903 328 903 q 311 907 317 903 l 260 949 q 253 960 253 956 q 258 972 253 967 q 330 1038 294 1018 q 415 1057 365 1057 q 508 1028 475 1057 q 542 946 542 999 q 526 877 542 903 q 478 821 510 851 q 436 774 444 788 q 414 764 426 763 l 351 776 z "},"ơ":{"ha":610,"x_min":31,"x_max":660,"o":"m 571 660 q 569 650 567 656 q 613 525 613 599 q 610 489 613 514 l 578 229 q 485 53 564 117 q 276 -11 406 -11 q 95 42 160 -11 q 31 192 31 96 q 33 229 31 204 l 65 489 q 159 664 79 599 q 367 729 239 729 q 456 719 410 729 q 464 718 458 718 q 513 744 490 721 q 546 822 536 768 q 564 839 549 839 l 646 839 q 656 832 653 839 q 658 813 660 825 q 571 660 639 710 m 385 483 q 374 519 385 506 q 343 532 363 532 q 306 515 321 532 q 288 471 290 499 l 260 249 q 268 204 257 221 q 300 188 279 188 q 338 204 322 188 q 357 249 353 221 l 383 471 l 385 483 z "},"ớ":{"ha":610,"x_min":31,"x_max":660,"o":"m 571 660 q 569 650 567 656 q 613 525 613 599 q 610 489 613 514 l 578 229 q 485 53 564 117 q 276 -11 406 -11 q 95 42 160 -11 q 31 192 31 96 q 33 229 31 204 l 65 489 q 159 664 79 599 q 367 729 239 729 q 456 719 410 729 q 464 718 458 718 q 513 744 490 721 q 546 822 536 768 q 564 839 549 839 l 646 839 q 656 832 653 839 q 658 813 660 825 q 571 660 639 710 m 385 483 q 374 519 385 506 q 343 532 363 532 q 306 515 321 532 q 288 471 290 499 l 260 249 q 268 204 257 221 q 300 188 279 188 q 338 204 322 188 q 357 249 353 221 l 383 471 l 385 483 m 294 803 q 281 811 281 803 q 285 822 281 817 l 381 961 q 401 972 388 972 l 551 972 q 564 964 564 972 q 558 951 564 957 l 436 813 q 415 803 428 803 l 294 803 z "},"ợ":{"ha":610,"x_min":31,"x_max":660,"o":"m 571 660 q 569 650 567 656 q 613 525 613 599 q 610 489 613 514 l 578 229 q 485 53 564 117 q 276 -11 406 -11 q 95 42 160 -11 q 31 192 31 96 q 33 229 31 204 l 65 489 q 159 664 79 599 q 367 729 239 729 q 456 719 410 729 q 464 718 458 718 q 513 744 490 721 q 546 822 536 768 q 564 839 549 839 l 646 839 q 656 832 653 839 q 658 813 660 825 q 571 660 639 710 m 385 483 q 374 519 385 506 q 343 532 363 532 q 306 515 321 532 q 288 471 290 499 l 260 249 q 268 204 257 221 q 300 188 279 188 q 338 204 322 188 q 357 249 353 221 l 383 471 l 385 483 m 235 -358 q 162 -331 189 -358 q 135 -260 135 -303 q 172 -164 135 -201 q 264 -126 208 -126 q 335 -153 308 -126 q 363 -226 363 -181 q 325 -319 363 -281 q 235 -358 288 -358 z "},"ờ":{"ha":610,"x_min":31,"x_max":660,"o":"m 571 660 q 569 650 567 656 q 613 525 613 599 q 610 489 613 514 l 578 229 q 485 53 564 117 q 276 -11 406 -11 q 95 42 160 -11 q 31 192 31 96 q 33 229 31 204 l 65 489 q 159 664 79 599 q 367 729 239 729 q 456 719 410 729 q 464 718 458 718 q 513 744 490 721 q 546 822 536 768 q 564 839 549 839 l 646 839 q 656 832 653 839 q 658 813 660 825 q 571 660 639 710 m 385 483 q 374 519 385 506 q 343 532 363 532 q 306 515 321 532 q 288 471 290 499 l 260 249 q 268 204 257 221 q 300 188 279 188 q 338 204 322 188 q 357 249 353 221 l 383 471 l 385 483 m 449 822 q 450 815 450 819 q 433 803 450 803 l 311 803 q 292 813 300 803 l 204 951 q 201 960 201 957 q 206 969 201 965 q 218 972 211 972 l 368 972 q 386 961 382 972 l 449 822 z "},"ở":{"ha":610,"x_min":31,"x_max":660,"o":"m 571 660 q 569 650 567 656 q 613 525 613 599 q 610 489 613 514 l 578 229 q 485 53 564 117 q 276 -11 406 -11 q 95 42 160 -11 q 31 192 31 96 q 33 229 31 204 l 65 489 q 159 664 79 599 q 367 729 239 729 q 456 719 410 729 q 464 718 458 718 q 513 744 490 721 q 546 822 536 768 q 564 839 549 839 l 646 839 q 656 832 653 839 q 658 813 660 825 q 571 660 639 710 m 385 483 q 374 519 385 506 q 343 532 363 532 q 306 515 321 532 q 288 471 290 499 l 260 249 q 268 204 257 221 q 300 188 279 188 q 338 204 322 188 q 357 249 353 221 l 383 471 l 385 483 m 351 776 q 343 797 333 781 q 394 868 364 838 q 416 894 410 885 q 425 922 422 904 l 425 925 q 417 942 425 935 q 397 950 408 950 q 369 942 382 950 q 335 910 356 933 q 321 903 328 903 q 311 907 317 903 l 260 949 q 253 960 253 956 q 258 972 253 967 q 330 1038 294 1018 q 415 1057 365 1057 q 508 1028 475 1057 q 542 946 542 999 q 526 877 542 903 q 478 821 510 851 q 436 774 444 788 q 414 764 426 763 l 351 776 z "},"ỡ":{"ha":610,"x_min":31,"x_max":660,"o":"m 571 660 q 569 650 567 656 q 613 525 613 599 q 610 489 613 514 l 578 229 q 485 53 564 117 q 276 -11 406 -11 q 95 42 160 -11 q 31 192 31 96 q 33 229 31 204 l 65 489 q 159 664 79 599 q 367 729 239 729 q 456 719 410 729 q 464 718 458 718 q 513 744 490 721 q 546 822 536 768 q 564 839 549 839 l 646 839 q 656 832 653 839 q 658 813 660 825 q 571 660 639 710 m 385 483 q 374 519 385 506 q 343 532 363 532 q 306 515 321 532 q 288 471 290 499 l 260 249 q 268 204 257 221 q 300 188 279 188 q 338 204 322 188 q 357 249 353 221 l 383 471 l 385 483 m 426 818 q 356 840 396 818 q 336 853 346 846 q 319 863 326 860 q 303 865 313 865 q 256 836 276 865 q 244 827 250 829 q 232 831 238 825 l 169 881 q 165 903 160 889 q 225 982 188 956 q 303 1008 263 1008 q 388 976 343 1008 q 401 967 392 974 q 419 956 410 960 q 438 953 428 953 q 488 978 467 953 q 510 985 497 993 l 571 936 q 576 925 576 931 q 568 904 576 917 q 501 838 539 858 q 426 818 464 818 z "},"ő":{"ha":610,"x_min":31,"x_max":692,"o":"m 276 -11 q 95 42 160 -11 q 31 192 31 96 q 33 229 31 204 l 65 489 q 159 664 79 599 q 367 729 239 729 q 548 674 483 729 q 613 525 613 619 q 610 489 613 514 l 578 229 q 485 53 564 117 q 276 -11 406 -11 m 300 188 q 338 204 322 188 q 357 249 353 221 l 383 471 l 385 483 q 374 519 385 506 q 343 532 363 532 q 306 515 321 532 q 288 471 290 499 l 260 249 q 268 204 257 221 q 300 188 279 188 m 203 803 q 190 808 193 803 q 193 822 188 813 l 271 960 q 290 972 276 972 l 447 972 q 460 967 457 972 q 457 953 463 963 l 369 815 q 350 803 363 803 l 203 803 m 432 803 q 419 808 422 803 q 422 822 417 814 l 508 960 q 531 972 517 972 l 676 972 q 688 967 685 972 q 686 953 692 963 l 599 815 q 578 803 590 803 l 432 803 z "},"ō":{"ha":610,"x_min":31,"x_max":613,"o":"m 276 -11 q 95 42 160 -11 q 31 192 31 96 q 33 229 31 204 l 65 489 q 159 664 79 599 q 367 729 239 729 q 548 674 483 729 q 613 525 613 619 q 610 489 613 514 l 578 229 q 485 53 564 117 q 276 -11 406 -11 m 300 188 q 338 204 322 188 q 357 249 353 221 l 383 471 l 385 483 q 374 519 385 506 q 343 532 363 532 q 306 515 321 532 q 288 471 290 499 l 260 249 q 268 204 257 221 q 300 188 279 188 m 235 800 q 224 805 228 800 q 221 817 219 810 l 236 939 q 242 951 238 946 q 254 956 247 956 l 526 956 q 538 951 533 956 q 540 939 542 946 l 525 817 q 519 805 524 810 q 507 800 514 800 l 235 800 z "},"ø":{"ha":618,"x_min":-10,"x_max":661,"o":"m 650 728 q 653 706 661 718 l 594 619 q 593 611 593 617 q 611 525 611 574 q 608 489 611 514 l 576 229 q 483 53 563 117 q 275 -11 404 -11 q 179 0 226 -11 q 171 -4 174 3 l 121 -81 q 109 -89 115 -87 q 97 -86 103 -90 l -3 -15 q -10 -4 -10 -11 q -6 7 -10 1 l 47 90 q 49 99 50 94 q 31 193 31 139 q 32 229 31 217 l 64 489 q 158 664 78 599 q 365 729 238 729 q 467 715 415 729 q 475 719 474 714 l 524 793 q 534 802 528 800 q 547 800 540 804 l 650 728 m 383 483 q 372 519 383 506 q 342 532 361 532 q 305 515 321 532 q 286 471 289 497 l 258 249 q 267 204 256 221 q 299 188 278 188 q 336 204 321 188 q 356 249 351 221 l 382 471 l 383 483 z "},"ǿ":{"ha":610,"x_min":-10,"x_max":661,"o":"m 650 728 q 653 706 661 718 l 594 619 q 593 611 593 617 q 611 525 611 574 q 608 489 611 514 l 576 229 q 483 53 563 117 q 275 -11 404 -11 q 179 0 226 -11 q 171 -4 174 3 l 121 -81 q 109 -89 115 -87 q 97 -86 103 -90 l -3 -15 q -10 -4 -10 -11 q -6 7 -10 1 l 47 90 q 49 99 50 94 q 31 193 31 139 q 32 229 31 217 l 64 489 q 158 664 78 599 q 365 729 238 729 q 467 715 415 729 q 475 719 474 714 l 524 793 q 534 802 528 800 q 547 800 540 804 l 650 728 m 383 483 q 372 519 383 506 q 342 532 361 532 q 305 515 321 532 q 286 471 289 497 l 258 249 q 267 204 256 221 q 299 188 278 188 q 336 204 321 188 q 356 249 351 221 l 382 471 l 383 483 m 294 803 q 281 811 281 803 q 285 822 281 817 l 381 961 q 401 972 388 972 l 551 972 q 564 964 564 972 q 558 951 564 957 l 436 813 q 415 803 428 803 l 294 803 z "},"õ":{"ha":610,"x_min":31,"x_max":618,"o":"m 276 -11 q 95 42 160 -11 q 31 192 31 96 q 33 229 31 204 l 65 489 q 159 664 79 599 q 367 729 239 729 q 548 674 483 729 q 613 525 613 619 q 610 489 613 514 l 578 229 q 485 53 564 117 q 276 -11 406 -11 m 300 188 q 338 204 322 188 q 357 249 353 221 l 383 471 l 385 483 q 374 519 385 506 q 343 532 363 532 q 306 515 321 532 q 288 471 290 499 l 260 249 q 268 204 257 221 q 300 188 279 188 m 468 803 q 397 825 438 803 q 378 838 388 831 q 361 847 368 844 q 344 850 354 850 q 297 821 318 850 q 285 812 292 814 q 274 815 279 810 l 211 865 q 207 888 201 874 q 267 967 229 940 q 344 993 304 993 q 429 961 385 993 q 442 951 433 958 q 460 941 451 944 q 479 938 469 938 q 529 963 508 938 q 551 969 539 978 l 613 921 q 618 910 618 915 q 610 889 618 901 q 543 823 581 843 q 468 803 506 803 z "},"œ":{"ha":947,"x_min":31,"x_max":954,"o":"m 931 311 q 924 299 929 304 q 913 294 919 294 l 618 294 q 611 288 611 294 l 606 247 q 613 203 603 219 q 646 186 624 186 q 699 236 682 186 q 718 250 704 250 l 903 239 q 913 234 910 239 q 915 221 917 229 q 621 -11 872 -11 q 463 58 518 -11 q 459 61 461 61 q 454 58 457 61 q 276 -11 381 -11 q 95 42 160 -11 q 31 192 31 96 q 33 229 31 204 l 65 489 q 159 664 79 599 q 367 729 239 729 q 526 657 472 729 q 536 657 532 651 q 713 729 608 729 q 891 674 828 729 q 954 525 954 619 q 951 489 954 514 l 931 311 m 383 471 q 385 485 385 475 q 373 519 385 506 q 343 532 361 532 q 306 515 321 532 q 288 471 290 499 l 260 247 q 268 203 257 221 q 300 186 279 186 q 338 203 322 186 q 357 247 353 219 l 383 471 m 688 532 q 651 515 667 532 q 633 471 636 497 l 628 431 q 633 424 628 424 l 714 424 q 721 431 721 424 l 726 471 q 719 515 729 499 q 688 532 708 532 z "},"p":{"ha":614,"x_min":-14,"x_max":619,"o":"m 460 729 q 619 550 619 729 q 615 489 619 521 l 583 229 q 369 -11 553 -11 q 254 50 290 -11 q 249 53 251 54 q 246 49 246 53 l 211 -237 q 205 -249 210 -244 q 193 -254 200 -254 l 1 -254 q -10 -249 -6 -254 q -12 -237 -14 -244 l 103 701 q 109 713 104 708 q 121 718 114 718 l 311 718 q 323 713 318 718 q 326 701 328 708 l 322 674 q 325 671 322 671 q 340 682 329 671 q 460 729 389 729 m 389 471 q 382 515 392 499 q 353 532 372 532 q 315 515 331 532 q 297 471 300 499 l 271 247 q 269 233 269 243 q 281 199 269 213 q 310 186 292 186 q 344 203 329 186 q 361 247 358 219 l 389 471 z "},"þ":{"ha":608,"x_min":-24,"x_max":613,"o":"m 454 729 q 613 551 613 729 q 608 489 613 522 l 576 229 q 364 -11 547 -11 q 249 56 281 -11 q 243 59 246 60 q 239 53 240 58 l 201 -261 q 195 -273 200 -268 q 183 -278 190 -278 l -8 -278 q -19 -273 -15 -278 q -22 -261 -24 -268 l 126 956 q 133 967 128 963 q 144 972 138 972 l 336 972 q 347 967 343 972 q 350 956 351 963 l 315 664 l 315 663 q 317 661 315 661 q 329 671 319 661 q 454 729 376 729 m 382 471 q 383 485 383 476 q 373 519 383 507 q 346 532 363 532 q 309 515 324 532 q 290 471 294 499 l 264 247 q 263 233 263 243 q 274 199 263 213 q 303 186 285 186 q 338 203 324 186 q 356 247 351 219 l 382 471 z "},"q":{"ha":614,"x_min":29,"x_max":632,"o":"m 407 701 q 413 713 408 708 q 425 718 418 718 l 617 718 q 628 713 624 718 q 631 701 632 708 l 515 -237 q 509 -249 514 -244 q 497 -254 504 -254 l 306 -254 q 294 -249 299 -254 q 292 -237 290 -244 l 326 49 q 325 53 328 53 q 318 50 322 54 q 189 -11 268 -11 q 29 168 29 -11 q 33 229 29 196 l 65 489 q 279 729 94 729 q 394 671 357 729 q 400 669 397 668 q 403 674 403 669 l 407 701 m 296 186 q 333 203 318 186 q 351 247 349 219 l 378 471 q 379 485 379 475 q 368 519 379 506 q 339 532 357 532 q 305 515 319 532 q 288 471 290 499 l 260 247 q 267 203 257 219 q 296 186 276 186 z "}}}
